SplineFontDB: 3.2
FontName: SeriousShannsLightItalic
FullName: Serious Shanns Light Italic
FamilyName: Serious Shanns Light Italic
Weight: Light
Copyright: https://github.com/kaBeech/serious-sans/blob/main/LICENSE
Version: 6.0.0
ItalicAngle: -11.8
UnderlinePosition: 0
UnderlineWidth: 0
Ascent: 800
Descent: 200
InvalidEm: 0
sfntRevision: 0x00001999
LayerCount: 2
Layer: 0 0 "Back" 1
Layer: 1 0 "Fore" 0
XUID: [1021 329 -1817886000 6804199]
StyleMap: 0x0040
FSType: 4
OS2Version: 3
OS2_WeightWidthSlopeOnly: 0
OS2_UseTypoMetrics: 0
CreationTime: 1532631502
ModificationTime: 315532800
PfmFamily: 81
TTFWeight: 300
TTFWidth: 5
LineGap: 0
VLineGap: 0
Panose: 0 0 0 0 0 0 0 0 0 0
OS2TypoAscent: 613
OS2TypoAOffset: 0
OS2TypoDescent: -188
OS2TypoDOffset: 0
OS2TypoLinegap: 98
OS2WinAscent: 778
OS2WinAOffset: 0
OS2WinDescent: 308
OS2WinDOffset: 0
HheadAscent: 796
HheadAOffset: 0
HheadDescent: -317
HheadDOffset: 0
OS2SubXSize: 317
OS2SubYSize: 293
OS2SubXOff: 0
OS2SubYOff: 37
OS2SupXSize: 317
OS2SupYSize: 293
OS2SupXOff: 0
OS2SupYOff: 171
OS2StrikeYSize: 0
OS2StrikeYPos: 132
OS2CapHeight: 576
OS2XHeight: 485
OS2Vendor: 'NONE'
OS2CodePages: 00000001.00000000
OS2UnicodeRanges: 00000001.00000000.00000000.00000000
MarkAttachClasses: 1
DEI: 91125
LangName: 1033 "" "" "Normal" "FontForge 2.0 : Serious Shanns Light Italic : 11-6-2024" "" "Version 0.1.2"
Encoding: UnicodeBmp
Compacted: 1
UnicodeInterp: none
NameList: AGL For New Fonts
DisplaySize: -48
AntiAlias: 1
FitToEm: 0
WinInfo: 64 16 4
BeginPrivate: 8
BlueValues 32 [-39 -6 490 521 685 718 765 769]
OtherBlues 11 [-304 -292]
BlueScale 9 0.0291667
BlueShift 1 3
StdHW 4 [67]
StdVW 4 [65]
StemSnapH 23 [61 62 63 65 67 94 130]
StemSnapV 14 [40 58 65 125]
EndPrivate
BeginChars: 65537 122

StartChar: .notdef
Encoding: 65536 -1 0
Width: 590
GlyphClass: 1
Flags: HMW
HStem: 688 20G<291.348 614.348 291.348 291.348>
LayerCount: 2
Fore
SplineSet
273.34765625 737 m 1
 646.34765625 737 l 1
 417.34765625 -255 l 1
 44.34765625 -255 l 1
 273.34765625 737 l 1
614.34765625 708 m 1
 291.34765625 708 l 1
 75.34765625 -226 l 1
 399.34765625 -226 l 1
 614.34765625 708 l 1
EndSplineSet
Validated: 1
EndChar

StartChar: exclam
Encoding: 33 33 11
Width: 590
GlyphClass: 2
Flags: HMW
HStem: -13 130<274.281 337.281>
VStem: 240.781 131<27.5 80.5>
LayerCount: 2
Fore
SplineSet
391.78125 274 m 0
 387.78125 262 381.78125 253 372.78125 247 c 0
 363.78125 241 355.78125 237 346.78125 237 c 2
 343.78125 237 l 2
 334.78125 237 328.78125 240 325.78125 245 c 0
 323.78125 247 322.78125 250 322.78125 254 c 0
 322.78125 258 323.78125 264 325.78125 272 c 0
 328.78125 281 331.78125 290 335.78125 300 c 0
 339.78125 310 342.78125 318 344.78125 325 c 0
 346.78125 332 349.78125 347 355.78125 371 c 0
 361.78125 395 367.78125 423 373.78125 454 c 0
 379.78125 485 385.78125 515 392.78125 544 c 0
 399.78125 573 404.78125 593 406.78125 603 c 0
 408.78125 613 414.78125 634 423.78125 668 c 0
 432.78125 702 437.78125 724 439.78125 732 c 0
 443.78125 747 450.78125 759 458.78125 766 c 0
 466.78125 773 476.78125 777 486.78125 777 c 2
 489.78125 777 l 2
 497.78125 777 503.78125 775 506.78125 771 c 0
 508.78125 769 509.78125 764 509.78125 759 c 0
 509.78125 754 507.78125 748 506.78125 742 c 0
 505.78125 736 493.78125 691 472.78125 609 c 0
 451.78125 527 435.78125 462 424.78125 411 c 0
 413.78125 360 406.78125 330 403.78125 320 c 0
 400.78125 310 395.78125 295 391.78125 274 c 0
371.78125 75 m 0
 371.78125 70 370.78125 64 369.78125 57 c 0
 365.78125 39 357.78125 24 342.78125 11 c 0
 327.78125 -2 309.78125 -10 288.78125 -12 c 0
 286.78125 -12 283.78125 -13 281.78125 -13 c 0
 266.78125 -13 255.78125 -7 248.78125 3 c 0
 242.78125 12 240.78125 22 240.78125 33 c 0
 240.78125 38 241.78125 44 242.78125 51 c 0
 247.78125 68 256.78125 83 273.78125 96 c 0
 292.78125 110 310.78125 117 329.78125 117 c 0
 344.78125 117 357.78125 112 364.78125 102 c 0
 369.78125 95 371.78125 86 371.78125 75 c 0
EndSplineSet
Validated: 1
EndChar

StartChar: quotedbl
Encoding: 34 34 12
Width: 590
GlyphClass: 2
Flags: HMW
HStem: 448 323<301.546 390.046 306.046 390.046 384.046 455.046 384.046 456.046>
LayerCount: 2
Fore
SplineSet
390.045898438 771 m 2
 398.045898438 771 405.045898438 769 411.045898438 765 c 0
 412.045898438 763 414.045898438 760 415.045898438 756 c 0
 416.045898438 752 416.045898438 748 415.045898438 741 c 0
 409.045898438 714 398.045898438 669 382.045898438 607 c 0
 366.045898438 545 355.045898438 502 347.045898438 479 c 0
 343.045898438 468 337.045898438 461 329.045898438 456 c 0
 321.045898438 451 314.045898438 448 307.045898438 448 c 2
 306.045898438 448 l 2
 297.045898438 448 289.045898438 452 283.045898438 457 c 0
 281.045898438 459 279.045898438 462 279.045898438 466 c 0
 279.045898438 470 280.045898438 474 281.045898438 478 c 0
 292.045898438 512 303.045898438 556 314.045898438 609 c 0
 325.045898438 662 334.045898438 706 341.045898438 741 c 0
 342.045898438 748 345.045898438 753 348.045898438 757 c 0
 351.045898438 762 355.045898438 765 359.045898438 766 c 0
 368.045898438 769 377.045898438 771 384.045898438 771 c 2
 390.045898438 771 l 2
532.045898438 607 m 0
 517.045898438 545 505.045898438 502 497.045898438 479 c 0
 493.045898438 468 487.045898438 461 479.045898438 456 c 0
 471.045898438 451 463.045898438 448 456.045898438 448 c 2
 455.045898438 448 l 2
 446.045898438 448 438.045898438 452 432.045898438 457 c 0
 430.045898438 459 429.045898438 463 429.045898438 466 c 0
 429.045898438 469 430.045898438 473 431.045898438 478 c 0
 441.045898438 512 452.045898438 556 463.045898438 609 c 0
 474.045898438 662 483.045898438 706 490.045898438 741 c 0
 491.045898438 748 494.045898438 753 498.045898438 757 c 0
 502.045898438 761 505.045898438 765 509.045898438 766 c 0
 518.045898438 769 526.045898438 771 533.045898438 771 c 2
 539.045898438 771 l 2
 544.045898438 771 548.045898438 771 551.045898438 770 c 0
 554.045898438 769 558.045898438 767 561.045898438 765 c 0
 564.045898438 763 565.045898438 758 565.045898438 751 c 0
 565.045898438 743 554.045898438 695 532.045898438 607 c 0
EndSplineSet
Validated: 524289
EndChar

StartChar: numbersign
Encoding: 35 35 13
Width: 590
GlyphClass: 2
Flags: HMW
HStem: 205 57<473.476 511.476 450.476 530.476> 457 60<374.476 484.476 350.476 508.476 374.476 592.476 374.476 549.476>
LayerCount: 2
Fore
SplineSet
254.475585938 203 m 1
 245.475585938 203 l 1
 213.475585938 126 191.475585938 74 179.475585938 47 c 0
 172.475585938 36 163.475585938 26 150.475585938 18 c 0
 141.475585938 13 133.475585938 10 127.475585938 10 c 0
 125.475585938 10 121.475585938 11 119.475585938 12 c 0
 115.475585938 12 113.475585938 14 112.475585938 16 c 0
 110.475585938 20 108.475585938 26 108.475585938 34 c 0
 108.475585938 44 110.475585938 55 116.475585938 67 c 0
 125.475585938 86 147.475585938 131 178.475585938 202 c 1
 131.475585938 202 l 2
 119.475585938 202 111.475585938 204 107.475585938 208 c 0
 105.475585938 210 102.475585938 214 102.475585938 217 c 0
 102.475585938 218 103.475585938 221 103.475585938 223 c 0
 105.475585938 232 110.475585938 241 117.475585938 247 c 0
 124.475585938 253 136.475585938 257 149.475585938 257 c 0
 154.475585938 257 161.475585938 258 171.475585938 258 c 0
 181.475585938 258 190.475585938 260 201.475585938 260 c 1
 283.475585938 456 l 1
 264.475585938 456 l 1
 226.475585938 455 l 1
 222.475585938 455 l 2
 212.475585938 455 205.475585938 457 202.475585938 461 c 0
 200.475585938 464 199.475585938 468 199.475585938 473 c 2
 199.475585938 480 l 2
 200.475585938 489 205.475585938 497 213.475585938 503 c 0
 221.475585938 509 231.475585938 514 244.475585938 514 c 2
 245.475585938 514 l 2
 257.475585938 514 276.475585938 515 300.475585938 515 c 2
 307.475585938 515 l 1
 373.475585938 677 l 2
 380.475585938 692 390.475585938 702 399.475585938 707 c 0
 406.475585938 710 411.475585938 712 416.475585938 712 c 0
 418.475585938 712 423.475585938 711 425.475585938 711 c 0
 434.475585938 709 440.475585938 705 442.475585938 698 c 0
 443.475585938 696 444.475585938 692 444.475585938 689 c 0
 444.475585938 683 441.475585938 675 437.475585938 666 c 2
 374.475585938 517 l 1
 508.475585938 517 l 1
 569.475585938 670 l 2
 576.475585938 685 584.475585938 695 594.475585938 700 c 0
 600.475585938 703 606.475585938 705 612.475585938 705 c 0
 614.475585938 705 617.475585938 704 620.475585938 704 c 0
 629.475585938 702 636.475585938 698 638.475585938 691 c 0
 638.475585938 689 639.475585938 686 639.475585938 684 c 0
 639.475585938 677 638.475585938 669 633.475585938 659 c 0
 620.475585938 633 600.475585938 586 574.475585938 519 c 1
 593.475585938 519 l 1
 603.475585938 519 l 2
 614.475585938 519 624.475585938 515 629.475585938 509 c 0
 634.475585938 504 636.475585938 500 636.475585938 495 c 0
 636.475585938 494 635.475585938 492 635.475585938 491 c 0
 633.475585938 482 627.475585938 473 620.475585938 467 c 0
 613.475585938 461 604.475585938 457 592.475585938 457 c 2
 549.475585938 457 l 1
 473.475585938 262 l 1
 530.475585938 262 l 2
 540.475585938 262 546.475585938 260 547.475585938 258 c 0
 549.475585938 254 550.475585938 248 549.475585938 239 c 0
 547.475585938 228 541.475585938 219 536.475585938 214 c 0
 530.475585938 208 522.475585938 205 511.475585938 205 c 2
 450.475585938 205 l 1
 419.475585938 124 398.475585938 70 386.475585938 43 c 0
 379.475585938 31 369.475585938 22 357.475585938 16 c 0
 349.475585938 12 342.475585938 10 336.475585938 10 c 0
 334.475585938 10 329.475585938 11 326.475585938 12 c 0
 320.475585938 13 317.475585938 18 316.475585938 25 c 0
 316.475585938 28 315.475585938 32 315.475585938 34 c 0
 315.475585938 43 318.475585938 52 323.475585938 63 c 0
 336.475585938 90 356.475585938 137 383.475585938 204 c 1
 364.475585938 204 l 1
 254.475585938 203 l 1
484.475585938 457 m 1
 350.475585938 457 l 1
 268.475585938 261 l 1
 306.475585938 262 350.475585938 263 398.475585938 263 c 2
 406.475585938 263 l 1
 431.475585938 323 457.475585938 387 484.475585938 457 c 1
EndSplineSet
Validated: 524289
EndChar

StartChar: dollar
Encoding: 36 36 14
Width: 590
GlyphClass: 2
Flags: HMW
HStem: -17 60<239.847 273.847 249.847 273.847 253.847 273.847>
VStem: 218.847 63 484.847 69<235 287>
LayerCount: 2
Fore
SplineSet
195.84765625 -8 m 0
 178.84765625 -2 165.84765625 4 154.84765625 13 c 0
 133.84765625 31 119.84765625 52 112.84765625 76 c 0
 111.84765625 82 110.84765625 89 110.84765625 95 c 0
 110.84765625 101 112.84765625 107 114.84765625 112 c 0
 118.84765625 121 124.84765625 127 133.84765625 131 c 0
 140.84765625 134 146.84765625 137 149.84765625 137 c 0
 152.84765625 137 156.84765625 138 157.84765625 138 c 2
 162.84765625 138 l 2
 163.84765625 138 165.84765625 135 167.84765625 133 c 0
 169.84765625 131 173.84765625 125 176.84765625 118 c 0
 185.84765625 96 196.84765625 77 211.84765625 64 c 0
 226.84765625 50 246.84765625 43 271.84765625 43 c 2
 273.84765625 43 l 1
 281.84765625 43 l 1
 308.84765625 161 331.84765625 268 351.84765625 365 c 1
 340.84765625 366 331.84765625 368 325.84765625 369 c 0
 319.84765625 370 313.84765625 371 309.84765625 371 c 0
 291.84765625 373 276.84765625 378 263.84765625 387 c 0
 250.84765625 396 240.84765625 406 233.84765625 419 c 0
 223.84765625 438 218.84765625 458 218.84765625 480 c 0
 218.84765625 487 219.84765625 494 221.84765625 503 c 0
 226.84765625 526 234.84765625 548 245.84765625 569 c 0
 255.84765625 590 268.84765625 610 284.84765625 628 c 0
 300.84765625 646 320.84765625 661 342.84765625 674 c 0
 364.84765625 687 389.84765625 697 416.84765625 702 c 2
 423.84765625 704 l 1
 428.84765625 725 434.84765625 747 439.84765625 769 c 0
 442.84765625 784 447.84765625 795 453.84765625 803 c 0
 459.84765625 811 465.84765625 815 474.84765625 815 c 2
 476.84765625 815 l 2
 483.84765625 815 488.84765625 814 490.84765625 811 c 0
 492.84765625 808 493.84765625 803 493.84765625 797 c 0
 493.84765625 791 491.84765625 785 490.84765625 778 c 2
 476.84765625 711 l 1
 489.84765625 710 l 2
 502.84765625 710 520.84765625 706 542.84765625 700 c 0
 564.84765625 694 580.84765625 689 591.84765625 684 c 0
 598.84765625 681 603.84765625 676 605.84765625 670 c 0
 605.84765625 668 606.84765625 664 606.84765625 660 c 0
 606.84765625 656 604.84765625 651 602.84765625 644 c 0
 601.84765625 639 599.84765625 634 595.84765625 631 c 0
 591.84765625 628 587.84765625 626 584.84765625 626 c 2
 575.84765625 626 l 2
 569.84765625 626 563.84765625 627 557.84765625 629 c 0
 552.84765625 630 546.84765625 634 539.84765625 638 c 0
 532.84765625 642 523.84765625 646 512.84765625 649 c 0
 501.84765625 652 487.84765625 655 472.84765625 655 c 2
 463.84765625 656 l 1
 450.84765625 596 432.84765625 518 411.84765625 421 c 1
 423.84765625 419 l 2
 447.84765625 415 467.84765625 408 484.84765625 399 c 0
 502.84765625 389 515.84765625 378 525.84765625 366 c 0
 535.84765625 354 542.84765625 341 546.84765625 326 c 0
 550.84765625 311 553.84765625 295 553.84765625 279 c 0
 553.84765625 263 551.84765625 247 546.84765625 227 c 0
 539.84765625 198 529.84765625 170 513.84765625 144 c 0
 497.84765625 118 480.84765625 96 460.84765625 76 c 0
 440.84765625 56 419.84765625 40 396.84765625 26 c 0
 373.84765625 12 349.84765625 1 324.84765625 -6 c 2
 318.84765625 -8 l 1
 309.84765625 -52 303.84765625 -82 301.84765625 -96 c 0
 297.84765625 -107 291.84765625 -117 283.84765625 -123 c 0
 275.84765625 -129 267.84765625 -132 258.84765625 -132 c 2
 257.84765625 -132 l 2
 255.84765625 -132 252.84765625 -131 250.84765625 -131 c 0
 247.84765625 -129 245.84765625 -125 245.84765625 -118 c 0
 245.84765625 -113 246.84765625 -106 248.84765625 -97 c 0
 253.84765625 -81 259.84765625 -54 267.84765625 -17 c 1
 253.84765625 -17 l 1
 249.84765625 -17 l 2
 229.84765625 -17 212.84765625 -14 195.84765625 -8 c 0
295.84765625 468 m 0
 308.84765625 450 327.84765625 437 353.84765625 429 c 2
 364.84765625 426 l 1
 376.84765625 480 392.84765625 555 412.84765625 651 c 1
 394.84765625 645 l 2
 366.84765625 636 342.84765625 623 322.84765625 603 c 0
 302.84765625 583 289.84765625 560 284.84765625 533 c 0
 282.84765625 526 281.84765625 520 281.84765625 513 c 0
 281.84765625 496 286.84765625 481 295.84765625 468 c 0
484.84765625 241 m 0
 484.84765625 253 482.84765625 266 477.84765625 281 c 0
 473.84765625 294 465.84765625 306 453.84765625 317 c 0
 441.84765625 328 426.84765625 338 407.84765625 346 c 2
 395.84765625 352 l 1
 392.84765625 338 l 1
 392.84765625 338 381.84765625 287 360.84765625 188 c 0
 348.84765625 133 338.84765625 88 330.84765625 53 c 1
 350.84765625 62 l 2
 382.84765625 76 410.84765625 95 434.84765625 120 c 0
 458.84765625 145 473.84765625 173 480.84765625 205 c 0
 482.84765625 217 484.84765625 229 484.84765625 241 c 0
EndSplineSet
Validated: 524289
EndChar

StartChar: percent
Encoding: 37 37 15
Width: 590
GlyphClass: 2
Flags: HMW
HStem: -16 52<385.432 420.932 393.932 420.932> 184 49<448.432 449.432> 444 51<253.432 287.932 261.932 287.932> 645 48<317.432 321.932>
VStem: 196.932 41<522.5 546.5> 328.932 41<63.5 86.5> 359.932 41<589.5 628> 490.932 35<99 143> 490.932 45<129.5 169>
LayerCount: 2
Fore
SplineSet
219.932617188 461 m 0xfa
 208.932617188 472 200.932617188 486 198.932617188 503 c 0
 197.932617188 510 196.932617188 518 196.932617188 527 c 0
 196.932617188 536 197.932617188 548 200.932617188 561 c 0
 209.932617188 600 225.932617188 631 248.932617188 656 c 0
 271.932617188 681 300.932617188 693 333.932617188 693 c 0
 359.932617188 693 378.932617188 683 390.932617188 664 c 0
 397.932617188 653 400.932617188 638 400.932617188 618 c 0
 400.932617188 601 397.932617188 581 391.932617188 559 c 0
 382.932617188 521 366.932617188 493 345.932617188 473 c 0
 324.932617188 453 297.932617188 444 262.932617188 444 c 2
 261.932617188 444 l 2
 244.932617188 444 230.932617188 450 219.932617188 461 c 0xfa
96.9326171875 12 m 0
 118.932617188 44 162.932617188 104 227.932617188 192 c 2
 422.932617188 470 l 2
 488.932617188 563 534.932617188 629 560.932617188 670 c 0
 568.932617188 680 577.932617188 686 587.932617188 688 c 0
 590.932617188 688 594.932617188 689 596.932617188 689 c 0
 601.932617188 689 605.932617188 687 610.932617188 684 c 0
 613.932617188 683 615.932617188 681 616.932617188 680 c 0
 617.932617188 679 618.932617188 675 618.932617188 673 c 0
 618.932617188 665 614.932617188 654 603.932617188 641 c 0
 570.932617188 600 494.932617188 497 376.932617188 330 c 0
 261.932617188 163 182.932617188 51 140.932617188 -9 c 0
 131.932617188 -21 123.932617188 -29 116.932617188 -34 c 0
 111.932617188 -37 106.932617188 -39 102.932617188 -39 c 0
 98.9326171875 -39 95.9326171875 -38 92.9326171875 -36 c 0
 89.9326171875 -34 85.9326171875 -31 84.9326171875 -29 c 0
 83.9326171875 -27 82.9326171875 -24 82.9326171875 -21 c 0
 82.9326171875 -12 87.9326171875 -1 96.9326171875 12 c 0
285.932617188 495 m 2
 287.932617188 495 l 2
 304.932617188 495 318.932617188 501 329.932617188 514 c 0
 340.932617188 527 349.932617188 543 355.932617188 563 c 0
 357.932617188 574 359.932617188 585 359.932617188 594 c 0
 359.932617188 605 358.932617188 615 353.932617188 623 c 0
 344.932617188 638 331.932617188 645 311.932617188 645 c 0
 294.932617188 645 279.932617188 638 267.932617188 623 c 0
 256.932617188 610 247.932617188 592 241.932617188 570 c 0
 239.932617188 560 237.932617188 551 237.932617188 542 c 0
 237.932617188 533 238.932617188 526 241.932617188 519 c 0
 248.932617188 505 263.932617188 497 285.932617188 495 c 2
351.932617188 1 m 0
 340.932617188 12 333.932617188 26 330.932617188 43 c 0
 329.932617188 50 328.932617188 59 328.932617188 68 c 0xfc80
 328.932617188 77 330.932617188 88 332.932617188 101 c 0
 340.932617188 140 357.932617188 171 380.932617188 196 c 0
 403.932617188 221 431.932617188 233 464.932617188 233 c 0
 477.932617188 233 489.932617188 231 498.932617188 226 c 0
 508.932617188 221 517.932617188 214 524.932617188 204 c 0
 531.932617188 194 535.932617188 179 535.932617188 159 c 0
 535.932617188 142 532.932617188 122 525.932617188 100 c 1xfd
 525.932617188 99 l 1
 514.932617188 61 498.932617188 32 477.932617188 12 c 0
 456.932617188 -7 429.932617188 -16 396.932617188 -16 c 2
 393.932617188 -16 l 2
 376.932617188 -16 362.932617188 -10 351.932617188 1 c 0
417.932617188 36 m 2
 420.932617188 36 l 2
 436.932617188 36 450.932617188 42 461.932617188 55 c 0
 472.932617188 68 481.932617188 83 486.932617188 103 c 0
 488.932617188 114 490.932617188 125 490.932617188 134 c 0
 490.932617188 152 486.932617188 165 475.932617188 174 c 0
 466.932617188 181 455.932617188 184 442.932617188 184 c 0
 425.932617188 184 411.932617188 176 399.932617188 162 c 0
 387.932617188 149 378.932617188 131 373.932617188 110 c 0
 371.932617188 100 369.932617188 91 369.932617188 82 c 0
 369.932617188 73 371.932617188 66 374.932617188 59 c 0
 381.932617188 45 395.932617188 37 417.932617188 36 c 2
EndSplineSet
Validated: 524289
EndChar

StartChar: ampersand
Encoding: 38 38 16
Width: 590
GlyphClass: 2
Flags: HMW
HStem: -29 69 657 55
VStem: 93.8654 71<105.001 142.501> 271.866 64<541.001 542.001> 438.866 71<8.00098 34>
LayerCount: 2
Fore
SplineSet
505.866210938 5 m 0
 500.866210938 -11 493.866210938 -20.9990234375 485.866210938 -23.9990234375 c 0
 480.866210938 -25.9990234375 476.866210938 -27.9990234375 472.866210938 -27.9990234375 c 0
 467.866210938 -27.9990234375 463.866210938 -25.9990234375 459.866210938 -23.9990234375 c 0
 450.866210938 -17.9990234375 443.866210938 -6.9990234375 438.866210938 8.0009765625 c 0
 438.866210938 12.0009765625 436.866210938 22.0009765625 434.866210938 38.0009765625 c 0
 432.866210938 54.0009765625 430.866210938 65.0009765625 428.866210938 73.0009765625 c 2
 423.866210938 97.0009765625 l 1
 407.866210938 79.0009765625 l 2
 405.866210938 77.0009765625 400.866210938 70.0009765625 392.866210938 62.0009765625 c 2
 374.866210938 44.0009765625 l 2
 355.866210938 25.0009765625 342.866210938 13.0009765625 334.866210938 8.0009765625 c 0
 328.866210938 4.0009765625 320.866210938 0.0009765625 311.866210938 -5.9990234375 c 0
 302.866210938 -11.9990234375 293.866210938 -16.9990234375 285.866210938 -18.9990234375 c 0
 277.866210938 -20.9990234375 268.866210938 -23.9990234375 257.866210938 -25.9990234375 c 0
 246.866210938 -27.9990234375 236.866210938 -28.9990234375 226.866210938 -28.9990234375 c 0
 194.866210938 -28.9990234375 167.866210938 -19.9990234375 145.866210938 -2.9990234375 c 0
 123.866210938 14.0009765625 107.866210938 37.0009765625 99.8662109375 66.0009765625 c 0
 95.8662109375 81.0009765625 93.8662109375 97.0009765625 93.8662109375 113.000976562 c 0
 93.8662109375 129.000976562 95.8662109375 145.000976562 99.8662109375 162.000976562 c 0
 127.866210938 284.000976562 192.866210938 367.000976562 296.866210938 411.000976562 c 2
 307.866210938 416.000976562 l 1
 291.866210938 460.000976562 282.866210938 486.000976562 280.866210938 491.000976562 c 0
 278.866210938 497.000976562 276.866210938 505.000976562 274.866210938 513.000976562 c 0
 272.866210938 521.000976562 271.866210938 528.000976562 271.866210938 533.000976562 c 0
 271.866210938 551.000976562 273.866210938 569.000976562 277.866210938 587.000976562 c 0
 282.866210938 609.000976562 293.866210938 632.000976562 311.866210938 653.000976562 c 0
 320.866210938 664.000976562 331.866210938 675.000976562 343.866210938 683.000976562 c 0
 355.866210938 691.000976562 370.866210938 698.000976562 388.866210938 704.000976562 c 0
 406.866210938 710.000976562 424.866210938 712.000976562 445.866210938 712.000976562 c 0
 462.866210938 712.000976562 478.866210938 710.000976562 492.866210938 704.000976562 c 0
 506.866210938 698.000976562 518.866210938 690.000976562 528.866210938 680.000976562 c 0
 538.866210938 670.000976562 544.866210938 657.000976562 548.866210938 640.000976562 c 0
 550.754882812 631.974609375 551.751953125 623.279296875 551.751953125 614.020507812 c 0
 551.751953125 603.668945312 550.505859375 592.61328125 547.866210938 581 c 0
 542.866210938 561 535.866210938 542 526.866210938 525 c 0
 517.866210938 508 508.866210938 493 498.866210938 481 c 0
 488.866210938 469 476.866210938 458 462.866210938 447 c 0
 448.866210938 436 435.866210938 427 424.866210938 421 c 0
 413.866210938 415 401.866210938 409 386.866210938 402 c 2
 377.866210938 397 l 1
 380.866210938 387 l 2
 387.866210938 366 399.866210938 335 416.866210938 294 c 0
 433.866210938 253 444.866210938 227 449.866210938 214 c 2
 457.866210938 191 l 1
 472.866210938 213 484.866210938 232 492.866210938 244 c 0
 500.866210938 256 507.866210938 266 512.866210938 273 c 0
 517.866210938 280 521.866210938 286 523.866210938 289 c 0
 537.866210938 305 548.866210938 315 557.866210938 318 c 0
 559.866210938 319 563.866210938 320 565.866210938 320 c 0
 569.866210938 320 573.866210938 318 578.866210938 316 c 0
 583.866210938 313 585.866210938 307 585.866210938 300 c 0
 585.866210938 287 578.866210938 272 567.866210938 255 c 0
 563.866210938 249 551.866210938 236 531.866210938 215 c 0
 511.866210938 194 492.866210938 174 475.866210938 153 c 1
 480.866210938 137 487.866210938 116 494.866210938 93 c 0
 501.866210938 70 505.866210938 55 506.866210938 50 c 0
 507.866210938 45 509.866210938 38 509.866210938 30 c 0
 509.866210938 22 507.866210938 14 505.866210938 5 c 0
424.866210938 657.000976562 m 0
 399.866210938 657.000976562 379.866210938 648.000976562 364.866210938 631.000976562 c 0
 352.866210938 617.000976562 343.866210938 598.000976562 338.866210938 575.000976562 c 0
 336.866210938 566.000976562 335.866210938 556.000976562 335.866210938 546.000976562 c 0
 335.866210938 536.000976562 336.866210938 526.000976562 338.866210938 515.000976562 c 0
 341.866210938 493.000976562 348.866210938 474.000976562 357.866210938 458.000976562 c 2
 362.866210938 450.000976562 l 1
 372.866210938 453.000976562 l 2
 387.866210938 458.000976562 401.866210938 463.000976562 412.866210938 468.000976562 c 0
 423.866210938 473.000976562 434.866210938 480.000976562 445.866210938 489.000976562 c 0
 456.866210938 498.000976562 466.866210938 508.000976562 473.866210938 521.000976562 c 0
 480.866210938 534.000976562 486.866210938 550.000976562 490.866210938 567.000976562 c 0
 492.866210938 576.000976562 494.866210938 585.000976562 494.866210938 593.000976562 c 0
 494.866210938 610.000976562 489.866210938 623.000976562 480.866210938 634.000976562 c 0
 466.866210938 649.000976562 447.866210938 657.000976562 424.866210938 657.000976562 c 0
177.866210938 82.0009765625 m 0
 192.866210938 54.0009765625 217.866210938 40.0009765625 250.866210938 40.0009765625 c 0
 265.866210938 40.0009765625 282.866210938 43.0009765625 302.866210938 49.0009765625 c 0
 309.866210938 51.0009765625 317.866210938 56.0009765625 325.866210938 61.0009765625 c 0
 333.866210938 66.0009765625 338.866210938 69.0009765625 343.866210938 72.0009765625 c 0
 348.866210938 75.0009765625 353.866210938 80.0009765625 360.866210938 87.0009765625 c 0
 367.866210938 94.0009765625 373.866210938 99.0009765625 375.866210938 102.000976562 c 0
 377.866210938 105.000976562 382.866210938 109.000976562 388.866210938 116.000976562 c 0
 394.866210938 123.000976562 398.866210938 127.000976562 399.866210938 128.000976562 c 2
 404.866210938 133.000976562 l 1
 398.866210938 163.000976562 393.866210938 186.000976562 389.866210938 201.000976562 c 0
 384.866210938 217.000976562 374.866210938 242.000976562 360.866210938 277.000976562 c 0
 346.866210938 312.000976562 336.866210938 337.000976562 330.866210938 354.000976562 c 2
 325.866210938 366.000976562 l 1
 313.866210938 361.000976562 l 2
 292.866210938 352.000976562 273.866210938 341.000976562 256.866210938 327.000976562 c 0
 239.866210938 313.000976562 225.866210938 298.000976562 214.866210938 282.000976562 c 0
 203.866210938 266.000976562 194.866210938 249.000976562 187.866210938 232.000976562 c 0
 180.866210938 215.000976562 175.866210938 197.000976562 170.866210938 177.000976562 c 0
 166.866210938 162.000976562 164.866210938 149.000976562 164.866210938 136.000976562 c 0
 164.866210938 115.000976562 168.866210938 97.0009765625 177.866210938 82.0009765625 c 0
EndSplineSet
Validated: 524289
EndChar

StartChar: quotesingle
Encoding: 39 39 17
Width: 590
GlyphClass: 2
Flags: HMW
HStem: 458 302<382.354 461.354 382.354 461.354>
LayerCount: 2
Fore
SplineSet
462.353515625 760 m 2
 470.353515625 760 477.353515625 758 483.353515625 754 c 0
 484.353515625 753 486.353515625 750 487.353515625 746 c 0
 488.353515625 742 487.353515625 737 486.353515625 730 c 0
 480.353515625 704 471.353515625 663 457.353515625 608 c 0
 443.353515625 553 432.353515625 513 424.353515625 490 c 0
 420.353515625 479 414.353515625 470 406.353515625 465 c 0
 398.353515625 460 391.353515625 458 384.353515625 458 c 2
 382.353515625 458 l 2
 372.353515625 459 364.353515625 463 359.353515625 468 c 0
 357.353515625 470 356.353515625 473 356.353515625 477 c 0
 356.353515625 481 357.353515625 484 358.353515625 489 c 0
 368.353515625 524 378.353515625 563 388.353515625 609 c 0
 398.353515625 655 407.353515625 696 414.353515625 731 c 0
 414.353515625 737 416.353515625 743 420.353515625 747 c 0
 424.353515625 751 428.353515625 754 432.353515625 755 c 0
 441.353515625 758 449.353515625 760 456.353515625 760 c 2
 461.353515625 760 l 1
 462.353515625 760 l 2
EndSplineSet
Validated: 524289
EndChar

StartChar: parenleft
Encoding: 40 40 18
Width: 590
GlyphClass: 2
Flags: HMW
HStem: -119 60<334.692 377.192> 745 57<542.692 575.692>
VStem: 207.192 71<140.5 147.5>
LayerCount: 2
Fore
SplineSet
373.192382812 -59 m 0
 381.192382812 -59 386.192382812 -61 388.192382812 -64 c 0
 389.192382812 -65 391.192382812 -67 391.192382812 -71 c 0
 391.192382812 -75 389.192382812 -81 388.192382812 -90 c 0
 386.192382812 -98 382.192382812 -104 374.192382812 -110 c 0
 366.192382812 -116 359.192382812 -119 353.192382812 -119 c 0
 316.192382812 -119 285.192382812 -105 261.192382812 -76 c 0
 236.192382812 -45 220.192382812 -3 212.192382812 52 c 0
 209.192382812 77 207.192382812 103 207.192382812 130 c 0
 207.192382812 165 209.192382812 203 215.192382812 244 c 0
 222.192382812 293 238.192382812 356 262.192382812 433 c 0
 286.192382812 510 312.192382812 574 341.192382812 623 c 0
 354.192382812 644 369.192382812 666 387.192382812 687 c 0
 405.192382812 708 424.192382812 727 445.192382812 744 c 0
 466.192382812 761 488.192382812 775 510.192382812 786 c 0
 532.192382812 797 552.192382812 802 572.192382812 802 c 0
 579.192382812 802 584.192382812 801 586.192382812 799 c 0
 588.192382812 797 590.192382812 793 590.192382812 788 c 0
 590.192382812 785 590.192382812 781 589.192382812 776 c 0
 587.192382812 765 582.192382812 757 575.192382812 752 c 0
 568.192382812 747 561.192382812 745 552.192382812 745 c 0
 533.192382812 745 516.192382812 740 498.192382812 729 c 0
 480.192382812 718 463.192382812 703 448.192382812 685 c 0
 419.192382812 651 394.192382812 609 372.192382812 558 c 0
 355.192382812 523 338.192382812 475 321.192382812 414 c 0
 304.192382812 353 293.192382812 304 287.192382812 268 c 0
 281.192382812 232 278.192382812 197 278.192382812 164 c 0
 278.192382812 117 283.192382812 76 292.192382812 41 c 0
 299.192382812 12 310.192382812 -11 323.192382812 -29 c 0
 338.192382812 -49 354.192382812 -59 373.192382812 -59 c 0
EndSplineSet
Validated: 524289
EndChar

StartChar: parenright
Encoding: 41 41 19
Width: 590
GlyphClass: 2
Flags: HMW
HStem: -119 60<176.056 180.056> 745 57<358.056 388.056>
VStem: 460.556 65<551.5 571>
LayerCount: 2
Fore
SplineSet
525.555664062 571 m 0
 525.555664062 532 521.555664062 488 514.555664062 438 c 0
 503.555664062 361 489.555664062 298 473.555664062 250 c 0
 450.555664062 177 422.555664062 113 388.555664062 57 c 0
 354.555664062 1 318.555664062 -42 278.555664062 -73 c 0
 238.555664062 -104 199.555664062 -119 160.555664062 -119 c 0
 155.555664062 -119 150.555664062 -117 146.555664062 -112 c 0
 144.555664062 -110 143.555664062 -106 143.555664062 -102 c 2
 143.555664062 -96 l 2
 146.555664062 -81 151.555664062 -71 157.555664062 -66 c 0
 163.555664062 -61 171.555664062 -59 180.555664062 -59 c 0
 197.555664062 -59 217.555664062 -50 239.555664062 -31 c 0
 260.555664062 -14 280.555664062 10 301.555664062 38 c 0
 322.555664062 66 341.555664062 99 361.555664062 139 c 0
 381.555664062 179 396.555664062 218 409.555664062 259 c 0
 421.555664062 297 433.555664062 348 444.555664062 410 c 0
 455.555664062 472 460.555664062 522 460.555664062 560 c 0
 460.555664062 582 459.555664062 603 456.555664062 624 c 0
 453.555664062 645 448.555664062 663 441.555664062 682 c 0
 434.555664062 701 424.555664062 716 410.555664062 728 c 0
 396.555664062 740 380.555664062 745 361.555664062 745 c 0
 354.555664062 745 348.555664062 747 344.555664062 751 c 0
 342.555664062 753 341.555664062 755 341.555664062 759 c 0
 341.555664062 763 342.555664062 768 343.555664062 773 c 0
 344.555664062 778 347.555664062 784 350.555664062 788 c 0
 353.555664062 792 356.555664062 795 358.555664062 796 c 0
 365.555664062 800 371.555664062 802 378.555664062 802 c 0
 397.555664062 802 415.555664062 797 432.555664062 787 c 0
 449.555664062 777 463.555664062 764 475.555664062 747 c 0
 487.555664062 730 498.555664062 711 506.555664062 690 c 0
 514.555664062 669 520.555664062 648 522.555664062 627 c 0
 524.555664062 610 525.555664062 592 525.555664062 571 c 0
EndSplineSet
Validated: 524289
EndChar

StartChar: asterisk
Encoding: 42 42 20
Width: 590
GlyphClass: 2
Flags: HMW
HStem: 305 80<166.901 189.401> 313 71<555.401 575.901> 319 52<458.901 468.901 417.401 486.401>
VStem: 285.401 62 385.401 66<145 173>
LayerCount: 2
Fore
SplineSet
411.400390625 129 m 0x98
 404.400390625 129 398.400390625 131 393.400390625 134 c 0
 391.400390625 135 388.400390625 137 387.400390625 139 c 0
 386.400390625 141 385.400390625 144 385.400390625 146 c 0
 384.400390625 173 377.400390625 213 364.400390625 264 c 2
 357.400390625 290 l 1
 342.400390625 268 l 2
 298.400390625 206 270.400390625 165 259.400390625 145 c 0
 256.400390625 139 251.400390625 134 246.400390625 131 c 0
 241.400390625 129 235.400390625 126 230.400390625 126 c 2
 224.400390625 126 l 2
 222.400390625 126 218.400390625 126 214.400390625 127 c 0
 210.400390625 128 205.400390625 130 203.400390625 132 c 0
 201.400390625 134 198.400390625 137 197.400390625 141 c 0
 196.400390625 145 195.400390625 148 195.400390625 151 c 2
 195.400390625 159 l 2
 195.400390625 166 199.400390625 173 205.400390625 182 c 2
 309.400390625 312 l 1
 282.400390625 311 l 2
 231.400390625 307 193.400390625 305 169.400390625 305 c 0
 164.400390625 305 159.400390625 307 156.400390625 308 c 0
 153.400390625 309 150.400390625 312 148.400390625 315 c 0
 145.400390625 320 143.400390625 325 143.400390625 331 c 2
 145.400390625 341 l 2
 145.400390625 346 147.400390625 351 149.400390625 356 c 0
 156.400390625 369 163.400390625 378 172.400390625 382 c 0
 177.400390625 384 181.400390625 385 186.400390625 385 c 2
 189.400390625 385 l 2
 217.400390625 383 264.400390625 379 331.400390625 374 c 1
 325.400390625 391 l 2
 310.400390625 440 296.400390625 477 285.400390625 503 c 0
 283.400390625 509 282.400390625 515 282.400390625 521 c 0
 282.400390625 527 283.400390625 534 285.400390625 540 c 0
 289.400390625 551 295.400390625 559 303.400390625 562 c 0
 309.400390625 566 315.400390625 568 321.400390625 568 c 0
 326.400390625 568 332.400390625 566 337.400390625 562 c 0
 342.400390625 558 346.400390625 552 347.400390625 545 c 0
 350.400390625 529 361.400390625 483 381.400390625 406 c 1
 397.400390625 426 l 2
 432.400390625 471 460.400390625 509 480.400390625 540 c 0
 485.400390625 549 492.400390625 556 499.400390625 560 c 0
 506.400390625 564 513.400390625 566 518.400390625 566 c 0
 523.400390625 566 528.400390625 564 531.400390625 561 c 2
 532.400390625 561 l 2
 534.400390625 560 537.400390625 557 538.400390625 552 c 0
 538.400390625 550 539.400390625 546 539.400390625 543 c 0
 539.400390625 530 535.400390625 518 525.400390625 507 c 0
 498.400390625 476 466.400390625 437 431.400390625 390 c 2
 417.400390625 371 l 1x38
 441.400390625 371 l 2
 496.400390625 371 537.400390625 375 563.400390625 382 c 0
 567.400390625 383 571.400390625 384 573.400390625 384 c 0x58
 578.400390625 384 582.400390625 381 584.400390625 378 c 0
 588.400390625 373 591.400390625 367 591.400390625 362 c 0
 591.400390625 357 589.400390625 350 585.400390625 341 c 0
 578.400390625 328 571.400390625 319 563.400390625 315 c 0
 561.400390625 314 558.400390625 313 556.400390625 313 c 0
 554.400390625 313 552.400390625 314 551.400390625 314 c 0
 535.400390625 317 507.400390625 319 465.400390625 319 c 0x38
 452.400390625 319 433.400390625 318 408.400390625 318 c 1
 449.400390625 187 l 2
 450.400390625 182 451.400390625 176 451.400390625 170 c 0
 451.400390625 164 450.400390625 159 448.400390625 154 c 0
 445.400390625 145 440.400390625 138 434.400390625 134 c 0
 428.400390625 130 420.400390625 129 411.400390625 129 c 0x98
EndSplineSet
Validated: 524289
EndChar

StartChar: plus
Encoding: 43 43 21
Width: 590
GlyphClass: 2
Flags: HMW
HStem: 370 59<329.64 358.64 329.64 358.64>
LayerCount: 2
Fore
SplineSet
235.639648438 369 m 2
 224.639648438 369 216.639648438 371 214.639648438 376 c 0
 212.639648438 379 210.639648438 383 210.639648438 388 c 0
 210.639648438 390 211.639648438 394 211.639648438 397 c 0
 213.639648438 407 218.639648438 415 225.639648438 422 c 0
 232.639648438 428 240.639648438 431 251.639648438 431 c 2
 254.639648438 431 l 2
 297.639648438 430 328.639648438 429 348.639648438 429 c 2
 358.639648438 429 l 1
 367.639648438 469 376.639648438 508 383.639648438 547 c 0
 384.639648438 557 388.639648438 565 393.639648438 570 c 0
 400.639648438 577 409.639648438 580 421.639648438 580 c 2
 424.639648438 580 l 2
 431.639648438 580 437.639648438 578 441.639648438 575 c 0
 442.639648438 574 443.639648438 571 443.639648438 567 c 0
 443.639648438 563 442.639648438 559 440.639648438 553 c 0
 429.639648438 514 419.639648438 472 408.639648438 427 c 1
 526.639648438 427 l 2
 536.639648438 427 542.639648438 425 543.639648438 423 c 0
 544.639648438 421 546.639648438 418 546.639648438 413 c 0
 546.639648438 406 544.639648438 398 541.639648438 391 c 0
 539.639648438 387 536.639648438 383 533.639648438 379 c 0
 528.639648438 373 521.639648438 370 512.639648438 370 c 2
 512.639648438 370 510.639648438 371 508.639648438 371 c 0
 498.639648438 371 484.639648438 372 464.639648438 372 c 0
 444.639648438 372 421.639648438 371 394.639648438 371 c 1
 389.639648438 347 383.639648438 323 378.639648438 298 c 0
 373.639648438 273 369.639648438 258 368.639648438 253 c 0
 365.639648438 240 360.639648438 232 355.639648438 227 c 0
 349.639648438 223 342.639648438 220 334.639648438 220 c 0
 327.639648438 220 322.639648438 221 319.639648438 223 c 0
 316.639648438 225 315.639648438 229 315.639648438 235 c 0
 315.639648438 239 315.639648438 243 316.639648438 248 c 2
 344.639648438 370 l 1
 329.639648438 370 l 1
 235.639648438 369 l 2
EndSplineSet
Validated: 524289
EndChar

StartChar: comma
Encoding: 44 44 22
Width: 590
GlyphClass: 2
Flags: HMW
VStem: 171.297 234
LayerCount: 2
Fore
SplineSet
171.296875 -185 m 2
 171.296875 -182 l 2
 171.296875 -176 174.296875 -169 181.296875 -161 c 0
 199.296875 -140 228.296875 -95 267.296875 -27 c 0
 306.296875 41 331.296875 89 342.296875 116 c 0
 344.296875 123 350.296875 129 356.296875 133 c 0
 362.296875 137 368.296875 139 373.296875 139 c 2
 374.296875 139 l 2
 380.296875 139 386.296875 138 391.296875 137 c 0
 396.296875 135 401.296875 131 403.296875 125 c 0
 404.296875 123 405.296875 120 405.296875 117 c 0
 405.296875 114 403.296875 108 401.296875 101 c 0
 388.296875 68 363.296875 19 327.296875 -48 c 0
 291.296875 -115 266.296875 -157 252.296875 -172 c 0
 240.296875 -185 227.296875 -195 212.296875 -200 c 0
 204.296875 -202 197.296875 -204 191.296875 -204 c 0
 188.296875 -204 184.296875 -203 182.296875 -202 c 0
 179.296875 -201 176.296875 -198 174.296875 -196 c 0
 172.296875 -193 171.296875 -189 171.296875 -185 c 2
EndSplineSet
Validated: 524289
EndChar

StartChar: hyphen
Encoding: 45 45 23
Width: 590
GlyphClass: 2
Flags: HMW
HStem: 255 62<237.372 277.372> 264 56<446.872 474.372>
LayerCount: 2
Fore
SplineSet
259.872070312 317 m 0x80
 294.872070312 317 336.872070312 317 385.872070312 318 c 0
 434.872070312 319 462.872070312 320 469.872070312 320 c 0x40
 478.872070312 320 484.872070312 318 486.872070312 316 c 0
 488.872070312 312 489.872070312 306 488.872070312 298 c 0
 486.872070312 287 480.872070312 278 475.872070312 273 c 0
 469.872070312 267 461.872070312 264 450.872070312 264 c 0
 442.872070312 264 410.872070312 262 355.872070312 259 c 0
 300.872070312 256 261.872070312 255 240.872070312 255 c 0
 233.872070312 255 227.872070312 256 224.872070312 258 c 0
 221.872070312 260 220.872070312 264 220.872070312 270 c 0
 220.872070312 274 221.872070312 278 222.872070312 283 c 0
 223.872070312 294 227.872070312 303 232.872070312 308 c 0
 239.872070312 314 248.872070312 317 259.872070312 317 c 0x80
EndSplineSet
Validated: 524289
EndChar

StartChar: period
Encoding: 46 46 24
Width: 590
GlyphClass: 2
Flags: HMW
HStem: -2 130<275.475 339.475 282.975 339.475>
VStem: 242.975 131<37.5 90.5>
LayerCount: 2
Fore
SplineSet
373.974609375 85 m 0
 373.974609375 80 372.974609375 74 371.974609375 68 c 0
 367.974609375 49 359.974609375 34 344.974609375 21 c 0
 329.974609375 8 311.974609375 0 290.974609375 -2 c 2
 282.974609375 -2 l 2
 267.974609375 -2 257.974609375 3 250.974609375 13 c 0
 245.974609375 22 242.974609375 32 242.974609375 43 c 0
 242.974609375 49 243.974609375 55 244.974609375 61 c 0
 248.974609375 79 259.974609375 94 276.974609375 107 c 0
 295.974609375 121 312.974609375 128 331.974609375 128 c 0
 346.974609375 128 358.974609375 123 365.974609375 113 c 0
 370.974609375 105 373.974609375 96 373.974609375 85 c 0
EndSplineSet
Validated: 1
EndChar

StartChar: slash
Encoding: 47 47 25
Width: 590
GlyphClass: 2
Flags: W
LayerCount: 2
Fore
SplineSet
61.94140625 -31 m 0
 61.94140625 -28 62.94140625 -24 62.94140625 -20 c 0
 64.94140625 -3 72.94140625 12 83.94140625 27 c 0
 211.94140625 187 321.94140625 329 414.94140625 454 c 0
 473.94140625 530 536.94140625 617 603.94140625 714 c 0
 610.94140625 723 616.94140625 730 624.94140625 734 c 0
 632.94140625 738 639.94140625 741 645.94140625 741 c 0
 651.94140625 741 656.94140625 739 662.94140625 737 c 0
 668.94140625 733 672.94140625 727 672.94140625 719 c 0
 672.94140625 710 665.94140625 698 656.94140625 683 c 0
 632.94140625 649 568.94140625 566 463.94140625 433 c 0
 358.94140625 300 294.94140625 218 271.94140625 185 c 0
 256.94140625 164 232.94140625 129 198.94140625 80 c 0
 164.94140625 31 143.94140625 1 135.94140625 -10 c 0
 122.94140625 -27 107.94140625 -38 92.94140625 -45 c 0
 85.94140625 -47 80.94140625 -49 76.94140625 -49 c 0
 72.94140625 -49 68.94140625 -48 66.94140625 -46 c 2
 65.94140625 -46 l 2
 63.94140625 -44 61.94140625 -38 61.94140625 -31 c 0
EndSplineSet
Validated: 524289
EndChar

StartChar: zero
Encoding: 48 48 26
Width: 590
GlyphClass: 2
Flags: HMW
HStem: -12 60<281.334 281.834> 649 57<440.334 441.334>
VStem: 133.334 77<133.5 211>
LayerCount: 2
Fore
SplineSet
144.333984375 211 m 0
 145.333984375 218 148.333984375 235 154.333984375 261 c 0
 160.333984375 287 165.333984375 308 169.333984375 324 c 0
 173.333984375 340 179.333984375 361 186.333984375 388 c 0
 193.333984375 415 200.333984375 438 206.333984375 458 c 0
 212.333984375 478 220.333984375 500 230.333984375 522 c 0
 240.333984375 544 249.333984375 565 258.333984375 582 c 0
 280.333984375 623 308.333984375 653 343.333984375 674 c 0
 378.333984375 695 418.333984375 706 462.333984375 706 c 0
 484.333984375 706 505.333984375 702 523.333984375 693 c 0
 541.333984375 684 556.333984375 671 568.333984375 655 c 0
 580.333984375 639 588.333984375 618 593.333984375 591 c 0
 595.333984375 578 596.333984375 564 596.333984375 548 c 0
 596.333984375 532 594.333984375 516 592.333984375 496 c 0
 587.333984375 463 579.333984375 425 570.333984375 383 c 0
 561.333984375 341 550.333984375 298 538.333984375 256 c 0
 526.333984375 214 515.333984375 181 504.333984375 159 c 0
 484.333984375 117 464.333984375 82 444.333984375 57 c 0
 435.333984375 45 427.333984375 34 416.333984375 26 c 0
 405.333984375 18 395.333984375 11 385.333984375 6 c 0
 375.333984375 1 364.333984375 -3 352.333984375 -5 c 0
 340.333984375 -7 328.333984375 -10 316.333984375 -11 c 0
 304.333984375 -12 290.333984375 -12 273.333984375 -12 c 0
 248.333984375 -12 225.333984375 -7 204.333984375 3 c 0
 183.333984375 13 168.333984375 27 156.333984375 46 c 0
 144.333984375 65 136.333984375 88 134.333984375 116 c 0
 134.333984375 123 133.333984375 130 133.333984375 137 c 0
 133.333984375 159 137.333984375 184 144.333984375 211 c 0
346.333984375 616 m 0
 323.333984375 594 302.333984375 559 282.333984375 511 c 0
 275.333984375 494 268.333984375 473 262.333984375 451 c 0
 256.333984375 429 249.333984375 402 242.333984375 370 c 0
 235.333984375 338 230.333984375 315 228.333984375 302 c 2
 214.333984375 232 l 2
 214.333984375 230 212.333984375 226 212.333984375 221 c 0
 212.333984375 216 210.333984375 212 210.333984375 210 c 2
 195.333984375 160 l 1
 231.333984375 198 l 1
 333.333984375 321 428.333984375 447 519.333984375 576 c 1
 524.333984375 581 l 1
 521.333984375 588 l 2
 512.333984375 608 500.333984375 622 484.333984375 633 c 0
 469.333984375 644 451.333984375 649 431.333984375 649 c 0
 398.333984375 649 369.333984375 638 346.333984375 616 c 0
334.333984375 53 m 0
 347.333984375 56 361.333984375 61 374.333984375 70 c 0
 401.333984375 86 424.333984375 117 445.333984375 162 c 0
 449.333984375 171 456.333984375 194 466.333984375 230 c 0
 477.333984375 266 489.333984375 307 501.333984375 354 c 0
 513.333984375 401 521.333984375 446 528.333984375 489 c 2
 536.333984375 542 l 1
 506.333984375 498 l 1
 413.333984375 352 316.333984375 230 212.333984375 131 c 1
 207.333984375 127 l 1
 208.333984375 120 l 2
 213.333984375 93 224.333984375 74 241.333984375 62 c 0
 254.333984375 53 271.333984375 48 291.333984375 48 c 0
 307.333984375 48 321.333984375 50 334.333984375 53 c 0
EndSplineSet
Validated: 524289
EndChar

StartChar: one
Encoding: 49 49 27
Width: 590
GlyphClass: 2
Flags: HMW
HStem: 3 67
LayerCount: 2
Fore
SplineSet
505.346679688 47 m 2
 505.346679688 40 l 2
 503.346679688 29 498.346679688 21 491.346679688 14 c 0
 484.346679688 7 473.346679688 3 458.346679688 3 c 0
 255.346679688 5 140.346679688 7 118.346679688 7 c 0
 109.346679688 7 104.346679688 9 102.346679688 13 c 0
 100.346679688 16 98.3466796875 19 98.3466796875 23 c 0
 98.3466796875 27 100.346679688 31 100.346679688 35 c 0
 102.346679688 46 105.346679688 55 112.346679688 62 c 0
 119.346679688 69 128.346679688 72 139.346679688 72 c 0
 167.346679688 72 215.346679688 71 282.346679688 70 c 1
 289.346679688 103 295.346679688 129 297.346679688 146 c 0
 297.346679688 151 300.346679688 168 306.346679688 197 c 2
 320.346679688 262 l 2
 322.346679688 275 329.346679688 300 337.346679688 336 c 0
 345.346679688 372 352.346679688 399 356.346679688 417 c 0
 371.346679688 481 386.346679688 549 406.346679688 620 c 1
 379.346679688 598 l 2
 332.346679688 558 298.346679688 534 278.346679688 525 c 0
 276.346679688 524 274.346679688 523 272.346679688 523 c 0
 268.346679688 523 263.346679688 527 259.346679688 532 c 0
 254.346679688 539 253.346679688 545 253.346679688 551 c 0
 253.346679688 553 254.346679688 555 254.346679688 557 c 0
 255.346679688 566 258.346679688 574 263.346679688 581 c 0
 268.346679688 588 275.346679688 595 286.346679688 604 c 0
 305.346679688 619 324.346679688 636 345.346679688 653 c 2
 392.346679688 692 l 2
 403.346679688 699 413.346679688 705 422.346679688 710 c 0
 431.346679688 715 438.346679688 718 443.346679688 718 c 0
 452.346679688 718 461.346679688 713 470.346679688 704 c 0
 477.346679688 697 482.346679688 691 482.346679688 686 c 2
 482.346679688 685 l 1
 482.346679688 685 468.346679688 633 441.346679688 529 c 0
 414.346679688 430 399.346679688 373 396.346679688 357 c 0
 382.346679688 290 370.346679688 234 361.346679688 190 c 0
 356.346679688 165 348.346679688 124 339.346679688 67 c 1
 364.346679688 67 398.346679688 66 438.346679688 65 c 0
 460.346679688 65 475.346679688 64 481.346679688 64 c 0
 487.346679688 64 493.346679688 63 496.346679688 62 c 0
 499.346679688 61 502.346679688 59 502.346679688 58 c 0
 504.346679688 56 505.346679688 52 505.346679688 47 c 2
EndSplineSet
Validated: 524289
EndChar

StartChar: two
Encoding: 50 50 28
Width: 590
GlyphClass: 2
Flags: HMW
HStem: -5 59 0 64<460.989 466.989> 650 60<440.489 452.489>
VStem: 532.989 68<578.5 582>
LayerCount: 2
Fore
SplineSet
282.989257812 -5 m 0xb0
 255.989257812 -6 226.989257812 -7 195.989257812 -7 c 0
 164.989257812 -7 140.989257812 -6 123.989257812 -4 c 0
 119.989257812 -4 117.989257812 -1 115.989257812 1 c 0
 112.989257812 5 109.989257812 12 109.989257812 23 c 0
 109.989257812 38 114.989257812 57 119.989257812 81 c 0
 126.989257812 108 137.989257812 137 155.989257812 167 c 0
 173.989257812 197 196.989257812 227 225.989257812 256 c 0
 252.989257812 284 279.989257812 307 308.989257812 324 c 0
 377.989257812 365 424.989257812 393 445.989257812 409 c 0
 474.989257812 431 496.989257812 456 509.989257812 482 c 0
 516.989257812 496 523.989257812 514 528.989257812 536 c 0
 530.989257812 549 532.989257812 560 532.989257812 571 c 0
 532.989257812 593 526.989257812 610 514.989257812 623 c 0
 497.989257812 641 469.989257812 650 434.989257812 650 c 0
 410.989257812 650 387.989257812 642 362.989257812 625 c 0
 337.989257812 608 317.989257812 590 301.989257812 569 c 0
 288.989257812 553 278.989257812 544 272.989257812 544 c 2
 268.989257812 544 l 2
 267.989257812 544 265.989257812 544 263.989257812 545 c 0
 261.989257812 546 256.989257812 549 251.989257812 551 c 0
 246.989257812 554 245.989257812 559 245.989257812 566 c 0
 245.989257812 572 251.989257812 584 260.989257812 603 c 0
 267.989257812 615 277.989257812 627 290.989257812 639 c 0
 303.989257812 651 318.989257812 662 335.989257812 673 c 0
 352.989257812 684 371.989257812 693 391.989257812 700 c 0
 411.989257812 707 430.989257812 710 449.989257812 710 c 0
 511.989257812 710 553.989257812 695 578.989257812 664 c 0
 593.989257812 645 600.989257812 620 600.989257812 588 c 0
 600.989257812 569 598.989257812 548 593.989257812 525 c 0
 580.989257812 472 557.989257812 430 525.989257812 398 c 0
 501.989257812 374 463.989257812 347 412.989257812 318 c 0
 396.989257812 308 376.989257812 296 349.989257812 281 c 0
 319.989257812 265 292.989257812 246 270.989257812 223 c 0
 248.989257812 200 231.989257812 176 218.989257812 151 c 0
 205.989257812 127 193.989257812 101 185.989257812 73 c 2
 181.989257812 58 l 1
 228.989257812 56 268.989257812 54 301.989257812 54 c 0
 326.989257812 54 345.989257812 55 361.989257812 56 c 0
 377.989257812 57 390.989257812 58 401.989257812 59 c 0
 412.989257812 60 431.989257812 62 460.989257812 64 c 2x70
 469.989257812 64 l 2
 473.989257812 64 477.989257812 65 481.989257812 65 c 0
 485.989257812 65 489.989257812 64 491.989257812 64 c 0
 492.989257812 63 494.989257812 61 496.989257812 60 c 2
 496.989257812 56 l 1
 496.989257812 52 l 2
 496.989257812 45 494.989257812 37 491.989257812 29 c 0
 488.989257812 21 482.989257812 14 476.989257812 8 c 0
 472.989257812 3 468.989257812 0 464.989257812 0 c 0
 424.989257812 0 365.989257812 -1 282.989257812 -5 c 0xb0
EndSplineSet
Validated: 524289
EndChar

StartChar: three
Encoding: 51 51 29
Width: 590
GlyphClass: 2
Flags: HMW
HStem: -12 60<290.957 312.957> 330 76<320.957 341.457> 650 60<418.957 432.957>
VStem: 458.457 74<214.5 271> 520.457 69<584.5 585.5>
LayerCount: 2
Fore
SplineSet
525.45703125 201 m 0xf0
 510.45703125 136 480.45703125 84 436.45703125 45 c 0
 394.45703125 7 343.45703125 -12 282.45703125 -12 c 0
 263.45703125 -12 245.45703125 -9 227.45703125 -2 c 0
 209.45703125 4 194.45703125 12 181.45703125 22 c 0
 168.45703125 32 157.45703125 44 148.45703125 56 c 0
 139.45703125 68 133.45703125 80 131.45703125 91 c 0
 130.45703125 96 129.45703125 101 129.45703125 107 c 0
 129.45703125 113 131.45703125 119 133.45703125 125 c 0
 138.45703125 135 144.45703125 142 152.45703125 146 c 0
 160.45703125 150 167.45703125 152 172.45703125 152 c 0
 174.45703125 152 177.45703125 151 179.45703125 151 c 0
 186.45703125 149 191.45703125 143 196.45703125 132 c 0
 205.45703125 110 219.45703125 90 239.45703125 73 c 0
 257.45703125 56 278.45703125 48 303.45703125 48 c 0
 339.45703125 48 371.45703125 60 399.45703125 84 c 0
 427.45703125 108 446.45703125 140 454.45703125 179 c 0
 456.45703125 194 458.45703125 208 458.45703125 221 c 0
 458.45703125 248 452.45703125 271 437.45703125 289 c 0
 415.45703125 316 372.45703125 330 310.45703125 330 c 0
 307.45703125 330 303.45703125 332 301.45703125 333 c 0
 299.45703125 334 296.45703125 337 294.45703125 341 c 0
 291.45703125 346 289.45703125 352 289.45703125 359 c 0
 289.45703125 361 290.45703125 365 290.45703125 368 c 0
 292.45703125 380 297.45703125 389 303.45703125 396 c 0
 309.45703125 403 316.45703125 406 325.45703125 406 c 0
 374.45703125 406 415.45703125 418 448.45703125 442 c 0
 484.45703125 466 507.45703125 501 516.45703125 546 c 0
 518.45703125 557 520.45703125 566 520.45703125 575 c 0xe8
 520.45703125 596 513.45703125 612 498.45703125 625 c 0
 478.45703125 642 451.45703125 650 414.45703125 650 c 0
 402.45703125 650 389.45703125 647 375.45703125 642 c 0
 370.45703125 640 364.45703125 636 358.45703125 632 c 0
 352.45703125 628 347.45703125 624 344.45703125 622 c 0
 341.45703125 620 337.45703125 614 331.45703125 608 c 2
 318.45703125 595 l 2
 316.45703125 593 312.45703125 587 307.45703125 580 c 0
 296.45703125 567 287.45703125 560 280.45703125 558 c 0
 278.45703125 558 276.45703125 557 274.45703125 557 c 0
 269.45703125 557 265.45703125 559 260.45703125 562 c 0
 258.45703125 564 255.45703125 566 254.45703125 568 c 0
 253.45703125 570 253.45703125 574 253.45703125 577 c 0
 253.45703125 588 258.45703125 600 267.45703125 615 c 0
 282.45703125 640 303.45703125 662 329.45703125 680 c 0
 342.45703125 689 358.45703125 697 375.45703125 702 c 0
 392.45703125 707 409.45703125 710 428.45703125 710 c 0
 492.45703125 710 538.45703125 695 564.45703125 666 c 0
 581.45703125 648 589.45703125 624 589.45703125 593 c 0
 589.45703125 576 586.45703125 556 581.45703125 535 c 0
 577.45703125 516 571.45703125 500 563.45703125 485 c 0
 555.45703125 470 546.45703125 458 536.45703125 448 c 0
 526.45703125 438 515.45703125 429 502.45703125 421 c 0
 489.45703125 413 477.45703125 408 465.45703125 403 c 0
 454.45703125 398 442.45703125 394 429.45703125 392 c 2
 381.45703125 381 l 1
 429.45703125 368 l 2
 450.45703125 363 467.45703125 356 481.45703125 348 c 0
 495.45703125 340 507.45703125 330 516.45703125 317 c 0
 527.45703125 302 532.45703125 283 532.45703125 259 c 0
 532.45703125 242 530.45703125 222 525.45703125 201 c 0xf0
EndSplineSet
Validated: 524289
EndChar

StartChar: four
Encoding: 52 52 30
Width: 590
GlyphClass: 2
Flags: HMW
HStem: 236 55<323.087 427.587 414.587 415.587>
VStem: 371.587 50 371.587 63<17 62 19 62>
LayerCount: 2
Fore
SplineSet
378.586914062 -1 m 0xa0
 373.586914062 5 371.586914062 11 371.586914062 17 c 2
 371.586914062 19 l 1
 376.586914062 40 384.586914062 78 395.586914062 134 c 2
 415.586914062 236 l 1
 363.586914062 236 l 2
 282.586914062 236 222.586914062 232 181.586914062 223 c 0
 177.586914062 223 173.586914062 222 170.586914062 222 c 0
 167.586914062 222 163.586914062 222 161.586914062 223 c 0
 157.586914062 225 154.586914062 228 152.586914062 231 c 0
 150.586914062 238 148.586914062 246 148.586914062 255 c 0
 148.586914062 260 150.586914062 266 151.586914062 274 c 0
 152.586914062 282 155.586914062 290 159.586914062 297 c 0
 170.586914062 315 193.586914062 345 230.586914062 387 c 0
 265.586914062 429 307.586914062 480 357.586914062 542 c 0
 407.586914062 604 445.586914062 650 469.586914062 679 c 0
 479.586914062 690 489.586914062 699 499.586914062 705 c 0
 509.586914062 711 518.586914062 713 525.586914062 713 c 2
 526.586914062 713 l 1
 532.586914062 713 l 2
 539.586914062 713 546.586914062 711 551.586914062 708 c 0
 556.586914062 705 558.586914062 699 558.586914062 691 c 2
 558.586914062 691 557.586914062 689 557.586914062 688 c 0
 556.586914062 665 550.586914062 629 541.586914062 581 c 0
 532.586914062 533 524.586914062 491 517.586914062 458 c 2
 481.586914062 291 l 1
 502.586914062 291 519.586914062 290 532.586914062 290 c 0
 542.586914062 290 548.586914062 287 550.586914062 285 c 0
 552.586914062 281 552.586914062 275 551.586914062 267 c 0
 549.586914062 256 544.586914062 247 539.586914062 242 c 0
 533.586914062 235 525.586914062 232 513.586914062 232 c 0
 501.586914062 232 486.586914062 233 469.586914062 234 c 1
 447.586914062 129 434.586914062 69 434.586914062 55 c 0
 434.586914062 36 429.586914062 20 421.586914062 7 c 0xc0
 414.586914062 -5 406.586914062 -11 397.586914062 -11 c 0
 390.586914062 -11 384.586914062 -8 378.586914062 -1 c 0xa0
496.586914062 640 m 1
 468.586914062 610 l 1
 359.586914062 481 281.586914062 380 235.586914062 308 c 2
 221.586914062 287 l 1
 246.586914062 289 l 2
 278.586914062 291 317.586914062 292 361.586914062 292 c 0
 379.586914062 292 401.586914062 291 427.586914062 291 c 1
 456.586914062 423 476.586914062 526 489.586914062 600 c 2
 496.586914062 640 l 1
EndSplineSet
Validated: 524289
EndChar

StartChar: five
Encoding: 53 53 31
Width: 590
GlyphClass: 2
Flags: HMW
HStem: -6 60<279.027 296.027> 433 64<400.527 461.027> 633 62<568.027 626.027 610.527 626.027> 639 61
VStem: 493.527 70<327 379.5>
LayerCount: 2
Fore
SplineSet
556.526367188 299 m 0xd8
 545.526367188 250 529.526367188 207 509.526367188 168 c 0
 490.526367188 129 468.526367188 97 445.526367188 72 c 0
 422.526367188 47 396.526367188 27 368.526367188 14 c 0
 340.526367188 1 311.526367188 -6 280.526367188 -6 c 0
 256.526367188 -6 233.526367188 -3 213.526367188 3 c 0
 192.526367188 9 176.526367188 17 164.526367188 26 c 0
 152.526367188 35 144.526367188 45 137.526367188 56 c 0
 130.526367188 67 124.526367188 78 121.526367188 89 c 0
 120.526367188 96 120.526367188 102 120.526367188 108 c 0
 120.526367188 114 120.526367188 121 122.526367188 126 c 0
 126.526367188 134 133.526367188 140 142.526367188 145 c 0
 153.526367188 150 161.526367188 152 165.526367188 152 c 0
 166.526367188 152 168.526367188 151 170.526367188 151 c 0
 172.526367188 151 175.526367188 150 176.526367188 148 c 0
 178.526367188 144 181.526367188 138 184.526367188 131 c 0
 195.526367188 103 211.526367188 83 232.526367188 70 c 0
 249.526367188 59 268.526367188 54 289.526367188 54 c 0
 334.526367188 54 376.526367188 75 412.526367188 117 c 0
 447.526367188 159 472.526367188 213 487.526367188 282 c 0
 491.526367188 302 493.526367188 319 493.526367188 335 c 0
 493.526367188 356 489.526367188 374 482.526367188 389 c 0
 475.526367188 405 465.526367188 417 450.526367188 424 c 0
 438.526367188 430 424.526367188 433 408.526367188 433 c 0
 392.526367188 433 375.526367188 430 358.526367188 426 c 0
 348.526367188 424 336.526367188 418 320.526367188 409 c 0
 316.526367188 407 310.526367188 403 303.526367188 398 c 0
 296.526367188 393 291.526367188 389 289.526367188 387 c 0
 287.526367188 385 278.526367188 376 263.526367188 363 c 0
 252.526367188 354 239.526367188 348 225.526367188 347 c 0
 224.526367188 347 223.526367188 346 222.526367188 346 c 0
 217.526367188 346 212.526367188 348 207.526367188 350 c 0
 200.526367188 353 197.526367188 364 197.526367188 383 c 0
 197.526367188 396 199.526367188 412 203.526367188 432 c 0
 207.526367188 452 212.526367188 473 218.526367188 494 c 0
 224.526367188 515 231.526367188 538 238.526367188 563 c 0
 245.526367188 588 249.526367188 606 251.526367188 619 c 1
 250.526367188 623 l 2
 248.526367188 627 247.526367188 632 247.526367188 638 c 0
 247.526367188 640 248.526367188 644 248.526367188 646 c 0
 248.526367188 656 251.526367188 665 255.526367188 673 c 0
 259.526367188 681 263.526367188 687 269.526367188 692 c 0
 275.526367188 697 281.526367188 700 286.526367188 700 c 0
 307.526367188 700 355.526367188 699 433.526367188 698 c 0
 514.526367188 697 577.526367188 696 621.526367188 696 c 0
 622.526367188 696 624.526367188 695 625.526367188 695 c 0xe8
 626.526367188 695 627.526367188 693 627.526367188 692 c 0
 629.526367188 687 631.526367188 682 631.526367188 676 c 2
 631.526367188 672 l 2
 631.526367188 664 628.526367188 657 626.526367188 650 c 0
 625.526367188 647 623.526367188 644 622.526367188 642 c 0
 621.526367188 640 619.526367188 637 617.526367188 636 c 0
 615.526367188 635 613.526367188 633 611.526367188 633 c 0
 609.526367188 633 605.526367188 631 602.526367188 631 c 2
 595.526367188 631 l 2
 594.526367188 631 590.526367188 632 585.526367188 632 c 0
 580.526367188 632 575.526367188 633 570.526367188 633 c 0
 565.526367188 633 552.526367188 634 531.526367188 636 c 0
 510.526367188 638 491.526367188 640 475.526367188 641 c 0
 459.526367188 642 438.526367188 643 409.526367188 643 c 0
 380.526367188 643 346.526367188 641 309.526367188 639 c 1
 306.526367188 626 301.526367188 604 293.526367188 572 c 0
 285.526367188 540 280.526367188 517 277.526367188 502 c 0
 274.526367188 487 268.526367188 454 258.526367188 403 c 1
 283.526367188 430 l 2
 303.526367188 450 326.526367188 465 355.526367188 478 c 0
 384.526367188 491 416.526367188 497 449.526367188 497 c 0
 472.526367188 497 492.526367188 492 508.526367188 482 c 0
 526.526367188 473 537.526367188 459 546.526367188 442 c 0
 557.526367188 421 563.526367188 395 563.526367188 364 c 0
 563.526367188 343 561.526367188 321 556.526367188 299 c 0xd8
EndSplineSet
Validated: 524289
EndChar

StartChar: six
Encoding: 54 54 32
Width: 590
GlyphClass: 2
Flags: HMW
HStem: -10 60<276.332 310.832> 405 64<374.332 441.332>
VStem: 142.832 58<186.5 192> 485.832 71<299 358>
LayerCount: 2
Fore
SplineSet
544.83203125 248 m 0
 536.83203125 213 522.83203125 178 503.83203125 146 c 0
 484.83203125 114 463.83203125 86 440.83203125 64 c 0
 419.83203125 42 396.83203125 23 370.83203125 10 c 0
 344.83203125 -3 318.83203125 -10 292.83203125 -10 c 0
 259.83203125 -10 230.83203125 -3 207.83203125 12 c 0
 184.83203125 27 168.83203125 48 158.83203125 75 c 0
 148.83203125 102 142.83203125 134 142.83203125 171 c 0
 142.83203125 213 149.83203125 260 162.83203125 313 c 0
 175.83203125 370 192.83203125 421 213.83203125 465 c 0
 234.83203125 509 256.83203125 547 278.83203125 578 c 0
 299.83203125 609 323.83203125 635 349.83203125 656 c 0
 375.83203125 677 403.83203125 693 431.83203125 704 c 0
 461.83203125 715 494.83203125 722 531.83203125 725 c 2
 538.83203125 725 l 2
 547.83203125 725 555.83203125 723 560.83203125 720 c 0
 562.83203125 719 563.83203125 716 564.83203125 714 c 0
 565.83203125 712 566.83203125 709 566.83203125 708 c 2
 566.83203125 704 l 2
 566.83203125 699 561.83203125 692 552.83203125 684 c 0
 543.83203125 676 535.83203125 670 526.83203125 668 c 0
 519.83203125 667 508.83203125 664 493.83203125 661 c 0
 478.83203125 658 465.83203125 654 454.83203125 651 c 0
 444.83203125 648 432.83203125 643 419.83203125 637 c 0
 392.83203125 624 362.83203125 601 331.83203125 567 c 0
 315.83203125 549 299.83203125 525 282.83203125 494 c 0
 265.83203125 463 252.83203125 436 243.83203125 412 c 2
 225.83203125 362 l 1
 263.83203125 399 l 2
 284.83203125 422 309.83203125 440 337.83203125 452 c 0
 365.83203125 464 396.83203125 469 428.83203125 469 c 0
 453.83203125 469 475.83203125 466 494.83203125 458 c 0
 513.83203125 450 526.83203125 438 537.83203125 421 c 0
 550.83203125 401 556.83203125 375 556.83203125 341 c 0
 556.83203125 314 552.83203125 283 544.83203125 248 c 0
301.83203125 378 m 0
 272.83203125 360 245.83203125 337 221.83203125 309 c 2
 219.83203125 307 l 1
 211.83203125 276 205.83203125 251 203.83203125 232 c 0
 201.83203125 221 200.83203125 209 200.83203125 197 c 0
 200.83203125 176 203.83203125 156 209.83203125 136 c 0
 214.83203125 120 220.83203125 105 229.83203125 92 c 0
 238.83203125 79 249.83203125 69 264.83203125 61 c 0
 277.83203125 54 292.83203125 50 308.83203125 50 c 2
 310.83203125 50 l 2
 332.83203125 50 356.83203125 59 378.83203125 78 c 0
 400.83203125 97 420.83203125 119 437.83203125 147 c 0
 456.83203125 175 468.83203125 203 475.83203125 232 c 0
 482.83203125 262 485.83203125 288 485.83203125 310 c 0
 485.83203125 335 480.83203125 355 470.83203125 369 c 0
 460.83203125 382 448.83203125 392 435.83203125 397 c 0
 422.83203125 402 407.83203125 405 388.83203125 405 c 0
 359.83203125 405 330.83203125 396 301.83203125 378 c 0
EndSplineSet
Validated: 524289
EndChar

StartChar: seven
Encoding: 55 55 33
Width: 590
GlyphClass: 2
Flags: HMW
HStem: 634 68
LayerCount: 2
Fore
SplineSet
617.108398438 631 m 0
 604.108398438 611 581.108398438 581 549.108398438 541 c 0
 518.108398438 501 485.108398438 459 454.108398438 417 c 0
 423.108398438 375 383.108398438 319 336.108398438 249 c 0
 289.108398438 179 242.108398438 107 195.108398438 33 c 0
 184.108398438 16 173.108398438 4 161.108398438 -3 c 0
 152.108398438 -8 145.108398438 -11 138.108398438 -11 c 2
 133.108398438 -11 l 2
 129.108398438 -10 125.108398438 -7 123.108398438 -4 c 0
 121.108398438 -1 120.108398438 3 120.108398438 9 c 0
 120.108398438 15 123.108398438 24 129.108398438 37 c 0
 176.108398438 105 225.108398438 173 274.108398438 241 c 0
 321.108398438 309 361.108398438 362 392.108398438 403 c 0
 423.108398438 444 450.108398438 483 477.108398438 522 c 0
 504.108398438 561 525.108398438 592 538.108398438 616 c 2
 546.108398438 633 l 1
 526.108398438 634 l 2
 501.108398438 634.5 475.608398438 634.75 449.233398438 634.75 c 0
 422.858398438 634.75 395.608398438 634.5 367.108398438 634 c 0
 310.108398438 633 272.108398438 629 252.108398438 624 c 0
 250.108398438 624 248.108398438 623 247.108398438 623 c 0
 246.108398438 623 244.108398438 624 243.108398438 624 c 0
 241.108398438 625 238.108398438 628 237.108398438 630 c 0
 235.108398438 637 233.108398438 646 234.108398438 658 c 0
 236.108398438 666 241.108398438 673 246.108398438 679 c 0
 251.108398438 685 258.108398438 690 271.108398438 692 c 0
 302.108398438 699 354.108398438 702 424.108398438 702 c 0
 446.108398438 702 491.108398438 700 557.108398438 697 c 0
 589.108398438 696 606.108398438 695 608.108398438 695 c 0
 618.108398438 695 625.108398438 691 630.108398438 682 c 0
 631.108398438 680 633.108398438 676 633.108398438 673 c 0
 633.108398438 670 632.108398438 667 632.108398438 665 c 0
 631.108398438 656 626.108398438 644 617.108398438 631 c 0
EndSplineSet
Validated: 524289
EndChar

StartChar: eight
Encoding: 56 56 34
Width: 590
GlyphClass: 2
Flags: HMW
HStem: -16 61<291.405 295.905> 658 48<408.405 448.405 422.905 448.405>
VStem: 123.905 58<122.5 164> 230.905 60 480.905 67<217.5 249.5> 519.905 62<550 586>
LayerCount: 2
Fore
SplineSet
547.905273438 244 m 0xf8
 547.905273438 233 545.905273438 221 542.905273438 207 c 0
 532.905273438 163 512.905273438 122 481.905273438 85 c 0
 464.905273438 65 448.905273438 49 429.905273438 34 c 0
 410.905273438 19 388.905273438 7 362.905273438 -2 c 0
 336.905273438 -11 309.905273438 -16 281.905273438 -16 c 0
 252.905273438 -16 226.905273438 -12 205.905273438 -3 c 0
 184.905273438 6 167.905273438 16 156.905273438 29 c 0
 145.905273438 42 136.905273438 58 131.905273438 77 c 0
 126.905273438 96 123.905273438 113 123.905273438 132 c 0
 123.905273438 151 125.905273438 172 130.905273438 194 c 0
 135.905273438 215 145.905273438 237 161.905273438 262 c 0
 177.905273438 287 198.905273438 310 222.905273438 331 c 0
 244.905273438 353 268.905273438 368 290.905273438 376 c 2
 314.905273438 384 l 1
 292.905273438 398 l 2
 268.905273438 413 251.905273438 432 241.905273438 457 c 0
 234.905273438 473 230.905273438 489 230.905273438 505 c 0
 230.905273438 514 231.905273438 523 233.905273438 531 c 0
 235.905273438 539 238.905273438 547 241.905273438 556 c 0
 243.905273438 565 248.905273438 574 254.905273438 586 c 0
 260.905273438 598 265.905273438 609 272.905273438 620 c 0
 279.905273438 631 289.905273438 641 300.905273438 652 c 0
 311.905273438 663 322.905273438 672 335.905273438 680 c 0
 348.905273438 688 363.905273438 694 381.905273438 699 c 0
 399.905273438 704 417.905273438 706 437.905273438 706 c 0
 458.905273438 706 476.905273438 704 494.905273438 699 c 0
 512.905273438 694 526.905273438 688 536.905273438 681 c 0
 546.905273438 674 554.905273438 664 561.905273438 654 c 0
 568.905273438 644 574.905273438 634 576.905273438 624 c 0
 579.905273438 611 581.905273438 595 581.905273438 577 c 0xf4
 581.905273438 563 579.905273438 548 576.905273438 533 c 0
 575.905273438 526 572.905273438 519 569.905273438 512 c 0
 566.905273438 505 562.905273438 499 558.905273438 493 c 0
 554.905273438 487 548.905273438 481 542.905273438 475 c 0
 536.905273438 469 530.905273438 464 525.905273438 459 c 0
 517.905273438 452 501.905273438 441 478.905273438 426 c 2
 433.905273438 396 l 1
 451.905273438 386 l 2
 470.905273438 376 486.905273438 365 499.905273438 352 c 0
 512.905273438 339 522.905273438 327 529.905273438 315 c 0
 536.905273438 303 541.905273438 292 543.905273438 279 c 0
 545.905273438 266 547.905273438 255 547.905273438 244 c 0xf8
479.905273438 638 m 0
 462.905273438 651 444.905273438 658 423.905273438 658 c 2
 422.905273438 658 l 2
 393.905273438 658 367.905273438 646 341.905273438 622 c 0
 315.905273438 598 299.905273438 570 293.905273438 541 c 0
 291.905273438 534 290.905273438 527 290.905273438 521 c 0
 290.905273438 502 296.905273438 486 308.905273438 471 c 0
 323.905273438 453 349.905273438 435 386.905273438 417 c 2
 390.905273438 415 l 1
 394.905273438 416 l 1
 421.905273438 428 446.905273438 444 470.905273438 465 c 0
 497.905273438 486 512.905273438 506 516.905273438 526 c 0
 518.905273438 535 519.905273438 545 519.905273438 555 c 0
 519.905273438 565 517.905273438 576 514.905273438 587 c 0
 508.905273438 608 496.905273438 625 479.905273438 638 c 0
191.905273438 114 m 0
 202.905273438 92 217.905273438 74 238.905273438 63 c 0
 258.905273438 51 279.905273438 45 302.905273438 45 c 0
 319.905273438 45 336.905273438 49 354.905273438 55 c 0
 372.905273438 61 389.905273438 70 405.905273438 81 c 0
 421.905273438 92 435.905273438 107 448.905273438 126 c 0
 461.905273438 145 470.905273438 165 475.905273438 186 c 0
 478.905273438 199 480.905273438 212 480.905273438 223 c 0xf8
 480.905273438 233 478.905273438 244 475.905273438 257 c 0
 472.905273438 270 467.905273438 282 459.905273438 294 c 0
 452.905273438 306 441.905273438 318 427.905273438 330 c 0
 413.905273438 342 396.905273438 353 375.905273438 363 c 2
 372.905273438 365 l 1
 368.905273438 364 l 2
 324.905273438 351 285.905273438 328 252.905273438 295 c 0
 216.905273438 262 193.905273438 227 184.905273438 189 c 0
 182.905273438 179 181.905273438 169 181.905273438 159 c 0
 181.905273438 143 184.905273438 128 191.905273438 114 c 0
EndSplineSet
Validated: 524289
EndChar

StartChar: nine
Encoding: 57 57 35
Width: 590
GlyphClass: 2
Flags: HMW
HStem: 248 64<309.433 373.433> 667 60<417.433 462.933 428.433 462.933>
VStem: 189.433 68<412.5 427> 538.433 57<522.5 530.5>
LayerCount: 2
Fore
SplineSet
572.432617188 382 m 0
 559.432617188 330 542.432617188 283 521.432617188 241 c 0
 500.432617188 199 476.432617188 162 452.432617188 133 c 0
 429.432617188 104 403.432617188 79 375.432617188 58 c 0
 347.432617188 37 318.432617188 22 288.432617188 11 c 0
 256.432617188 0 222.432617188 -7 185.432617188 -10 c 0
 183.432617188 -10 181.432617188 -11 179.432617188 -11 c 0
 170.432617188 -11 163.432617188 -8 157.432617188 -5 c 0
 155.432617188 -4 152.432617188 -2 151.432617188 0 c 0
 150.432617188 2 150.432617188 6 150.432617188 10 c 0
 150.432617188 16 155.432617188 22 163.432617188 30 c 0
 171.432617188 38 181.432617188 44 190.432617188 46 c 0
 197.432617188 48 208.432617188 51 224.432617188 55 c 0
 240.432617188 59 256.432617188 62 269.432617188 65 c 0
 280.432617188 68 294.432617188 73 309.432617188 79 c 0
 342.432617188 92 372.432617188 114 401.432617188 145 c 0
 419.432617188 165 435.432617188 188 452.432617188 214 c 0
 469.432617188 241 483.432617188 265 492.432617188 286 c 2
 514.432617188 341 l 1
 472.432617188 300 l 2
 453.432617188 280 432.432617188 266 408.432617188 259 c 0
 384.432617188 252 355.432617188 248 320.432617188 248 c 0
 298.432617188 248 277.432617188 253 259.432617188 266 c 0
 239.432617188 279 224.432617188 295 213.432617188 316 c 0
 202.432617188 337 194.432617188 362 191.432617188 390 c 0
 190.432617188 399 189.432617188 408 189.432617188 417 c 0
 189.432617188 437 191.432617188 456 196.432617188 476 c 0
 205.432617188 512 217.432617188 546 236.432617188 577 c 0
 255.432617188 608 275.432617188 635 297.432617188 657 c 0
 318.432617188 679 341.432617188 696 367.432617188 708 c 0
 393.432617188 720 421.432617188 727 448.432617188 727 c 0
 477.432617188 727 502.432617188 721 523.432617188 710 c 0
 549.432617188 696 568.432617188 673 580.432617188 642 c 0
 590.432617188 615 595.432617188 583 595.432617188 546 c 0
 595.432617188 499 587.432617188 444 572.432617188 382 c 0
529.432617188 581 m 0
 524.432617188 597 518.432617188 611 509.432617188 624 c 0
 500.432617188 637 488.432617188 647 473.432617188 655 c 0
 460.432617188 663 445.432617188 667 429.432617188 667 c 2
 428.432617188 667 l 2
 406.432617188 667 382.432617188 659 359.432617188 642 c 0
 336.432617188 625 317.432617188 603 300.432617188 577 c 0
 283.432617188 551 271.432617188 523 265.432617188 494 c 0
 259.432617188 468 257.432617188 445 257.432617188 425 c 0
 257.432617188 400 262.432617188 378 271.432617188 361 c 0
 288.432617188 328 318.432617188 312 360.432617188 312 c 0
 386.432617188 312 413.432617188 319 440.432617188 333 c 0
 468.432617188 347 492.432617188 366 514.432617188 391 c 1
 517.432617188 393 l 1
 522.432617188 415 527.432617188 445 534.432617188 485 c 0
 536.432617188 496 538.432617188 508 538.432617188 520 c 0
 538.432617188 541 535.432617188 561 529.432617188 581 c 0
EndSplineSet
Validated: 524289
EndChar

StartChar: colon
Encoding: 58 58 36
Width: 590
GlyphClass: 2
Flags: HMW
HStem: 52 131<292.271 336.771 296.771 336.771> 319 131<361.771 397.771 361.771 397.771>
VStem: 262.771 108<80 151.5 84 151.5> 323.771 109<343 424 351 424>
LayerCount: 2
Fore
SplineSet
323.771484375 351 m 2xd0
 325.771484375 369 331.771484375 392 338.771484375 419 c 0
 339.771484375 426 342.771484375 432 346.771484375 436 c 0
 350.771484375 440 356.771484375 443 362.771484375 445 c 0
 372.771484375 448 381.771484375 450 390.771484375 450 c 2
 397.771484375 450 l 2
 407.771484375 450 416.771484375 448 424.771484375 443 c 0
 429.771484375 440 432.771484375 433 432.771484375 424 c 2
 432.771484375 419 l 1
 428.771484375 398 420.771484375 376 409.771484375 352 c 0
 404.771484375 341 397.771484375 332 387.771484375 327 c 0
 377.771484375 322 370.771484375 319 363.771484375 319 c 2
 361.771484375 319 l 2
 349.771484375 320 340.771484375 323 333.771484375 327 c 0
 329.771484375 329 326.771484375 331 325.771484375 334 c 0
 324.771484375 337 323.771484375 340 323.771484375 343 c 2
 323.771484375 351 l 2xd0
262.771484375 80 m 2xe0
 262.771484375 84 l 1
 267.771484375 110 l 2
 267.771484375 112 270.771484375 117 271.771484375 122 c 0
 272.771484375 127 275.771484375 137 280.771484375 152 c 0
 281.771484375 158 284.771484375 163 288.771484375 167 c 0
 292.771484375 171 297.771484375 175 302.771484375 177 c 0
 313.771484375 181 322.771484375 183 330.771484375 183 c 2
 336.771484375 183 l 2
 342.771484375 183 348.771484375 182 353.771484375 180 c 0
 358.771484375 178 361.771484375 175 365.771484375 170 c 0
 369.771484375 165 371.771484375 160 371.771484375 153 c 2
 371.771484375 153 370.771484375 152 370.771484375 151 c 0
 369.771484375 129 362.771484375 106 351.771484375 83 c 0
 346.771484375 73 338.771484375 65 327.771484375 60 c 0
 316.771484375 55 307.771484375 52 299.771484375 52 c 2
 296.771484375 52 l 2
 287.771484375 52 278.771484375 56 270.771484375 62 c 0
 265.771484375 67 262.771484375 73 262.771484375 80 c 2xe0
EndSplineSet
Validated: 524289
EndChar

StartChar: semicolon
Encoding: 59 59 37
Width: 590
GlyphClass: 2
Flags: HMW
HStem: 277 131<383.863 417.863 383.863 417.863>
VStem: 344.863 109<306 382 310 382>
LayerCount: 2
Fore
SplineSet
417.86328125 408 m 2
 426.86328125 408 436.86328125 406 445.86328125 401 c 0
 447.86328125 400 450.86328125 398 451.86328125 394 c 0
 452.86328125 390 453.86328125 386 453.86328125 382 c 2
 453.86328125 377 l 1
 449.86328125 356 441.86328125 334 430.86328125 310 c 0
 425.86328125 299 417.86328125 290 408.86328125 285 c 0
 399.86328125 280 391.86328125 277 384.86328125 277 c 2
 383.86328125 277 l 2
 367.86328125 279 355.86328125 285 348.86328125 294 c 0
 346.86328125 297 344.86328125 301 344.86328125 306 c 2
 344.86328125 310 l 2
 346.86328125 328 351.86328125 351 358.86328125 378 c 0
 360.86328125 384 364.86328125 390 368.86328125 394 c 0
 372.86328125 398 378.86328125 401 384.86328125 403 c 0
 390.86328125 405 395.86328125 407 400.86328125 407 c 0
 405.86328125 407 410.86328125 408 412.86328125 408 c 2
 417.86328125 408 l 2
365.86328125 77 m 0
 359.86328125 56 319.86328125 -30 245.86328125 -182 c 0
 240.86328125 -193 233.86328125 -201 225.86328125 -206 c 0
 217.86328125 -211 210.86328125 -213 203.86328125 -213 c 2
 201.86328125 -213 l 2
 192.86328125 -213 184.86328125 -210 178.86328125 -204 c 0
 176.86328125 -202 174.86328125 -198 174.86328125 -194 c 0
 174.86328125 -190 175.86328125 -187 176.86328125 -183 c 0
 181.86328125 -168 196.86328125 -129 222.86328125 -67 c 0
 248.86328125 -5 268.86328125 41 283.86328125 74 c 0
 287.86328125 83 290.86328125 90 294.86328125 95 c 0
 298.86328125 100 303.86328125 103 305.86328125 104 c 0
 312.86328125 106 318.86328125 107 323.86328125 107 c 0
 324.86328125 107 327.86328125 106 329.86328125 106 c 0
 340.86328125 106 350.86328125 104 359.86328125 99 c 0
 364.86328125 97 367.86328125 92 367.86328125 87 c 0
 367.86328125 85 366.86328125 81 365.86328125 77 c 0
EndSplineSet
Validated: 524289
EndChar

StartChar: less
Encoding: 60 60 38
Width: 590
GlyphClass: 2
Flags: HMW
HStem: 680 20G<625.046 631.046>
LayerCount: 2
Fore
SplineSet
654.045898438 669 m 0
 654.045898438 663 651.045898438 657 646.045898438 650 c 0
 637.045898438 639 620.045898438 626 597.045898438 611 c 0
 557.045898438 585 494.045898438 543 410.045898438 483 c 0
 326.045898438 423 267.045898438 383 236.045898438 362 c 1
 246.045898438 352 l 2
 266.045898438 332 287.045898438 307 310.045898438 279 c 0
 333.045898438 251 353.045898438 226 370.045898438 203 c 0
 387.045898438 180 405.045898438 155 426.045898438 131 c 0
 447.045898438 107 466.045898438 88 483.045898438 74 c 0
 503.045898438 58 512.045898438 45 512.045898438 35 c 0
 512.045898438 32 510.045898438 27 507.045898438 20 c 0
 504.045898438 15 500.045898438 10 494.045898438 7 c 0
 488.045898438 4 480.045898438 1 471.045898438 0 c 2
 465.045898438 0 l 2
 458.045898438 0 450.045898438 2 441.045898438 5 c 0
 428.045898438 10 413.045898438 21 395.045898438 38 c 0
 377.045898438 55 358.045898438 77 337.045898438 102 c 0
 316.045898438 127 297.045898438 152 277.045898438 178 c 0
 257.045898438 204 235.045898438 230 212.045898438 258 c 0
 189.045898438 286 170.045898438 308 153.045898438 324 c 0
 150.045898438 327 148.045898438 333 148.045898438 341 c 0
 148.045898438 351 150.045898438 361 155.045898438 370 c 0
 160.045898438 379 165.045898438 385 172.045898438 389 c 0
 214.045898438 418 264.045898438 454 321.045898438 496 c 0
 378.045898438 538 431.045898438 576 478.045898438 610 c 0
 525.045898438 644 566.045898438 671 601.045898438 691 c 0
 612.045898438 697 621.045898438 700 629.045898438 700 c 0
 633.045898438 700 637.045898438 700 639.045898438 698 c 0
 647.045898438 692 652.045898438 684 653.045898438 675 c 0
 653.045898438 673 654.045898438 671 654.045898438 669 c 0
EndSplineSet
Validated: 524289
EndChar

StartChar: equal
Encoding: 61 61 39
Width: 590
GlyphClass: 2
Flags: HMW
HStem: 259 50 259 58 455 61<266.581 271.581>
LayerCount: 2
Fore
SplineSet
272.081054688 516 m 2x20
 274.081054688 516.000976562 l 2
 310.399414062 514.829101562 350.149414062 514.34375 393.331054688 514.34375 c 0
 423.865234375 514.34375 456.115234375 514.5859375 490.081054688 515 c 0
 522.081054688 515 540.081054688 516 547.081054688 516 c 0
 557.081054688 516 564.081054688 515 565.081054688 513 c 0
 566.081054688 511 567.081054688 507 567.081054688 502 c 0
 567.081054688 495 565.081054688 487 562.081054688 479 c 0
 558.081054688 470 553.081054688 463 546.081054688 461 c 0
 543.081054688 460 540.081054688 459 538.081054688 459 c 2
 531.081054688 459 l 2
 517.081054688 459 504.081054688 460 492.081054688 460 c 2
 458.081054688 460 l 1
 355.081054688 457 l 2
 313.081054688 456 282.081054688 455 261.081054688 455 c 0
 250.081054688 455 241.081054688 458 236.081054688 463 c 0
 233.081054688 466 231.081054688 470 231.081054688 475 c 0
 231.081054688 477 232.081054688 480 232.081054688 482 c 0
 234.081054688 492 240.081054688 500 247.081054688 507 c 0
 254.081054688 513 261.081054688 516 272.081054688 516 c 2x20
232.081054688 317.000976562 m 2x60
 252.081054688 317.000976562 275.081054688 316.000976562 303.081054688 316.000976562 c 0
 331.081054688 316.000976562 364.081054688 318.000976562 404.081054688 318.000976562 c 2
 502.081054688 320.000976562 l 2
 513.081054688 320.000976562 519.081054688 318.000976562 520.081054688 316.000976562 c 0
 522.081054688 313.000976562 522.081054688 307.000976562 521.081054688 298.000976562 c 0
 519.081054688 288.000976562 516.081054688 280.000976562 511.081054688 273.000976562 c 0
 509.081054688 269.000976562 505.081054688 266.000976562 501.081054688 265.000976562 c 0
 497.081054688 264.000976562 494.081054688 264.000976562 492.081054688 264.000976562 c 2
 485.081054688 264.000976562 l 2
 470.081054688 264.000976562 453.081054688 265.000976562 433.081054688 265.000976562 c 0
 413.081054688 265.000976562 372.081054688 263.000976562 308.081054688 261.000976562 c 0
 264.081054688 260.000976562 231.081054688 259.000976562 211.081054688 259.000976562 c 0
 200.081054688 259.000976562 192.081054688 261.000976562 189.081054688 266.000976562 c 0
 187.081054688 269.000976562 186.081054688 273.000976562 186.081054688 278.000976562 c 0
 186.081054688 281.000976562 187.081054688 285.000976562 187.081054688 288.000976562 c 0
 188.081054688 296.000976562 193.081054688 303.000976562 201.081054688 309.000976562 c 0xa0
 209.081054688 315.000976562 218.081054688 317.000976562 230.081054688 317.000976562 c 2
 232.081054688 317.000976562 l 2x60
EndSplineSet
Validated: 524289
EndChar

StartChar: greater
Encoding: 62 62 40
Width: 590
GlyphClass: 2
Flags: HMW
HStem: 687 20G<266.654 272.654 272.654 276.154>
LayerCount: 2
Fore
SplineSet
272.654296875 707 m 2
 279.654296875 707 287.654296875 705 296.654296875 702 c 0
 309.654296875 697 324.654296875 686 343.654296875 669 c 0
 362.654296875 652 380.654296875 631 400.654296875 606 c 0
 420.654296875 581 440.654296875 555 460.654296875 529 c 0
 480.654296875 503 502.654296875 477 524.654296875 449 c 0
 546.654296875 421 567.654296875 399 584.654296875 383 c 0
 587.654296875 380 589.654296875 374 589.654296875 366 c 0
 589.654296875 356 587.654296875 346 582.654296875 337 c 0
 577.654296875 328 572.654296875 322 565.654296875 318 c 0
 523.654296875 290 473.654296875 254 416.654296875 212 c 0
 359.654296875 170 307.654296875 131 260.654296875 97 c 0
 213.654296875 63 171.654296875 36 136.654296875 16 c 0
 125.654296875 10 116.654296875 7 108.654296875 7 c 0
 103.654296875 7 100.654296875 7 98.654296875 9 c 0
 94.654296875 12 90.654296875 16 88.654296875 20 c 0
 86.654296875 24 84.654296875 26 84.654296875 30 c 0
 84.654296875 34 83.654296875 37 83.654296875 38 c 0
 83.654296875 44 86.654296875 50 91.654296875 57 c 0
 100.654296875 68 116.654296875 81 140.654296875 96 c 0
 181.654296875 122 244.654296875 164 328.654296875 224 c 0
 412.654296875 284 471.654296875 324 502.654296875 345 c 1
 491.654296875 355 l 2
 471.654296875 375 451.654296875 400 428.654296875 428 c 0
 405.654296875 456 385.654296875 481 368.654296875 504 c 0
 351.654296875 527 332.654296875 552 311.654296875 576 c 0
 290.654296875 600 272.654296875 619 254.654296875 633 c 0
 234.654296875 649 225.654296875 662 225.654296875 672 c 0
 225.654296875 677 227.654296875 682 230.654296875 687 c 0
 233.654296875 692 238.654296875 697 244.654296875 700 c 0
 250.654296875 703 257.654296875 706 266.654296875 707 c 2
 272.654296875 707 l 2
EndSplineSet
Validated: 524289
EndChar

StartChar: question
Encoding: 63 63 41
Width: 590
GlyphClass: 2
Flags: HMW
HStem: -2 130<244.602 308.602 252.102 308.602> 650 60<428.102 441.102>
VStem: 211.102 132<37.5 90.5> 524.102 69<578.5 582>
LayerCount: 2
Fore
SplineSet
593.102539062 588 m 0
 593.102539062 569 590.102539062 548 585.102539062 525 c 0
 581.102539062 508 574.102539062 493 566.102539062 479 c 0
 558.102539062 465 549.102539062 453 539.102539062 443 c 0
 529.102539062 433 517.102539062 424 504.102539062 415 c 0
 491.102539062 406 478.102539062 396 464.102539062 387 c 0
 450.102539062 378 438.102539062 368 425.102539062 357 c 0
 412.102539062 346 401.102539062 333 389.102539062 318 c 0
 377.102539062 303 368.102539062 286 361.102539062 267 c 0
 355.102539062 252 347.102539062 240 338.102539062 232 c 0
 333.102539062 227 327.102539062 225 320.102539062 225 c 0
 318.102539062 225 314.102539062 227 309.102539062 227 c 0
 304.102539062 228 299.102539062 231 296.102539062 233 c 0
 291.102539062 237 289.102539062 242 289.102539062 249 c 0
 289.102539062 259 293.102539062 272 300.102539062 287 c 0
 308.102539062 304 318.102539062 320 330.102539062 335 c 0
 342.102539062 350 352.102539062 364 364.102539062 375 c 0
 376.102539062 386 389.102539062 397 402.102539062 407 c 0
 415.102539062 417 428.102539062 427 440.102539062 436 c 0
 452.102539062 445 464.102539062 454 475.102539062 464 c 0
 486.102539062 474 495.102539062 485 503.102539062 497 c 0
 511.102539062 509 517.102539062 522 520.102539062 535 c 0
 523.102539062 548 524.102539062 560 524.102539062 571 c 0
 524.102539062 593 518.102539062 610 506.102539062 623 c 0
 488.102539062 641 460.102539062 650 422.102539062 650 c 0
 412.102539062 650 402.102539062 648 391.102539062 643 c 0
 380.102539062 638 370.102539062 633 362.102539062 627 c 0
 354.102539062 621 345.102539062 613 335.102539062 604 c 0
 325.102539062 595 317.102539062 587 312.102539062 581 c 0
 307.102539062 575 300.102539062 567 292.102539062 558 c 0
 279.102539062 543 269.102539062 534 262.102539062 534 c 0
 261.102539062 534 258.102539062 533 257.102539062 533 c 0
 256.102539062 533 253.102539062 534 251.102539062 535 c 0
 249.102539062 536 244.102539062 538 239.102539062 540 c 0
 234.102539062 543 231.102539062 548 231.102539062 555 c 0
 231.102539062 564 236.102539062 576 247.102539062 592 c 0
 267.102539062 619 293.102539062 645 324.102539062 669 c 0
 340.102539062 681 358.102539062 691 378.102539062 699 c 0
 398.102539062 707 418.102539062 710 438.102539062 710 c 0
 501.102539062 710 545.102539062 695 570.102539062 664 c 0
 585.102539062 645 593.102539062 620 593.102539062 588 c 0
343.102539062 85 m 0
 343.102539062 80 342.102539062 74 341.102539062 68 c 0
 337.102539062 49 328.102539062 34 313.102539062 21 c 0
 298.102539062 8 280.102539062 0 260.102539062 -2 c 2
 252.102539062 -2 l 2
 237.102539062 -2 227.102539062 3 220.102539062 13 c 0
 214.102539062 22 211.102539062 32 211.102539062 43 c 0
 211.102539062 48 212.102539062 54 213.102539062 61 c 0
 218.102539062 79 228.102539062 94 245.102539062 107 c 0
 263.102539062 121 281.102539062 128 301.102539062 128 c 0
 316.102539062 128 328.102539062 123 335.102539062 113 c 0
 340.102539062 105 343.102539062 96 343.102539062 85 c 0
EndSplineSet
Validated: 524289
EndChar

StartChar: at
Encoding: 64 64 42
Width: 590
GlyphClass: 2
Flags: HMW
HStem: -117 61<237.823 285.323 252.823 285.323> 114 53<451.323 482.323> 130 56<316.323 324.323> 394 52<384.823 414.323 384.823 414.323> 625 65<437.323 473.823 450.823 466.823>
VStem: 98.8227 60<100 118.5> 229.823 53<198 229> 414.823 33 565.823 51<460 533.5>
LayerCount: 2
Fore
SplineSet
488.823242188 49 m 2xdf80
 488.823242188 47 486.823242188 42 484.823242188 36 c 0
 482.823242188 30 478.823242188 22 472.823242188 12 c 0
 467.823242188 3 462.823242188 -6 457.823242188 -13 c 0
 452.823242188 -20 446.823242188 -28 438.823242188 -38 c 0
 430.823242188 -48 422.823242188 -55 414.823242188 -62 c 0
 406.823242188 -69 397.823242188 -77 385.823242188 -84 c 0
 373.823242188 -91 361.823242188 -97 349.823242188 -102 c 0
 337.823242188 -107 322.823242188 -111 306.823242188 -113 c 0
 290.823242188 -115 274.823242188 -117 257.823242188 -117 c 2
 252.823242188 -117 l 2
 222.823242188 -117 195.823242188 -109 173.823242188 -93 c 0
 151.823242188 -77 133.823242188 -55 120.823242188 -26 c 0
 105.823242188 8 98.8232421875 50 98.8232421875 99 c 0
 98.8232421875 138 102.823242188 180 113.823242188 225 c 0
 127.823242188 283 144.823242188 338 164.823242188 388 c 0
 184.823242188 438 205.823242188 481 228.823242188 518 c 0
 251.823242188 555 278.823242188 586 304.823242188 612 c 0
 330.823242188 638 357.823242188 658 384.823242188 671 c 0
 411.823242188 684 437.823242188 690 463.823242188 690 c 0
 483.823242188 690 501.823242188 689 516.823242188 686 c 0
 531.823242188 683 546.823242188 677 558.823242188 669 c 0
 570.823242188 661 580.823242188 652 588.823242188 640 c 0
 596.823242188 628 603.823242188 611 608.823242188 591 c 0
 613.823242188 571 616.823242188 547 616.823242188 520 c 0
 616.823242188 463 605.823242188 388 584.823242188 295 c 0
 573.823242188 248 557.823242188 206 536.823242188 171 c 0
 525.823242188 153 513.823242188 139 500.823242188 129 c 0
 487.823242188 119 473.823242188 114 459.823242188 114 c 0
 442.823242188 114 430.823242188 119 423.823242188 128 c 0
 417.823242188 136 414.823242188 148 414.823242188 163 c 0
 414.823242188 169 414.823242188 176 415.823242188 184 c 2
 424.823242188 251 l 1
 392.823242188 192 l 2
 370.823242188 150 341.823242188 130 306.823242188 130 c 0xbf80
 274.823242188 130 252.823242188 140 240.823242188 161 c 0
 233.823242188 173 229.823242188 188 229.823242188 208 c 0
 229.823242188 225 232.823242188 245 237.823242188 268 c 0
 242.823242188 291 250.823242188 312 260.823242188 333 c 0
 270.823242188 354 280.823242188 370 292.823242188 384 c 0
 304.823242188 398 317.823242188 410 330.823242188 420 c 0
 343.823242188 430 357.823242188 436 370.823242188 440 c 0
 383.823242188 444 395.823242188 446 406.823242188 446 c 0
 421.823242188 446 436.823242188 443 450.823242188 436 c 0
 461.823242188 431 469.823242188 425 474.823242188 417 c 0
 475.823242188 414 476.823242188 411 476.823242188 409 c 0
 476.823242188 407 475.823242188 405 474.823242188 403 c 0
 468.823242188 394 462.823242188 389 456.823242188 387 c 0
 451.823242188 386 446.823242188 385 443.823242188 385 c 0
 438.823242188 385 427.823242188 387 411.823242188 392 c 0
 404.823242188 393 398.823242188 394 394.823242188 394 c 2
 384.823242188 394 l 2
 374.823242188 393 364.823242188 389 354.823242188 383 c 0
 344.823242188 377 335.823242188 371 327.823242188 362 c 0
 319.823242188 353 311.823242188 343 304.823242188 329 c 0
 297.823242188 315 292.823242188 300 288.823242188 283 c 0
 284.823242188 266 282.823242188 252 282.823242188 241 c 2
 282.823242188 229 l 2
 282.823242188 217 286.823242188 207 292.823242188 199 c 0
 299.823242188 190 309.823242188 186 322.823242188 186 c 0
 345.823242188 186 364.823242188 195 379.823242188 215 c 0
 392.823242188 233 404.823242188 261 414.823242188 301 c 0
 415.823242188 307 423.823242188 313 436.823242188 318 c 0
 446.823242188 322 454.823242188 324 461.823242188 324 c 0
 465.823242188 324 469.823242188 323 471.823242188 322 c 2
 472.823242188 321 l 1
 472.823242188 321 471.823242188 319 471.823242188 317 c 0
 459.823242188 281 451.823242188 253 449.823242188 232 c 0
 448.823242188 222 447.823242188 213 447.823242188 205 c 0
 447.823242188 197 448.823242188 191 450.823242188 186 c 0
 452.823242188 179 457.823242188 174 462.823242188 171 c 0
 467.823242188 169 472.823242188 167 477.823242188 167 c 0xdf80
 486.823242188 167 495.823242188 173 503.823242188 186 c 0xbf80
 509.823242188 196 515.823242188 208 520.823242188 223 c 0
 529.823242188 248 536.823242188 272 541.823242188 293 c 0
 548.823242188 327 555.823242188 360 559.823242188 391 c 0
 563.823242188 422 565.823242188 449 565.823242188 471 c 0
 565.823242188 489 563.823242188 506 560.823242188 522 c 0
 557.823242188 538 554.823242188 552 550.823242188 563 c 0
 546.823242188 574 540.823242188 584 532.823242188 592 c 0
 524.823242188 600 517.823242188 607 510.823242188 611 c 0
 503.823242188 615 496.823242188 619 487.823242188 621 c 0
 478.823242188 623 471.823242188 625 466.823242188 625 c 2
 450.823242188 625 l 2
 423.823242188 625 396.823242188 617 369.823242188 599 c 0
 342.823242188 581 316.823242188 557 292.823242188 526 c 0
 268.823242188 495 246.823242188 457 226.823242188 413 c 0
 206.823242188 369 190.823242188 320 178.823242188 267 c 0
 165.823242188 208 158.823242188 156 158.823242188 112 c 0
 158.823242188 88 160.823242188 68 164.823242188 51 c 0
 170.823242188 27 179.823242188 6 190.823242188 -11 c 0
 201.823242188 -28 214.823242188 -39 228.823242188 -46 c 0
 242.823242188 -53 259.823242188 -56 276.823242188 -56 c 0
 293.823242188 -56 310.823242188 -54 325.823242188 -51 c 0
 340.823242188 -48 352.823242188 -43 363.823242188 -38 c 0
 374.823242188 -33 384.823242188 -26 395.823242188 -18 c 0
 406.823242188 -10 414.823242188 -1 420.823242188 6 c 0
 426.823242188 13 434.823242188 22 442.823242188 32 c 0
 447.823242188 39 451.823242188 44 455.823242188 48 c 0
 460.823242188 54 464.823242188 58 466.823242188 59 c 0
 468.823242188 59 470.823242188 61 472.823242188 62 c 0
 474.823242188 63 477.823242188 63 479.823242188 62 c 0
 481.823242188 61 484.823242188 59 485.823242188 58 c 0
 486.823242188 57 488.823242188 53 488.823242188 51 c 2
 488.823242188 49 l 2xdf80
472.823242188 321 m 1024
EndSplineSet
Validated: 524289
EndChar

StartChar: A
Encoding: 65 65 43
Width: 590
GlyphClass: 2
Flags: HMW
HStem: 276 43<455.267 455.267 455.267 465.267>
VStem: 460.267 72<66 126> 465.267 57 479.267 62
LayerCount: 2
Fore
SplineSet
452.266601562 276 m 1xa0
 377.266601562 273 307.266601562 265 245.266601562 253 c 1
 212.266601562 196 178.266601562 131 143.266601562 58 c 0
 134.266601562 40 125.266601562 28 114.266601562 23 c 0
 109.266601562 21 103.266601562 19 99.2666015625 19 c 0
 95.2666015625 19 92.2666015625 20 89.2666015625 21 c 0
 86.2666015625 22 83.2666015625 25 82.2666015625 28 c 0
 81.2666015625 31 80.2666015625 35 80.2666015625 39 c 0
 80.2666015625 49 85.2666015625 63 93.2666015625 81 c 0
 102.266601562 102 132.266601562 157 186.266601562 245 c 1
 184.266601562 256 181.266601562 258 179.266601562 252 c 1
 174.266601562 255 172.266601562 259 172.266601562 263 c 0
 172.266601562 264 173.266601562 266 173.266601562 268 c 0
 174.266601562 275 178.266601562 282 187.266601562 289 c 0
 196.266601562 296 207.266601562 301 218.266601562 305 c 1
 219.266601562 314 221.266601562 315 222.266601562 307 c 1
 331.266601562 499 412.266601562 627 465.266601562 691 c 0
 476.266601562 704 486.266601562 712 493.266601562 717 c 0
 500.266601562 722 507.266601562 725 513.266601562 725 c 2
 514.266601562 725 l 1
 518.266601562 725 l 2
 525.266601562 725 530.266601562 723 535.266601562 720 c 0
 539.266601562 718 541.266601562 712 541.266601562 705 c 2x90
 541.266601562 700 l 1
 534.266601562 617 530.266601562 500 526.266601562 348 c 0
 524.266601562 289 522.266601562 241 522.266601562 201 c 0xa0
 522.266601562 137 525.266601562 98 529.266601562 84 c 0
 531.266601562 78 532.266601562 72 532.266601562 68 c 0xc0
 532.266601562 64 531.266601562 60 530.266601562 56 c 0
 527.266601562 47 521.266601562 41 516.266601562 35 c 0
 511.266601562 29 505.266601562 24 498.266601562 22 c 0
 493.266601562 20 490.266601562 19 487.266601562 19 c 0
 483.266601562 19 478.266601562 20 475.266601562 22 c 0
 468.266601562 26 463.266601562 37 461.266601562 54 c 0
 461.266601562 62 460.266601562 81 460.266601562 111 c 0
 460.266601562 141 463.266601562 197 465.266601562 276 c 1
 461.266601562 285 457.266601562 285 452.266601562 276 c 1xa0
456.266601562 610 m 2
 419.266601562 565 363.266601562 470 288.266601562 324 c 1
 278.266601562 303 l 1
 300.266601562 306 l 2
 358.266601562 313 409.266601562 318 455.266601562 319 c 2
 467.266601562 320 l 1
 479.266601562 637 l 1
 456.266601562 610 l 2
EndSplineSet
Validated: 524289
EndChar

StartChar: B
Encoding: 66 66 44
Width: 590
GlyphClass: 2
Flags: HMW
HStem: 310 47<309.212 313.212 313.212 314.212> 642 43<385.212 402.212 402.212 405.212>
VStem: 469.212 72<211 215.5 211 215.5> 511.212 62<533.5 538.5>
LayerCount: 2
Fore
SplineSet
539.211914062 201 m 2xd0
 534.211914062 177 523.211914062 153 506.211914062 130 c 0
 489.211914062 107 467.211914062 85 442.211914062 65 c 0
 418.211914062 45 388.211914062 28 354.211914062 14 c 0
 320.211914062 0 284.211914062 -10 245.211914062 -14 c 1
 239.024414062 -19.0625 232.836914062 -21.59375 226.649414062 -21.59375 c 2
 212.211914062 -17 l 1
 206.024414062 -22.0625 200.153320312 -24.59375 194.243164062 -24.59375 c 0
 189.645507812 -24.59375 185.024414062 -23.0625 180.211914062 -20 c 0
 160.211914062 -22 146.211914062 -23 136.211914062 -23 c 0
 130.211914062 -23 124.211914062 -22 118.211914062 -21 c 2
 116.211914062 -21 l 1
 113.211914062 -21 l 2
 105.211914062 -21 99.2119140625 -18 96.2119140625 -13 c 0
 94.2119140625 -11 93.2119140625 -7 93.2119140625 -2 c 0
 93.2119140625 3 94.2119140625 8 96.2119140625 14 c 0
 105.211914062 42 118.211914062 95 135.211914062 174 c 0
 152.211914062 253 169.211914062 335 185.211914062 419 c 0
 194.211914062 463 201.211914062 493 204.211914062 508 c 0
 207.211914062 523 212.211914062 544 219.211914062 570 c 0
 224.211914062 579 228.211914062 597 233.211914062 623 c 0
 236.211914062 639 242.211914062 651 250.211914062 658 c 0
 258.211914062 665 266.211914062 669 275.211914062 669 c 2
 279.211914062 669 l 1
 280.211914062 669 l 2
 291.211914062 672 301.211914062 675 311.211914062 677 c 0
 330.211914062 681 347.211914062 684 364.211914062 684 c 0
 373.211914062 684 380.211914062 685 385.211914062 685 c 2
 402.211914062 685 l 1
 412.211914062 685 l 2
 449.211914062 685 481.211914062 678 508.211914062 662 c 0
 535.211914062 646 553.211914062 624 564.211914062 595 c 0
 570.211914062 578 573.211914062 561 573.211914062 541 c 0
 573.211914062 526 571.211914062 509 567.211914062 492 c 0
 559.211914062 455 544.211914062 423 522.211914062 397 c 0
 500.211914062 371 474.211914062 352 445.211914062 340 c 1
 436.211914062 329 428.211914062 325 419.211914062 329 c 1
 425.671875 320.38671875 431.6171875 315.89453125 437.786132812 315.89453125 c 0
 440.211914062 315.89453125 442.671875 316.588867188 445.211914062 318 c 0
 462.211914062 311 479.211914062 300 495.211914062 287 c 0
 511.211914062 274 523.211914062 259 532.211914062 242 c 0
 538.211914062 231 541.211914062 220 541.211914062 211 c 2xe0
 539.211914062 201 l 2xd0
299.211914062 629 m 2
 293.211914062 627 l 1
 275.211914062 553 263.211914062 501 256.211914062 470 c 0
 249.211914062 439 242.211914062 402 233.211914062 360 c 1
 268.211914062 358 297.211914062 357 321.211914062 357 c 0
 339.211914062 357 356.211914062 359 371.211914062 362 c 0
 386.211914062 365 400.211914062 369 411.211914062 375 c 0
 422.211914062 381 433.211914062 388 443.211914062 397 c 0
 453.211914062 406 462.211914062 414 469.211914062 423 c 0
 476.211914062 432 482.211914062 441 487.211914062 451 c 0
 492.211914062 461 496.211914062 471 499.211914062 479 c 0
 502.211914062 487 506.211914062 496 508.211914062 506 c 0
 510.211914062 516 511.211914062 525 511.211914062 534 c 0xd0
 511.211914062 543 510.211914062 550 509.211914062 557 c 0
 506.211914062 574 500.211914062 587 491.211914062 598 c 0
 482.211914062 609 472.211914062 617 459.211914062 624 c 0
 439.211914062 636 417.211914062 642 393.211914062 642 c 0
 362.211914062 642 330.211914062 638 299.211914062 629 c 2
437.211914062 261 m 0
 426.211914062 271 410.211914062 280 389.211914062 289 c 0
 368.211914062 298 343.211914062 305 314.211914062 310 c 1
 313.211914062 310 l 2
 271.211914062 310 242.211914062 308 223.211914062 308 c 1
 201.211914062 194 184.211914062 109 173.211914062 54 c 1
 190.211914062 55 206.211914062 56 221.211914062 56 c 0
 236.211914062 56 247.211914062 57 254.211914062 57 c 0
 281.211914062 58 307.211914062 64 333.211914062 74 c 0
 359.211914062 84 381.211914062 94 399.211914062 108 c 0
 417.211914062 122 432.211914062 137 444.211914062 152 c 0
 457.211914062 167 465.211914062 182 468.211914062 196 c 0
 468.211914062 199 469.211914062 203 469.211914062 206 c 0xe0
 469.211914062 225 458.211914062 243 437.211914062 261 c 0
EndSplineSet
Validated: 524289
EndChar

StartChar: C
Encoding: 67 67 45
Width: 590
GlyphClass: 2
Flags: HMW
HStem: -31 67<246.505 296.505 257.505 296.505> 654 59<509.505 514.005> 701 21G
VStem: 111.505 77<126.5 190.5>
LayerCount: 2
Fore
SplineSet
264.504882812 -31 m 2xd0
 257.504882812 -31 l 2
 235.504882812 -31 215.504882812 -27 196.504882812 -18 c 0
 177.504882812 -9 162.504882812 2 150.504882812 17 c 0
 138.504882812 32 129.504882812 49 122.504882812 70 c 0
 115.504882812 91 111.504882812 114 111.504882812 139 c 0
 111.504882812 159 113.504882812 179 118.504882812 200 c 0
 129.504882812 249 144.504882812 297 164.504882812 343 c 0
 184.504882812 389 205.504882812 432 229.504882812 469 c 0
 251.504882812 506 275.504882812 540 301.504882812 571 c 0
 327.504882812 602 353.504882812 627 378.504882812 648 c 0
 403.504882812 669 429.504882812 685 453.504882812 696 c 0
 477.504882812 707 499.504882812 713 519.504882812 713 c 0
 540.504882812 713 558.504882812 710 575.504882812 705 c 1
 578.504882812 711 582.504882812 710 585.504882812 701 c 1xb0
 587.504882812 712 589.504882812 716 590.504882812 711 c 1
 594.504882812 720 599.504882812 727 606.504882812 732 c 0
 613.504882812 737 619.504882812 740 626.504882812 740 c 2
 631.504882812 741 l 2
 636.504882812 741 641.504882812 739 646.504882812 735 c 0
 652.504882812 730 655.504882812 723 655.504882812 713 c 0
 655.504882812 697 653.504882812 678 649.504882812 656 c 0
 648.504882812 647 646.504882812 635 642.504882812 621 c 0
 638.504882812 607 635.504882812 598 635.504882812 596 c 0
 633.504882812 583 625.504882812 570 614.504882812 557 c 0
 603.504882812 544 594.504882812 537 587.504882812 537 c 2
 582.504882812 537 l 2
 575.504882812 537 569.504882812 539 564.504882812 544 c 0
 560.504882812 547 558.504882812 552 558.504882812 558 c 0
 558.504882812 559 559.504882812 562 559.504882812 565 c 0
 560.504882812 571 565.504882812 588 572.504882812 616 c 0
 571.504882812 623 569.504882812 625 567.504882812 621 c 1
 564.504882812 623 558.504882812 629 549.504882812 637 c 0
 547.504882812 639 543.504882812 642 538.504882812 645 c 0
 529.504882812 651 519.504882812 654 508.504882812 654 c 0
 488.504882812 654 465.504882812 647 441.504882812 632 c 0
 417.504882812 617 393.504882812 596 369.504882812 570 c 0
 345.504882812 544 320.504882812 514 298.504882812 481 c 0
 276.504882812 448 255.504882812 409 237.504882812 367 c 0
 217.504882812 325 203.504882812 281 194.504882812 239 c 0
 190.504882812 219 188.504882812 200 188.504882812 181 c 0
 188.504882812 169 189.504882812 157 191.504882812 145 c 0
 195.504882812 114 205.504882812 88 223.504882812 68 c 0
 240.504882812 47 261.504882812 36 286.504882812 36 c 0
 306.504882812 36 324.504882812 38 344.504882812 43 c 0
 364.504882812 48 381.504882812 54 397.504882812 62 c 0
 413.504882812 70 427.504882812 76 439.504882812 84 c 0
 451.504882812 92 462.504882812 100 473.504882812 109 c 0
 481.504882812 114 488.504882812 119 493.504882812 121 c 0
 498.504882812 123 503.504882812 125 508.504882812 125 c 0
 511.504882812 125 514.504882812 124 516.504882812 122 c 0
 520.504882812 117 522.504882812 113 522.504882812 108 c 0
 522.504882812 97 514.504882812 82 497.504882812 64 c 0
 437.504882812 1 360.504882812 -31 264.504882812 -31 c 2xd0
EndSplineSet
Validated: 524289
EndChar

StartChar: D
Encoding: 68 68 46
Width: 590
GlyphClass: 2
Flags: HMW
HStem: -31 61<294.56 341.06 307.06 341.06> 712 21G<291.06 295.06 291.06 291.06>
VStem: 291.06 4<688 688 712 712> 510.06 65<341 379>
LayerCount: 2
Fore
SplineSet
295.059570312 712 m 1
 291.059570312 712 l 1
 292.059570312 726 294.059570312 732 295.059570312 730 c 2
 295.059570312 712 l 1
295.059570312 687 m 1
 306.059570312 686 319.059570312 683 332.059570312 680 c 0
 349.059570312 676 365.059570312 671 382.059570312 664 c 0
 399.059570312 657 416.059570312 647 435.059570312 635 c 0
 454.059570312 623 471.059570312 609 488.059570312 593 c 0
 505.059570312 577 519.059570312 557 533.059570312 533 c 0
 547.059570312 509 557.059570312 484 564.059570312 457 c 0
 571.059570312 430 575.059570312 398 575.059570312 363 c 0
 575.059570312 319 570.059570312 272 558.059570312 222 c 0
 552.059570312 200 544.059570312 176 533.059570312 153 c 0
 522.059570312 130 509.059570312 107 492.059570312 85 c 0
 475.059570312 63 458.059570312 43 439.059570312 26 c 0
 421.059570312 9 401.059570312 -6 380.059570312 -16 c 0
 359.059570312 -26 336.059570312 -31 315.059570312 -31 c 2
 307.059570312 -31 l 2
 282.059570312 -31 257.059570312 -29 232.059570312 -27 c 0
 207.059570312 -25 187.059570312 -21 171.059570312 -17 c 0
 155.059570312 -13 140.059570312 -9 127.059570312 -5 c 0
 114.059570312 -1 106.059570312 0 103.059570312 0 c 0
 95.0595703125 0 89.0595703125 3 86.0595703125 8 c 0
 84.0595703125 10 83.0595703125 15 83.0595703125 20 c 0
 83.0595703125 25 84.0595703125 30 86.0595703125 36 c 0
 95.0595703125 68 109.059570312 125 128.059570312 207 c 0
 147.059570312 289 164.059570312 377 183.059570312 472 c 0
 190.059570312 509 196.059570312 533 199.059570312 545 c 0
 202.059570312 557 206.059570312 575 212.059570312 600 c 0
 218.059570312 625 222.059570312 640 223.059570312 645 c 0
 226.059570312 660 232.059570312 672 240.059570312 679 c 0
 248.059570312 686 256.059570312 690 265.059570312 690 c 0
 273.059570312 690 282.059570312 689 291.059570312 688 c 1
 286.059570312 654 280.059570312 628 274.059570312 611 c 0
 253.059570312 525 234.059570312 433 217.059570312 338 c 0
 209.059570312 287 201.059570312 243 192.059570312 208 c 0
 180.059570312 151 171.059570312 104 164.059570312 69 c 0
 166.059570312 60 170.059570312 58 172.059570312 65 c 1
 195.059570312 52 219.059570312 43 244.059570312 38 c 0
 269.059570312 33 299.059570312 30 332.059570312 30 c 0
 350.059570312 30 368.059570312 36 386.059570312 50 c 0
 404.059570312 64 420.059570312 81 434.059570312 102 c 0
 448.059570312 123 460.059570312 145 472.059570312 169 c 0
 484.059570312 193 493.059570312 218 498.059570312 241 c 0
 506.059570312 275 510.059570312 307 510.059570312 337 c 0
 510.059570312 421 481.059570312 489 421.059570312 540 c 0
 396.059570312 562 357.059570312 586 306.059570312 611 c 1
 306.059570312 616 l 1
 303.059570312 616 l 1
 303.059570312 617 l 1
 301.059570312 617 l 1
 301.059570312 618 l 1
 299.059570312 618 l 1
 299.059570312 619 l 1
 295.059570312 619 l 1
 295.059570312 687 l 1
EndSplineSet
Validated: 524289
EndChar

StartChar: E
Encoding: 69 69 47
Width: 590
GlyphClass: 2
Flags: HMW
HStem: -20 63<170.7 251.2> -6 66<440.2 486.7 446.7 486.7> 312 62<227.7 265.7> 332 57<519.2 548.7> 615 59<471.7 493.2 447.7 499.7>
VStem: 92.7 77<27.5 74.5>
LayerCount: 2
Fore
SplineSet
458.700195312 -6 m 2x4c
 446.700195312 -6 l 2
 433.700195312 -6 412.700195312 -7 381.700195312 -9 c 0
 286.700195312 -16 218.700195312 -20 180.700195312 -20 c 0xac
 160.700195312 -20 146.700195312 -19 133.700195312 -18 c 0
 122.700195312 -18 113.700195312 -11 104.700195312 0 c 0
 97.7001953125 9 92.7001953125 21 92.7001953125 34 c 0
 92.7001953125 47 99.7001953125 81 112.700195312 136 c 0
 122.700195312 180 133.700195312 228 146.700195312 279 c 0
 159.700195312 330 170.700195312 388 183.700195312 451 c 0
 191.700195312 491 197.700195312 517 200.700195312 530 c 0
 203.700195312 543 208.700195312 562 215.700195312 587 c 0
 222.700195312 612 225.700195312 627 226.700195312 634 c 0
 230.700195312 649 236.700195312 660 244.700195312 668 c 0
 252.700195312 676 261.700195312 680 270.700195312 680 c 1
 271.700195312 672 273.700195312 672 274.700195312 680 c 0
 278.700195312 680 281.700195312 679 284.700195312 678 c 0
 287.700195312 677 290.700195312 674 291.700195312 670 c 0
 292.700195312 659 294.700195312 656 295.700195312 661 c 1
 297.700195312 654 300.700195312 654 302.700195312 663 c 1
 350.700195312 670 411.700195312 674 483.700195312 674 c 0
 502.700195312 674 518.700195312 673 535.700195312 673 c 0
 571.700195312 672 599.700195312 669 620.700195312 667 c 0
 631.700195312 665 638.700195312 662 640.700195312 659 c 0
 640.700195312 658 641.700195312 655 641.700195312 653 c 0
 641.700195312 651 640.700195312 647 640.700195312 643 c 0
 640.700195312 639 638.700195312 634 636.700195312 630 c 0
 631.700195312 621 626.700195312 614 619.700195312 612 c 0
 616.700195312 610 613.700195312 609 611.700195312 609 c 0
 609.700195312 609 607.700195312 610 605.700195312 610 c 0
 562.700195312 613 520.700195312 615 478.700195312 615 c 0
 464.700195312 615 449.700195312 614 434.700195312 614 c 0
 379.700195312 613 332.700195312 609 290.700195312 602 c 1
 288.700195312 593 284.700195312 593 282.700195312 601 c 1
 262.700195312 526 246.700195312 450 230.700195312 373 c 1
 235.700195312 366 239.700195312 366 244.700195312 374 c 1
 286.700195312 374 345.700195312 376 418.700195312 381 c 0
 492.700195312 386 533.700195312 389 543.700195312 389 c 0x1c
 553.700195312 389 559.700195312 386 561.700195312 384 c 0
 563.700195312 380 563.700195312 374 562.700195312 366 c 0
 560.700195312 355 555.700195312 346 550.700195312 341 c 0
 544.700195312 335 535.700195312 332 524.700195312 332 c 0
 513.700195312 332 467.700195312 329 388.700195312 322 c 0
 309.700195312 315 256.700195312 312 227.700195312 312 c 1xac
 224.700195312 303 219.700195312 303 217.700195312 311 c 1
 207.700195312 267 199.700195312 225 190.700195312 184 c 0
 176.700195312 122 169.700195312 82 169.700195312 67 c 0
 169.700195312 63 170.700195312 57 170.700195312 50 c 0
 172.700195312 41 175.700195312 41 177.700195312 48 c 1
 182.700195312 46 189.700195312 44 199.700195312 44 c 0
 208.700195312 44 222.700195312 43 241.700195312 43 c 0
 260.700195312 43 286.700195312 44 318.700195312 45 c 0
 393.700195312 49 443.700195312 53 466.700195312 58 c 0
 474.700195312 59 480.700195312 60 484.700195312 60 c 0
 488.700195312 60 492.700195312 59 494.700195312 58 c 0
 496.700195312 57 498.700195312 55 499.700195312 54 c 0
 500.700195312 53 501.700195312 50 501.700195312 47 c 0
 501.700195312 44 502.700195312 41 502.700195312 39 c 0
 502.700195312 37 501.700195312 33 501.700195312 31 c 0
 499.700195312 20 494.700195312 11 486.700195312 3 c 0
 481.700195312 -4 473.700195312 -7 464.700195312 -7 c 0
 462.700195312 -7 460.700195312 -6 458.700195312 -6 c 2x4c
EndSplineSet
Validated: 524289
EndChar

StartChar: F
Encoding: 70 70 48
Width: 590
GlyphClass: 2
Flags: HMW
HStem: 323 60<326.53 339.53> 619 63
LayerCount: 2
Fore
SplineSet
623.530273438 677 m 0
 634.530273438 676 640.530273438 673 641.530273438 671 c 0
 643.530273438 668 644.530273438 662 643.530273438 654 c 0
 641.530273438 645 635.530273438 636 628.530273438 629 c 0
 622.530273438 622 614.530273438 619 603.530273438 619 c 2
 601.530273438 619 l 2
 568.530273438 621 534.530273438 622 499.530273438 622 c 0
 434.530273438 622 362.530273438 618 283.530273438 611 c 1
 267.530273438 544 256.530273438 498 250.530273438 472 c 0
 244.530273438 446 237.530273438 414 229.530273438 376 c 1
 234.530273438 369 240.530273438 369 245.530273438 378 c 1
 270.530273438 381 297.530273438 383 326.530273438 383 c 2
 347.530273438 383 l 2
 384.530273438 382 417.530273438 379 447.530273438 376 c 0
 477.530273438 373 500.530273438 370 517.530273438 367 c 0
 523.530273438 366 527.530273438 363 530.530273438 362 c 0
 533.530273438 361 536.530273438 359 536.530273438 359 c 2
 537.530273438 357 538.530273438 354 538.530273438 350 c 2
 538.530273438 344 l 2
 536.530273438 335 531.530273438 326 525.530273438 319 c 0
 521.530273438 313 514.530273438 310 505.530273438 310 c 2
 503.530273438 310 l 2
 486.530273438 313 460.530273438 317 428.530273438 319 c 0
 396.530273438 321 359.530273438 323 319.530273438 323 c 0
 281.530273438 323 250.530273438 320 224.530273438 316 c 1
 222.530273438 307 219.530273438 307 217.530273438 315 c 1
 197.530273438 207 177.530273438 107 157.530273438 15 c 0
 153.530273438 4 146.530273438 -5 136.530273438 -12 c 0
 126.530273438 -19 116.530273438 -22 106.530273438 -22 c 0
 105.530273438 -22 103.530273438 -21 103.530273438 -21 c 2
 95.5302734375 -21 89.5302734375 -18 86.5302734375 -13 c 0
 84.5302734375 -11 83.5302734375 -7 83.5302734375 -2 c 0
 83.5302734375 3 84.5302734375 8 86.5302734375 14 c 0
 95.5302734375 43 107.530273438 100 126.530273438 183 c 0
 145.530273438 266 163.530273438 352 180.530273438 440 c 0
 189.530273438 484 196.530273438 515 199.530273438 530 c 0
 202.530273438 545 206.530273438 565 213.530273438 591 c 0
 218.530273438 601 223.530273438 619 228.530273438 645 c 0
 231.530273438 660 237.530273438 672 245.530273438 679 c 0
 253.530273438 686 262.530273438 690 271.530273438 690 c 2
 275.530273438 690 l 2
 280.530273438 690 283.530273438 689 286.530273438 688 c 0
 289.530273438 687 292.530273438 684 293.530273438 680 c 0
 293.530273438 669 295.530273438 667 296.530273438 672 c 1
 372.530273438 679 443.530273438 682 509.530273438 682 c 0
 554.530273438 682 592.530273438 680 623.530273438 677 c 0
EndSplineSet
Validated: 524289
EndChar

StartChar: G
Encoding: 71 71 49
Width: 590
GlyphClass: 2
Flags: HMW
HStem: -31 67<244.646 293.646 255.646 293.646> 289 59<506.146 546.646> 666 58<511.146 515.146>
VStem: 109.646 78<126.5 190.5>
LayerCount: 2
Fore
SplineSet
631.645507812 687 m 0
 639.645507812 682 644.645507812 677 646.645507812 674 c 0
 649.645507812 669 650.645507812 664 650.645507812 658 c 0
 650.645507812 650 648.645507812 640 642.645507812 629 c 0
 640.645507812 623 633.645507812 618 626.645507812 615 c 0
 622.645507812 614 619.645507812 613 617.645507812 613 c 0
 615.645507812 613 611.645507812 615 607.645507812 615 c 0
 604.645507812 616 597.645507812 621 586.645507812 630 c 0
 575.645507812 639 562.645507812 647 548.645507812 654 c 0
 534.645507812 662 521.645507812 666 508.645507812 666 c 0
 488.645507812 666 466.645507812 658 442.645507812 643 c 0
 418.645507812 628 394.645507812 607 369.645507812 580 c 0
 344.645507812 553 319.645507812 522 297.645507812 487 c 0
 275.645507812 452 254.645507812 413 236.645507812 370 c 0
 216.645507812 327 201.645507812 283 192.645507812 239 c 0
 188.645507812 219 187.645507812 200 187.645507812 181 c 0
 187.645507812 169 187.645507812 157 189.645507812 145 c 0
 193.645507812 114 205.645507812 89 222.645507812 68 c 0
 240.645507812 47 260.645507812 36 285.645507812 36 c 0
 301.645507812 36 317.645507812 42 335.645507812 54 c 0
 353.645507812 66 371.645507812 80 386.645507812 97 c 0
 401.645507812 114 416.645507812 132 431.645507812 153 c 0
 446.645507812 174 459.645507812 195 470.645507812 215 c 0
 481.645507812 235 491.645507812 253 498.645507812 270 c 0
 500.645507812 275 503.645507812 281 505.645507812 289 c 1
 498.645507812 287 492.645507812 287 486.645507812 288 c 0
 449.645507812 286 413.645507812 282 376.645507812 276 c 0
 339.645507812 270 313.645507812 263 297.645507812 254 c 0
 294.645507812 252 291.645507812 250 289.645507812 250 c 0
 287.645507812 250 285.645507812 251 283.645507812 253 c 0
 279.645507812 257 276.645507812 262 276.645507812 268 c 2
 276.645507812 270 l 2
 277.645507812 291 290.645507812 308 315.645507812 320 c 0
 332.645507812 329 368.645507812 337 421.645507812 342 c 0
 461.645507812 346 493.645507812 348 518.645507812 348 c 0
 544.645507812 348 559.645507812 347 565.645507812 345 c 2
 571.645507812 341 l 2
 573.645507812 339 575.645507812 336 575.645507812 331 c 2
 575.645507812 328 l 2
 574.645507812 318 571.645507812 310 567.645507812 304 c 0
 563.645507812 298 558.645507812 293 551.645507812 291 c 0
 549.645507812 289 547.645507812 289 545.645507812 289 c 0
 544.645507812 282 542.645507812 275 539.645507812 266 c 0
 536.645507812 257 534.645507812 249 533.645507812 244 c 0
 528.645507812 230 521.645507812 214 512.645507812 195 c 0
 503.645507812 176 491.645507812 157 477.645507812 136 c 0
 463.645507812 115 448.645507812 94 430.645507812 74 c 0
 412.645507812 54 394.645507812 36 375.645507812 20 c 0
 356.645507812 4 337.645507812 -9 316.645507812 -18 c 0
 295.645507812 -27 276.645507812 -31 257.645507812 -31 c 2
 255.645507812 -31 l 2
 233.645507812 -31 213.645507812 -27 194.645507812 -18 c 0
 175.645507812 -9 161.645507812 2 149.645507812 17 c 0
 137.645507812 32 128.645507812 49 121.645507812 70 c 0
 114.645507812 91 109.645507812 114 109.645507812 139 c 0
 109.645507812 159 112.645507812 179 117.645507812 200 c 0
 129.645507812 251 144.645507812 300 164.645507812 347 c 0
 184.645507812 394 205.645507812 437 229.645507812 475 c 0
 251.645507812 513 275.645507812 548 301.645507812 580 c 0
 327.645507812 612 352.645507812 638 378.645507812 659 c 0
 404.645507812 680 429.645507812 696 453.645507812 707 c 0
 477.645507812 718 500.645507812 724 521.645507812 724 c 0
 543.645507812 724 570.645507812 718 597.645507812 705 c 0
 612.645507812 698 623.645507812 692 631.645507812 687 c 0
EndSplineSet
Validated: 524289
EndChar

StartChar: H
Encoding: 72 72 50
Width: 590
GlyphClass: 2
Flags: HMW
HStem: 312 62<233.897 276.397 233.897 276.397>
LayerCount: 2
Fore
SplineSet
233.896484375 312 m 1
 231.896484375 304 229.896484375 297 228.896484375 293 c 0
 227.896484375 289 225.896484375 285 225.896484375 282 c 0
 206.896484375 215 186.896484375 126 164.896484375 15 c 0
 160.896484375 4 153.896484375 -5 143.896484375 -12 c 0
 133.896484375 -19 122.896484375 -22 113.896484375 -22 c 0
 112.896484375 -22 110.896484375 -21 110.896484375 -21 c 2
 103.896484375 -21 97.896484375 -18 93.896484375 -13 c 0
 91.896484375 -11 90.896484375 -7 90.896484375 -2 c 0
 90.896484375 3 91.896484375 8 93.896484375 14 c 0
 98.896484375 31 109.896484375 76 126.896484375 148 c 0
 135.896484375 186 149.896484375 248 171.896484375 334 c 0
 182.896484375 376 190.896484375 407 195.896484375 428 c 0
 200.896484375 449 206.896484375 479 215.896484375 520 c 0
 222.896484375 554 227.896484375 573 227.896484375 577 c 0
 229.896484375 586 231.896484375 597 235.896484375 612 c 0
 239.896484375 627 241.896484375 638 243.896484375 645 c 0
 247.896484375 660 254.896484375 672 262.896484375 679 c 0
 270.896484375 686 279.896484375 690 288.896484375 690 c 1
 288.896484375 682 290.896484375 682 290.896484375 690 c 1
 298.896484375 690 304.896484375 688 308.896484375 683 c 0
 310.896484375 680 312.896484375 675 312.896484375 670 c 0
 312.896484375 665 311.896484375 659 310.896484375 653 c 0
 309.896484375 647 304.896484375 633 298.896484375 611 c 0
 292.896484375 589 287.896484375 569 283.896484375 550 c 0
 279.896484375 531 274.896484375 506 267.896484375 470 c 0
 260.896484375 434 254.896484375 402 247.896484375 373 c 1
 252.896484375 366 255.896484375 366 260.896484375 374 c 1
 291.896484375 374 323.896484375 375 356.896484375 379 c 0
 389.896484375 383 418.896484375 388 445.896484375 392 c 0
 472.896484375 396 493.896484375 399 508.896484375 400 c 1
 510.896484375 411 512.896484375 421 513.896484375 430 c 0
 514.896484375 439 517.896484375 445 518.896484375 450 c 0
 524.896484375 470 529.896484375 497 535.896484375 533 c 0
 538.896484375 546 544.896484375 566 551.896484375 594 c 0
 558.896484375 622 564.896484375 639 565.896484375 645 c 0
 569.896484375 660 575.896484375 672 584.896484375 679 c 0
 593.896484375 686 601.896484375 690 610.896484375 690 c 1
 610.896484375 682 612.896484375 682 613.896484375 690 c 1
 622.896484375 690 629.896484375 688 633.896484375 683 c 0
 635.896484375 680 637.896484375 675 637.896484375 670 c 0
 637.896484375 665 636.896484375 657 634.896484375 648 c 0
 632.896484375 639 626.896484375 616 616.896484375 576 c 0
 606.896484375 536 598.896484375 502 591.896484375 472 c 0
 584.896484375 442 575.896484375 399 563.896484375 343 c 0
 554.896484375 297 539.896484375 236 519.896484375 161 c 0
 500.896484375 85 489.896484375 36 484.896484375 15 c 0
 481.896484375 4 474.896484375 -5 465.896484375 -12 c 0
 456.896484375 -19 447.896484375 -22 438.896484375 -22 c 0
 437.896484375 -22 435.896484375 -21 435.896484375 -21 c 2
 428.896484375 -21 422.896484375 -18 419.896484375 -13 c 0
 418.896484375 -11 416.896484375 -7 416.896484375 -2 c 0
 416.896484375 3 417.896484375 8 419.896484375 14 c 0
 445.896484375 107 469.896484375 211 493.896484375 327 c 1
 493.896484375 325 496.896484375 330 497.896484375 343 c 1
 492.896484375 334 487.896484375 334 482.896484375 342 c 1
 472.896484375 342 435.896484375 337 373.896484375 327 c 0
 311.896484375 317 265.896484375 312 240.896484375 312 c 2
 233.896484375 312 l 1
EndSplineSet
Validated: 524289
EndChar

StartChar: I
Encoding: 73 73 51
Width: 590
GlyphClass: 2
Flags: HMW
HStem: -14 56<103.327 126.327> -6 53<355.828 357.827 333.327 372.828> 625 59<268.827 270.327 270.327 275.327 268.827 313.327>
LayerCount: 2
Fore
SplineSet
396.327148438 -7 m 0x60
 392.327148438 -7 381.328125 -6 364.328125 -6 c 0
 347.328125 -6 325.328125 -7 296.328125 -8 c 1
 275.583984375 -13.333984375 254.83984375 -16.208984375 234.095703125 -16.208984375 c 2
 191.327148438 -12 l 1
 151.327148438 -13 124.327148438 -14 110.327148438 -14 c 0xa0
 96.3271484375 -14 88.3271484375 -12 84.3271484375 -8 c 0
 82.3271484375 -6 81.3271484375 -2 81.3271484375 1 c 0
 81.3271484375 3 82.3271484375 6 82.3271484375 8 c 0
 83.3271484375 17 87.3271484375 26 94.3271484375 32 c 0
 101.327148438 38 113.327148438 42 126.327148438 42 c 0
 153.327148438 43 200.327148438 45 268.327148438 47 c 1x60
 300.327148438 166 328.327148438 290 353.327148438 418 c 0
 359.327148438 448 362.327148438 465 362.327148438 470 c 0
 364.327148438 481 369.327148438 501 376.327148438 532 c 0
 378.327148438 541 381.327148438 555 386.327148438 575 c 0
 391.327148438 595 396.327148438 607 396.327148438 610 c 1
 396.327148438 607 398.327148438 611 399.327148438 624 c 1
 363.327148438 624 334.327148438 625 313.327148438 625 c 2
 270.327148438 625 l 2
 262.327148438 625 256.327148438 624 256.327148438 624 c 2
 246.327148438 624 239.327148438 626 236.327148438 631 c 0
 234.327148438 633 233.327148438 637 233.327148438 642 c 2
 233.327148438 649 l 2
 234.327148438 658 239.327148438 666 246.327148438 673 c 0
 253.327148438 680 262.327148438 684 275.327148438 684 c 0
 324.327148438 685 369.327148438 686 411.327148438 686 c 0
 494.327148438 686 564.327148438 683 622.327148438 676 c 0
 630.327148438 676 636.327148438 673 640.327148438 670 c 0
 644.327148438 667 646.327148438 663 646.327148438 657 c 0
 646.327148438 655 645.327148438 652 645.327148438 650 c 0
 643.327148438 641 637.327148438 631 629.327148438 622 c 0
 626.327148438 618 622.327148438 615 617.327148438 613 c 0
 614.327148438 612 611.327148438 611 609.327148438 611 c 0
 607.327148438 611 606.327148438 612 604.327148438 612 c 0
 587.327148438 614 539.327148438 618 462.327148438 623 c 1
 457.327148438 596 453.327148438 578 449.327148438 568 c 0
 433.327148438 504 418.327148438 436 405.327148438 365 c 0
 396.327148438 318 383.327148438 258 366.327148438 188 c 0
 349.327148438 118 338.327148438 71 333.327148438 47 c 1
 346.327148438 47 l 2
 369.327148438 47 416.327148438 46 485.327148438 46 c 0
 494.327148438 46 501.327148438 44 502.327148438 42 c 0xa0
 503.327148438 40 504.327148438 36 504.327148438 31 c 2
 504.327148438 23 l 2
 502.327148438 13 497.327148438 5 492.327148438 -2 c 0
 490.327148438 -6 487.327148438 -8 484.327148438 -9 c 0
 481.327148438 -10 478.327148438 -12 476.327148438 -12 c 0
 474.327148438 -12 471.327148438 -11 469.327148438 -11 c 0
 454.327148438 -9 431.327148438 -7 396.327148438 -7 c 0x60
EndSplineSet
Validated: 524289
EndChar

StartChar: J
Encoding: 74 74 52
Width: 590
GlyphClass: 2
Flags: HMW
HStem: -35 77<269.767 277.267> 611 65<610.767 628.767> 625 59<273.767 277.767 277.767 279.767 273.767 335.767>
VStem: 112.767 63<150 170.5 159.5 161.5>
LayerCount: 2
Fore
SplineSet
300.766601562 52 m 0xb0
 306.766601562 59 312.766601562 69 319.766601562 83 c 0
 332.766601562 112 347.766601562 159 362.766601562 224 c 0
 365.766601562 237 376.766601562 284 392.766601562 366 c 0
 408.766601562 445 425.766601562 531 446.766601562 623 c 1
 399.766601562 625 363.766601562 625 335.766601562 625 c 2
 277.766601562 625 l 2
 266.766601562 625 261.766601562 624 261.766601562 624 c 2
 251.766601562 624 244.766601562 626 241.766601562 631 c 0
 239.766601562 633 236.766601562 637 236.766601562 642 c 0
 236.766601562 644 237.766601562 647 237.766601562 649 c 0
 238.766601562 658 243.766601562 666 250.766601562 673 c 0
 257.766601562 680 267.766601562 684 279.766601562 684 c 0
 328.766601562 685 373.766601562 686 414.766601562 686 c 0
 496.766601562 686 566.766601562 683 624.766601562 676 c 0xd0
 632.766601562 676 638.766601562 673 642.766601562 670 c 0
 646.766601562 667 647.766601562 663 647.766601562 657 c 0
 647.766601562 655 646.766601562 652 646.766601562 650 c 0
 644.766601562 641 639.766601562 631 631.766601562 622 c 0
 627.766601562 618 624.766601562 615 619.766601562 613 c 0
 617.766601562 612 613.766601562 611 611.766601562 611 c 0
 609.766601562 611 606.766601562 612 604.766601562 612 c 0
 583.766601562 615 549.766601562 619 498.766601562 621 c 1
 492.766601562 595 485.766601562 563 478.766601562 523 c 0
 472.766601562 479 465.766601562 443 458.766601562 416 c 0
 452.766601562 384 445.766601562 349 437.766601562 309 c 0
 429.766601562 269 421.766601562 235 413.766601562 206 c 0
 396.766601562 146 378.766601562 98 361.766601562 62 c 0
 344.766601562 26 329.766601562 0 314.766601562 -14 c 0
 299.766601562 -28 284.766601562 -35 269.766601562 -35 c 0
 251.766601562 -35 233.766601562 -31 217.766601562 -24 c 0
 200.766601562 -17 186.766601562 -7 175.766601562 5 c 0
 164.766601562 17 154.766601562 31 145.766601562 46 c 0
 136.766601562 61 130.766601562 76 125.766601562 91 c 0
 120.766601562 106 116.766601562 118 115.766601562 129 c 0
 114.766601562 140 112.766601562 146 112.766601562 150 c 2
 112.766601562 159 l 2
 112.766601562 164 114.766601562 170 116.766601562 177 c 0
 118.766601562 184 121.766601562 191 124.766601562 197 c 0
 127.766601562 203 131.766601562 209 137.766601562 213 c 0
 143.766601562 217 150.766601562 221 157.766601562 222 c 0
 160.766601562 222 163.766601562 223 165.766601562 223 c 0
 170.766601562 223 174.766601562 221 176.766601562 218 c 0
 178.766601562 215 180.766601562 210 180.766601562 205 c 0
 180.766601562 203 179.766601562 199 179.766601562 196 c 0
 177.766601562 187 175.766601562 176 175.766601562 165 c 0
 175.766601562 154 177.766601562 142 180.766601562 128 c 0
 183.766601562 114 188.766601562 100 195.766601562 87 c 0
 202.766601562 74 214.766601562 64 229.766601562 55 c 0
 243.766601562 46 259.766601562 42 279.766601562 42 c 0
 286.766601562 42 294.766601562 45 300.766601562 52 c 0xb0
EndSplineSet
Validated: 524289
EndChar

StartChar: K
Encoding: 75 75 53
Width: 590
GlyphClass: 2
Flags: HMW
HStem: -22 21G<116.563 122.063> 695 20G<603.062 606.062>
LayerCount: 2
Fore
SplineSet
94.0634765625 10 m 0
 94.0634765625 13 95.0625 18 97.0625 23 c 0
 106.0625 53 119.0625 110 138.0625 193 c 0
 156.0625 277 173.0625 363 191.0625 452 c 0
 200.0625 496 207.0625 526 210.0625 541 c 0
 212.0625 556 218.0625 578 225.0625 607 c 0
 232.0625 635 237.0625 653 238.0625 660 c 0
 242.0625 678 248.0625 691 256.0625 700 c 0
 264.0625 709 272.0625 714 281.0625 714 c 1
 282.0625 722 284.0625 722 284.0625 714 c 1
 292.0625 714 298.0625 711 302.0625 703 c 0
 304.0625 698 305.0625 692 305.0625 683 c 0
 305.0625 678 304.0625 674 303.0625 669 c 0
 300.0625 653 292.0625 618 279.0625 564 c 0
 266.0625 509 253.0625 452 240.0625 391 c 1
 382.0625 530 l 2
 423.0625 573 463.0625 611 505.0625 642 c 0
 538.0625 670 559.0625 688 568.0625 695 c 0
 577.0625 704 586.0625 710 593.0625 712 c 0
 598.0625 714 602.0625 715 604.0625 715 c 0
 608.0625 715 612.0625 711 615.0625 703 c 0
 617.0625 698 618.0625 692 618.0625 685 c 0
 618.0625 676 609.0625 665 592.0625 651 c 0
 580.0625 639 540.0625 603 471.0625 542 c 1
 407.0625 478 347.0625 419 292.0625 366 c 1
 297.0625 357 l 2
 311.0625 334 336.0625 296 372.0625 245 c 0
 408.0625 191 438.0625 145 463.0625 106 c 0
 488.041015625 71.0302734375 503.041992188 48.0400390625 505.063476562 39.0234375 c 0
 504.948242188 28.3505859375 502.916015625 17.7333984375 498.063476562 9 c 0
 494.063476562 0 489.063476562 -8 482.063476562 -13 c 0
 475.063476562 -18 470.063476562 -21 465.063476562 -21 c 0
 457.063476562 -21 450.063476562 -13 444.063476562 4 c 0
 440.063476562 13 424.063476562 36 397.063476562 73 c 0
 370.063476562 110 341.063476562 152 310.063476562 196 c 0
 279.063476562 245 257.063476562 283 244.063476562 310 c 2
 230.063476562 337 l 1
 219.063476562 286 l 1
 168.063476562 24 l 2
 164.063476562 9 157.063476562 -2 147.063476562 -10 c 0
 137.063476562 -18 127.063476562 -22 117.063476562 -22 c 0
 116.063476562 -22 114.063476562 -21 114.063476562 -21 c 2
 106.063476562 -21 100.063476562 -17 97.0634765625 -8 c 0
 95.0634765625 -3 94.0634765625 3 94.0634765625 10 c 0
EndSplineSet
Validated: 524289
EndChar

StartChar: L
Encoding: 76 76 54
Width: 590
GlyphClass: 2
Flags: HMW
HStem: -15 62.9962
LayerCount: 2
Fore
SplineSet
507.440429688 72 m 0
 510.440429688 63 511.439453125 54 510.439453125 44 c 0
 508.439453125 35 503.439453125 27 498.439453125 22 c 0
 493.439453125 17 483.439453125 12 469.439453125 10 c 0
 426.439453125 1 366.439453125 -5 289.439453125 -9 c 0
 210.439453125 -13 150.439453125 -15 110.439453125 -15 c 0
 102.439453125 -15 96.439453125 -12 93.439453125 -7 c 0
 91.439453125 -5 90.439453125 -1 90.439453125 4 c 0
 90.439453125 9 91.439453125 14 93.439453125 20 c 0
 106.439453125 51 118.439453125 89 131.439453125 135 c 0
 154.439453125 206 175.439453125 275 193.439453125 341 c 0
 202.439453125 372 214.439453125 427 229.439453125 506 c 0
 244.439453125 585 252.439453125 629 253.439453125 636 c 0
 257.439453125 652 263.439453125 664 271.439453125 671 c 0
 279.439453125 678 287.439453125 682 295.439453125 682 c 1
 296.439453125 674 298.439453125 674 298.439453125 682 c 1
 305.439453125 682 311.439453125 679 315.439453125 674 c 0
 317.439453125 672 318.439453125 668 318.439453125 662 c 0
 318.439453125 656 317.439453125 650 316.439453125 645 c 0
 312.439453125 626 307.439453125 600 299.439453125 567 c 0
 290.439453125 517 280.439453125 475 270.439453125 441 c 0
 259.439453125 389 249.439453125 345 239.439453125 309 c 0
 233.439453125 281 223.439453125 240 208.439453125 187 c 0
 192.439453125 134 181.439453125 92 174.439453125 62 c 0
 173.8515625 54.35546875 172.91796875 49.8232421875 172.044921875 47.99609375 c 1
 186.0859375 47.9287109375 194.62109375 47 199.440429688 47 c 0
 243.440429688 47 295.440429688 51 355.440429688 58 c 0
 419.440429688 65 465.440429688 72 490.440429688 78 c 1
 497.440429688 78 l 2
 502.440429688 78 505.440429688 76 507.440429688 72 c 0
EndSplineSet
Validated: 524289
EndChar

StartChar: M
Encoding: 77 77 55
Width: 590
GlyphClass: 2
Flags: HMW
HStem: 664 20G
VStem: 89.7354 1<-14.5 -10> 466.736 62<39 84 51.5 71>
LayerCount: 2
Fore
SplineSet
286.736328125 -7 m 1
 279.736328125 -7 274.736328125 -5 271.736328125 -1 c 0
 268.736328125 4 265.736328125 11 265.736328125 19 c 0
 265.736328125 51 270.736328125 124 279.736328125 239 c 0
 288.736328125 354 296.736328125 464 305.736328125 570 c 0
 307.736328125 610 312.736328125 648 315.736328125 684 c 1
 305.736328125 651 294.736328125 616 283.736328125 578 c 0
 268.736328125 529 253.736328125 470 235.736328125 403 c 0
 225.736328125 364 212.736328125 316 196.736328125 257 c 0
 187.736328125 224 178.736328125 194 170.736328125 167 c 0
 160.736328125 137 152.736328125 113 147.736328125 95 c 0
 142.736328125 78 137.736328125 65 136.736328125 58 c 0
 132.736328125 37 125.736328125 20 115.736328125 8 c 0
 106.736328125 -4 99.736328125 -10 90.736328125 -10 c 1
 90.736328125 -19 89.736328125 -19 89.736328125 -10 c 1
 88.736328125 -10 86.736328125 -8 85.736328125 -7 c 0
 81.736328125 -5 78.736328125 6 78.736328125 25 c 0
 78.736328125 33 81.736328125 44 84.736328125 58 c 0
 86.736328125 66 89.736328125 79 95.736328125 98 c 0
 101.736328125 118 110.736328125 144 121.736328125 178 c 0
 132.736328125 214 142.736328125 241 147.736328125 260 c 2
 194.736328125 412 l 2
 202.736328125 441 211.736328125 477 224.736328125 519 c 0
 248.736328125 601 266.736328125 649 277.736328125 666 c 0
 284.736328125 679 292.736328125 689 303.736328125 695 c 0
 314.736328125 701 324.736328125 704 332.736328125 704 c 2
 336.736328125 704 l 1
 337.736328125 704 l 2
 346.736328125 704 353.736328125 702 358.736328125 697 c 0
 363.736328125 691 364.736328125 681 364.736328125 667 c 2
 364.736328125 659 l 2
 364.736328125 606 353.736328125 483 331.736328125 291 c 0
 321.736328125 198 315.736328125 137 313.736328125 107 c 1
 320.736328125 97 328.736328125 95 335.736328125 102 c 1
 361.736328125 201 385.736328125 289 408.736328125 368 c 0
 425.736328125 425 444.736328125 482 465.736328125 539 c 0
 486.736328125 595 502.736328125 638 516.736328125 668 c 0
 520.736328125 678 526.736328125 686 533.736328125 692 c 0
 541.736328125 698 548.736328125 702 554.736328125 703 c 0
 560.736328125 703 566.736328125 704 569.736328125 704 c 2
 577.736328125 704 l 1
 581.736328125 704 l 1
 593.736328125 704 l 2
 595.736328125 704 600.736328125 703 604.736328125 702 c 0
 608.736328125 700 611.736328125 697 612.736328125 695 c 0
 613.736328125 693 614.736328125 689 615.736328125 683 c 0
 616.736328125 679 617.736328125 674 617.736328125 668 c 2
 617.736328125 665 l 2
 615.736328125 644 600.736328125 546 571.736328125 370 c 0
 543.736328125 195 528.736328125 96 528.736328125 72 c 0
 528.736328125 31 517.736328125 6 497.736328125 -4 c 0
 493.736328125 -6 490.736328125 -7 487.736328125 -7 c 0
 484.736328125 -7 479.736328125 -5 476.736328125 -2 c 0
 469.736328125 3 466.736328125 17 466.736328125 39 c 2
 466.736328125 44 l 2
 466.736328125 98 499.736328125 294 564.736328125 632 c 1
 557.736328125 642 548.736328125 644 540.736328125 639 c 1
 500.736328125 537 470.736328125 446 448.736328125 363 c 0
 426.736328125 286 404.736328125 212 381.736328125 143 c 0
 358.736328125 74 343.736328125 32 335.736328125 17 c 0
 328.736328125 1 312.736328125 -7 290.736328125 -7 c 1
 289.736328125 -15 287.736328125 -15 286.736328125 -7 c 1
EndSplineSet
Validated: 524289
EndChar

StartChar: N
Encoding: 78 78 56
Width: 590
GlyphClass: 2
Flags: HMW
HStem: -12 21G<102.241 108.741> 685 20G<286.741 289.741 616.741 623.741>
LayerCount: 2
Fore
SplineSet
533.241210938 190 m 0
 519.241210938 133 508.241210938 90 500.241210938 63 c 0
 491.241210938 35 485.241210938 18 482.241210938 11 c 0
 475.241210938 -6 461.241210938 -14 439.241210938 -14 c 1
 438.241210938 -22 436.241210938 -22 435.241210938 -14 c 1
 428.241210938 -14 423.241210938 -12 420.241210938 -7 c 0
 416.241210938 -2 413.241210938 5 413.241210938 13 c 0
 411.241210938 26 404.241210938 56 391.241210938 101 c 2
 352.241210938 246 l 2
 339.241210938 295 325.241210938 349 312.241210938 410 c 0
 299.241210938 471 291.241210938 523 287.241210938 565 c 0
 285.241210938 595 281.241210938 624 279.241210938 653 c 1
 274.241210938 626 269.241210938 597 264.241210938 567 c 0
 252.241210938 494 239.241210938 425 225.241210938 362 c 0
 210.241210938 298 194.241210938 233 177.241210938 167 c 0
 160.241210938 103 150.241210938 63 148.241210938 49 c 0
 145.241210938 27 138.241210938 11 129.241210938 2 c 0
 121.241210938 -7 113.241210938 -12 104.241210938 -12 c 0
 100.241210938 -12 97.2412109375 -10 95.2412109375 -8 c 0
 93.2412109375 -6 91.2412109375 3 91.2412109375 17 c 0
 91.2412109375 25 93.2412109375 35 96.2412109375 48 c 0
 98.2412109375 62 112.241210938 114 134.241210938 204 c 2
 193.241210938 443 l 2
 209.241210938 512 223.241210938 578 234.241210938 640 c 0
 236.241210938 653 239.241210938 664 244.241210938 673 c 0
 248.241210938 683 253.241210938 690 259.241210938 695 c 0
 266.241210938 699 271.241210938 702 276.241210938 703 c 0
 281.241210938 704 285.241210938 705 288.241210938 705 c 0
 291.241210938 705 295.241210938 704 297.241210938 704 c 0
 306.241210938 704 313.241210938 702 318.241210938 697 c 0
 322.241210938 692 325.241210938 682 325.241210938 668 c 0
 327.241210938 625 344.241210938 543 374.241210938 422 c 0
 403.241210938 301 429.241210938 204 451.241210938 130 c 0
 455.241210938 115 459.241210938 102 463.241210938 92 c 1
 466.241210938 103 470.241210938 116 473.241210938 132 c 0
 488.241210938 195 509.241210938 288 534.241210938 409 c 0
 561.241210938 530 576.241210938 609 580.241210938 649 c 0
 582.241210938 664 587.241210938 677 595.241210938 688 c 0
 604.241210938 699 612.241210938 705 621.241210938 705 c 0
 626.241210938 705 631.241210938 704 633.241210938 703 c 0
 635.241210938 702 638.241210938 700 639.241210938 698 c 0
 640.241210938 693 641.241210938 685 641.241210938 673 c 0
 641.241210938 671 640.241210938 664 639.241210938 654 c 0
 639.241210938 643 627.241210938 590 605.241210938 495 c 0
 584.241210938 397 560.241210938 295 533.241210938 190 c 0
EndSplineSet
Validated: 524289
EndChar

StartChar: O
Encoding: 79 79 57
Width: 590
GlyphClass: 2
Flags: HMW
HStem: -24 72<269.379 270.379> 649 44<443.379 444.879>
VStem: 128.379 70<138.5 181.5> 535.379 65<517 533 517 534>
LayerCount: 2
Fore
SplineSet
575.37890625 367 m 0
 567.37890625 329 557.37890625 291 546.37890625 252 c 0
 535.37890625 213 524.37890625 183 513.37890625 161 c 0
 499.37890625 130 484.37890625 104 468.37890625 82 c 0
 453.37890625 61 437.37890625 43 422.37890625 29 c 0
 407.37890625 15 391.37890625 5 373.37890625 -3 c 0
 355.37890625 -11 337.37890625 -17 319.37890625 -20 c 0
 301.37890625 -23 281.37890625 -24 259.37890625 -24 c 0
 226.37890625 -24 197.37890625 -12 175.37890625 10 c 0
 153.37890625 32 138.37890625 62 131.37890625 101 c 0
 129.37890625 116 128.37890625 131 128.37890625 146 c 0
 128.37890625 161 132.37890625 189 139.37890625 231 c 0
 140.37890625 234 142.37890625 240 143.37890625 248 c 0
 150.37890625 278 155.37890625 302 160.37890625 320 c 0
 165.37890625 338 171.37890625 362 180.37890625 392 c 0
 197.37890625 448 219.37890625 501 248.37890625 551 c 0
 270.37890625 593 300.37890625 627 340.37890625 653 c 0
 380.37890625 679 422.37890625 693 464.37890625 693 c 0
 485.37890625 693 505.37890625 688 524.37890625 679 c 0
 543.37890625 670 558.37890625 657 571.37890625 639 c 0
 584.37890625 621 592.37890625 598 597.37890625 570 c 0
 599.37890625 556 600.37890625 541 600.37890625 525 c 0
 600.37890625 509 598.37890625 492 596.37890625 473 c 0
 591.37890625 440 583.37890625 405 575.37890625 367 c 0
324.37890625 55 m 0
 340.37890625 60 356.37890625 67 372.37890625 77 c 0
 388.37890625 87 402.37890625 101 416.37890625 118 c 0
 430.37890625 135 442.37890625 154 453.37890625 176 c 0
 458.37890625 184 465.37890625 204 474.37890625 237 c 0
 483.37890625 269 494.37890625 307 505.37890625 351 c 0
 516.37890625 395 525.37890625 439 532.37890625 481 c 0
 534.37890625 494 535.37890625 507 535.37890625 519 c 0
 535.37890625 549 530.37890625 576 517.37890625 598 c 0
 506.37890625 617 493.37890625 630 477.37890625 639 c 0
 466.37890625 646 452.37890625 649 437.37890625 649 c 0
 404.37890625 649 373.37890625 635 345.37890625 606 c 0
 318.37890625 579 295.37890625 541 275.37890625 492 c 0
 248.37890625 428 226.37890625 352 209.37890625 265 c 0
 202.37890625 225 198.37890625 194 198.37890625 169 c 0
 198.37890625 140 202.37890625 116 209.37890625 97 c 0
 214.37890625 83 223.37890625 71 235.37890625 62 c 0
 247.37890625 53 261.37890625 48 277.37890625 48 c 0
 293.37890625 48 308.37890625 50 324.37890625 55 c 0
EndSplineSet
Validated: 524289
EndChar

StartChar: P
Encoding: 80 80 58
Width: 590
GlyphClass: 2
Flags: HMW
HStem: 230 69<304.42 327.42 302.42 340.42> 642 45<405.92 451.42>
VStem: 237.92 3 533.92 62<538.5 539.5>
LayerCount: 2
Fore
SplineSet
298.919921875 633 m 1
 294.919921875 614 288.919921875 587 279.919921875 551 c 0
 270.919921875 515 261.919921875 478 253.919921875 440 c 0
 245.919921875 402 236.919921875 361 227.919921875 319 c 1
 236.919921875 315 l 2
 258.919921875 304 285.919921875 299 318.919921875 299 c 0
 335.919921875 299 350.919921875 301 365.919921875 304 c 0
 380.919921875 307 393.919921875 311 405.919921875 316 c 0
 417.919921875 321 427.919921875 328 437.919921875 336 c 0
 447.919921875 344 457.919921875 352 464.919921875 360 c 0
 471.919921875 368 478.919921875 378 485.919921875 389 c 0
 492.919921875 400 497.919921875 409 501.919921875 418 c 0
 505.919921875 427 509.919921875 437 513.919921875 448 c 0
 517.919921875 459 521.919921875 469 523.919921875 476 c 0
 525.919921875 483 528.919921875 493 530.919921875 504 c 0
 532.919921875 515 533.919921875 526 533.919921875 535 c 0
 533.919921875 544 533.919921875 551 532.919921875 558 c 0
 529.919921875 575 522.919921875 588 513.919921875 599 c 0
 504.919921875 610 495.919921875 618 482.919921875 625 c 0
 471.919921875 632 459.919921875 637 448.919921875 639 c 0
 437.919921875 641 426.919921875 642 415.919921875 642 c 0
 395.919921875 642 357.919921875 639 298.919921875 633 c 1
136.919921875 141 m 0
 143.919921875 163 149.920898438 193 155.920898438 231 c 0
 162.920898438 258 170.920898438 294 177.920898438 337 c 0
 186.920898438 379 192.920898438 414 198.920898438 442 c 0
 209.706054688 490.04296875 223.375 547.69921875 239.927734375 614.96875 c 0
 239.279296875 615.579101562 238.456054688 618.640625 237.919921875 624 c 1
 236.919921875 617 234.919921875 619 234.919921875 628 c 0
 234.919921875 630 233.919921875 632 233.919921875 634 c 0
 233.919921875 636 234.919921875 640 235.919921875 642 c 0
 237.919921875 649 240.919921875 655 245.919921875 660 c 0
 250.919921875 665 255.919921875 668 259.919921875 669 c 0
 280.919921875 674 310.919921875 679 350.919921875 682 c 0
 390.919921875 685 417.919921875 687 432.919921875 687 c 0
 469.919921875 687 503.919921875 680 530.919921875 665 c 0
 557.919921875 650 576.919921875 627 587.919921875 598 c 0
 593.919921875 581 595.919921875 563 595.919921875 543 c 0
 595.919921875 534 594.919921875 516 590.919921875 489 c 0
 581.919921875 453 568.919921875 420 549.919921875 388 c 0
 530.919921875 356 510.919921875 328 486.919921875 305 c 0
 464.919921875 282 438.919921875 263 410.919921875 250 c 0
 382.919921875 237 354.919921875 230 325.919921875 230 c 0
 282.919921875 230 248.919921875 233 226.919921875 240 c 1
 221.919921875 233 218.919921875 235 214.919921875 244 c 1
 207.919921875 207 202.919921875 176 198.919921875 151 c 0
 194.919921875 126 187.919921875 81 176.919921875 14 c 0
 174.919921875 4 167.919921875 -4 157.919921875 -10 c 0
 147.919921875 -16 138.919921875 -19 128.919921875 -19 c 0
 118.919921875 -19 111.919921875 -16 106.919921875 -11 c 0
 104.919921875 -9 102.919921875 -5 102.919921875 -1 c 0
 102.919921875 3 104.919921875 7 106.919921875 14 c 0
 113.919921875 42 123.919921875 84 136.919921875 141 c 0
EndSplineSet
Validated: 524289
EndChar

StartChar: Q
Encoding: 81 81 59
Width: 590
GlyphClass: 2
Flags: HMW
HStem: -39 20G -24 72 649 44
VStem: 131.617 71 303.617 46<146.5 196.5> 534.617 65
LayerCount: 2
Fore
SplineSet
307.6171875 48 m 1x7c
 321.6171875 48 l 1
 318.6171875 63 l 2
 311.6171875 92 306.6171875 115 304.6171875 132 c 0
 304.6171875 138 303.6171875 144 303.6171875 149 c 0
 303.6171875 174 310.6171875 193 325.6171875 204 c 0
 330.6171875 208 335.6171875 210 339.6171875 210 c 0
 341.6171875 210 342.6171875 210 344.6171875 208 c 0
 346.6171875 206 349.6171875 200 349.6171875 193 c 0
 351.6171875 160 360.6171875 123 372.6171875 82 c 2
 376.6171875 67 l 1
 387.6171875 75 l 2
 417.6171875 96 442.6171875 129 459.6171875 173 c 0
 464.6171875 183 470.6171875 203 478.6171875 234 c 0
 487.6171875 265 496.6171875 303 507.6171875 349 c 0
 518.6171875 395 526.6171875 439 531.6171875 481 c 0
 533.6171875 494 534.6171875 507 534.6171875 519 c 0
 534.6171875 552 528.6171875 579 515.6171875 601 c 0
 505.6171875 618 493.6171875 631 477.6171875 639 c 0
 466.6171875 646 452.6171875 649 437.6171875 649 c 0
 404.6171875 649 373.6171875 635 345.6171875 608 c 0
 317.6171875 581 295.6171875 543 275.6171875 494 c 0
 244.6171875 423 222.6171875 347 209.6171875 264 c 0
 205.6171875 240 202.6171875 218 202.6171875 197 c 0
 202.6171875 184 204.6171875 171 206.6171875 158 c 0
 211.6171875 125 220.6171875 99 236.6171875 79 c 0
 253.6171875 58 273.6171875 48 298.6171875 48 c 2
 307.6171875 48 l 1x7c
416.6171875 -211 m 0
 409.6171875 -209 404.618164062 -203.999023438 401.618164062 -194.999023438 c 0
 396.618164062 -182.999023438 387.618164062 -159.999023438 375.618164062 -127.999023438 c 0
 363.618164062 -95.9990234375 351.618164062 -59.9990234375 338.618164062 -18.9990234375 c 1xbc
 336.618164062 -27.9990234375 331.618164062 -27.9990234375 328.618164062 -20.9990234375 c 1
 313.618164062 -22.9990234375 297.618164062 -23.9990234375 280.618164062 -23.9990234375 c 0
 257.618164062 -23.9990234375 236.618164062 -19.9990234375 216.618164062 -10.9990234375 c 0
 196.618164062 -1.9990234375 181.618164062 10.0009765625 169.618164062 25.0009765625 c 0
 157.618164062 40.0009765625 147.618164062 60.0009765625 140.618164062 81.0009765625 c 0
 133.618164062 102.000976562 131.618164062 126.000976562 131.618164062 152.000976562 c 0
 131.618164062 178.000976562 133.618164062 205.000976562 138.618164062 232.000976562 c 0
 163.618164062 360.000976562 201.618164062 465.000976562 248.618164062 547.000976562 c 0
 270.618164062 589.000976562 301.618164062 623.000976562 341.618164062 651.000976562 c 0
 381.618164062 679.000976562 422.618164062 693.000976562 464.618164062 693.000976562 c 0
 509.618164062 693.000976562 544.618164062 677.000976562 569.618164062 644.000976562 c 0
 582.618164062 627.000976562 590.618164062 605.000976562 595.618164062 576.000976562 c 0
 597.618164062 561.000976562 599.618164062 545.000976562 599.618164062 528.000976562 c 0
 599.618164062 511.000976562 597.618164062 493.000976562 595.618164062 473.000976562 c 0
 589.618164062 427.000976562 578.618164062 372.000976562 562.618164062 307.000976562 c 0
 546.618164062 242.000976562 529.618164062 191.000976562 514.618164062 155.000976562 c 0
 486.618164062 86.0009765625 449.618164062 36.0009765625 402.618164062 7.0009765625 c 1
 400.044921875 -1.5751953125 396.736328125 -4.267578125 394.584960938 -0.4453125 c 1
 411.262695312 -42.5927734375 427.958984375 -83.77734375 445.6171875 -124 c 0
 450.6171875 -144 456.6171875 -155 461.6171875 -158 c 0
 461.6171875 -160 462.6171875 -163 462.6171875 -165 c 0
 462.6171875 -167 462.6171875 -170 461.6171875 -173 c 0
 459.6171875 -180 454.6171875 -187 449.6171875 -193 c 0
 444.6171875 -199 441.6171875 -205 437.6171875 -207 c 0
 432.6171875 -210 427.6171875 -212 422.6171875 -212 c 0
 420.6171875 -212 418.6171875 -211 416.6171875 -211 c 0
EndSplineSet
Validated: 524289
EndChar

StartChar: R
Encoding: 82 82 60
Width: 590
GlyphClass: 2
Flags: HMW
VStem: 124.886 1<-21 -19> 304.886 3 307.886 4<682 682> 533.886 64<459.5 483>
LayerCount: 2
Fore
SplineSet
461.885742188 -17 m 0xd0
 455.885742188 -15 450.885742188 -9 446.885742188 0 c 0
 439.885742188 15 430.885742188 32 417.885742188 53 c 0
 404.885742188 74 389.885742188 97 370.885742188 122 c 0
 351.885742188 147 330.885742188 172 304.885742188 197 c 0
 278.885742188 222 253.885742188 242 227.885742188 257 c 0
 226.182617188 255.296875 224.595703125 254.40625 223.045898438 254.40625 c 0
 220.044921875 254.40625 217.182617188 257.74609375 213.885742188 265 c 1
 213.885742188 253.838867188 212.411132812 248.57421875 211.361328125 248.57421875 c 0
 211.188476562 248.57421875 211.02734375 248.716796875 210.885742188 249 c 1
 203.885742188 210 195.885742188 165 188.885742188 112 c 0
 181.885742188 59 177.885742188 27 175.885742188 14 c 0
 173.885742188 4 167.885742188 -4 157.885742188 -10 c 0
 147.885742188 -16 138.885742188 -19 127.885742188 -19 c 2
 125.885742188 -19 l 1
 125.885742188 -23 125.635742188 -25 125.385742188 -25 c 0
 125.135742188 -25 124.885742188 -23 124.885742188 -19 c 1
 115.885742188 -19 108.885742188 -16 104.885742188 -11 c 0
 103.885742188 -9 101.885742188 -5 101.885742188 -1 c 0
 101.885742188 3 102.885742188 8 104.885742188 14 c 0
 115.885742188 49 123.885742188 79 129.885742188 104 c 0
 135.885742188 129 149.885742188 189 170.885742188 284 c 0
 172.885742188 298 179.885742188 325 190.885742188 365 c 0
 201.885742188 407 211.885742188 446 218.885742188 483 c 0
 222.885742188 505 226.885742188 537 232.885742188 576 c 0
 238.885742188 615 242.885742188 638 244.885742188 645 c 1
 192.922851562 468.625 166.922851562 380.375 166.885742188 380.375 c 1
 166.885742188 380.375 192.848632812 468.875 244.885742188 646 c 1
 244.885742188 643.215820312 245.043945312 641.85546875 245.234375 641.85546875 c 0
 245.522460938 641.85546875 245.885742188 644.9765625 245.885742188 651 c 0
 246.885742188 661 251.885742188 670 260.885742188 678 c 0
 267.885742188 686 276.885742188 690 286.885742188 690 c 0
 295.885742188 690 301.885742188 688 304.885742188 685 c 0
 305.448242188 679.9375 306.327148438 677.40625 306.98828125 677.40625 c 0
 307.502929688 677.40625 307.885742188 678.9375 307.885742188 682 c 1
 308.385742188 678 309.135742188 676 309.885742188 676 c 0
 310.635742188 676 311.385742188 678 311.885742188 682 c 1xb0
 355.885742188 680 396.885742188 672 431.885742188 661 c 0
 466.885742188 649 496.885742188 635 518.885742188 619 c 0
 540.885742188 603 559.885742188 584 572.885742188 563 c 0
 585.885742188 542 594.885742188 523 596.885742188 502 c 0
 596.885742188 495 597.885742188 487 597.885742188 479 c 0
 597.885742188 466 595.885742188 453 593.885742188 440 c 0
 586.885742188 409 573.885742188 383 553.885742188 363 c 0
 544.885742188 354 533.885742188 345 520.885742188 337 c 0
 507.885742188 329 494.885742188 323 480.885742188 318 c 0
 467.885742188 313 452.885742188 308 435.885742188 304 c 0
 418.885742188 300 402.885742188 295 385.885742188 293 c 0
 368.885742188 291 349.885742188 289 328.885742188 287 c 1
 322.698242188 281.9375 316.510742188 279.40625 310.323242188 279.40625 c 2
 295.885742188 284 l 1
 304.249023438 270.060546875 313.4765625 263.893554688 321.961914062 263.893554688 c 0
 322.607421875 263.893554688 323.249023438 263.9296875 323.885742188 264 c 0
 372.885742188 230 412.885742188 190 445.885742188 146 c 0
 479.885742188 102 500.885742188 64 507.885742188 33 c 1
 507.885742188 30 l 2
 507.885742188 22 505.885742188 15 501.885742188 8 c 0
 496.885742188 -1 489.885742188 -7 482.885742188 -12 c 0
 476.885742188 -16 471.885742188 -18 466.885742188 -18 c 0
 465.885742188 -18 463.885742188 -17 461.885742188 -17 c 0xd0
453.885742188 368 m 0
 465.885742188 372 476.885742188 377 487.885742188 384 c 0
 509.885742188 397 524.885742188 417 530.885742188 442 c 0
 532.885742188 449 533.885742188 456 533.885742188 463 c 0
 533.885742188 477 530.885742188 491 523.885742188 504 c 0
 513.885742188 524 499.885742188 540 482.885742188 554 c 0
 466.885742188 568 447.885742188 581 426.885742188 592 c 0
 386.885742188 613 348.885742188 628 308.885742188 636 c 2
 298.885742188 638 l 1
 287.885742188 581 278.885742188 535 272.885742188 500 c 0
 271.885742188 493 268.885742188 480 263.885742188 462 c 0
 258.885742188 444 248.885742188 407 231.885742188 350 c 1
 243.885742188 347 l 2
 250.885742188 346 260.885742188 345 271.885742188 345 c 2
 274.885742188 345 l 2
 276.885742188 345 286.885742188 346 305.885742188 347 c 0
 375.885742188 350 424.885742188 357 453.885742188 368 c 0
EndSplineSet
Validated: 524289
EndChar

StartChar: S
Encoding: 83 83 61
Width: 590
GlyphClass: 2
Flags: HMW
HStem: -29 62<261.911 265.911> 668 56<470.911 515.911>
VStem: 222.411 70<474 520.5> 486.411 71<234.5 287.5>
LayerCount: 2
Fore
SplineSet
125.411132812 117 m 0
 132.411132812 120 138.411132812 123 141.411132812 123 c 0
 144.411132812 123 148.411132812 124 149.411132812 124 c 2
 154.411132812 124 l 2
 155.411132812 124 157.411132812 122 159.411132812 119 c 0
 161.411132812 116 165.411132812 110 168.411132812 103 c 0
 176.411132812 82 189.411132812 65 209.411132812 52 c 0
 227.411132812 39 249.411132812 33 274.411132812 33 c 0
 289.411132812 33 305.411132812 36 322.411132812 41 c 0
 339.411132812 46 355.411132812 52 372.411132812 62 c 0
 389.411132812 72 405.411132812 84 420.411132812 97 c 0
 435.411132812 110 447.411132812 125 458.411132812 143 c 0
 469.411132812 161 477.411132812 180 481.411132812 200 c 0
 484.411132812 216 486.411132812 229 486.411132812 240 c 0
 486.411132812 259 483.411132812 275 476.411132812 290 c 0
 471.411132812 299 464.411132812 308 455.411132812 317 c 0
 446.411132812 326 436.411132812 334 423.411132812 341 c 0
 410.411132812 348 395.411132812 353 376.411132812 358 c 0
 357.411132812 363 336.411132812 368 313.411132812 371 c 0
 295.411132812 373 279.411132812 380 266.411132812 389 c 0
 253.411132812 398 244.411132812 409 237.411132812 422 c 0
 227.411132812 442 222.411132812 463 222.411132812 485 c 0
 222.411132812 492 222.411132812 499 224.411132812 508 c 0
 229.411132812 530 236.411132812 551 247.411132812 572 c 0
 258.411132812 593 272.411132812 612 289.411132812 631 c 0
 306.411132812 650 326.411132812 666 347.411132812 680 c 0
 368.411132812 694 393.411132812 704 421.411132812 712 c 0
 449.411132812 720 477.411132812 724 508.411132812 724 c 0
 523.411132812 724 545.411132812 722 572.411132812 719 c 0
 599.411132812 716 618.411132812 712 627.411132812 708 c 0
 634.411132812 706 639.411132812 701 641.411132812 694 c 0
 641.411132812 691 642.411132812 687 642.411132812 683 c 0
 642.411132812 679 641.411132812 673 639.411132812 667 c 0
 637.411132812 661 634.411132812 656 631.411132812 654 c 0
 628.411132812 652 624.411132812 649 620.411132812 649 c 0
 616.411132812 649 613.411132812 648 609.411132812 648 c 0
 605.411132812 648 601.411132812 649 596.411132812 650 c 0
 594.411132812 650 590.411132812 652 588.411132812 653 c 0
 577.411132812 656 569.411132812 660 562.411132812 661 c 0
 555.411132812 662 545.411132812 664 531.411132812 665 c 0
 517.411132812 667 501.411132812 668 484.411132812 668 c 0
 457.411132812 668 430.411132812 663 404.411132812 653 c 0
 378.411132812 643 354.411132812 628 333.411132812 608 c 0
 312.411132812 588 300.411132812 566 295.411132812 540 c 0
 293.411132812 532 292.411132812 524 292.411132812 517 c 0
 292.411132812 495 300.411132812 476 313.411132812 460 c 0
 330.411132812 439 358.411132812 428 396.411132812 426 c 0
 426.411132812 424 452.411132812 418 473.411132812 409 c 0
 494.411132812 400 511.411132812 389 522.411132812 376 c 0
 534.411132812 363 543.411132812 348 549.411132812 331 c 0
 555.411132812 314 557.411132812 296 557.411132812 279 c 0
 557.411132812 262 556.411132812 243 551.411132812 223 c 0
 544.411132812 192 533.411132812 164 518.411132812 137 c 0
 503.411132812 110 487.411132812 87 467.411132812 67 c 0
 447.411132812 47 426.411132812 30 403.411132812 15 c 0
 380.411132812 0 354.411132812 -11 329.411132812 -18 c 0
 304.411132812 -25 278.411132812 -29 253.411132812 -29 c 0
 213.411132812 -29 181.411132812 -20 154.411132812 -2 c 0
 127.411132812 16 110.411132812 36 104.411132812 60 c 0
 103.411132812 67 102.411132812 74 102.411132812 80 c 0
 102.411132812 86 104.411132812 92 106.411132812 97 c 0
 110.411132812 106 116.411132812 112 125.411132812 117 c 0
EndSplineSet
Validated: 524289
EndChar

StartChar: T
Encoding: 84 84 62
Width: 590
GlyphClass: 2
Flags: HMW
HStem: 612 64<595.9 623.4 595.9 623.4>
LayerCount: 2
Fore
SplineSet
336.900390625 303 m 0
 364.900390625 459 382.900390625 560 391.900390625 606 c 1
 391.900390625 603 393.900390625 607 394.900390625 620 c 1
 310.900390625 625 263.900390625 628 251.900390625 630 c 0
 231.900390625 633 221.900390625 640 221.900390625 649 c 0
 221.900390625 651 222.900390625 653 222.900390625 655 c 0
 223.900390625 665 229.900390625 674 238.900390625 682 c 0
 244.900390625 687 251.900390625 690 258.900390625 690 c 0
 260.900390625 690 262.900390625 689 264.900390625 689 c 0
 297.900390625 682 414.900390625 678 617.900390625 676 c 0
 628.900390625 676 635.900390625 674 637.900390625 670 c 0
 639.900390625 666 640.900390625 662 640.900390625 657 c 0
 640.900390625 655 639.900390625 652 639.900390625 650 c 0
 637.900390625 640 631.900390625 631 623.900390625 622 c 0
 616.900390625 615 608.900390625 612 599.900390625 612 c 2
 595.900390625 612 l 2
 577.150390625 609.75 558.822265625 608.625 540.916015625 608.625 c 0
 511.072265625 608.625 482.400390625 611.75 454.900390625 618 c 1
 426.900390625 475 389.900390625 277 344.900390625 24 c 0
 341.900390625 13 334.900390625 4 324.900390625 -3 c 0
 314.900390625 -10 304.900390625 -13 295.900390625 -13 c 2
 292.900390625 -13 l 2
 284.900390625 -13 278.900390625 -10 274.900390625 -5 c 0
 273.900390625 -3 272.900390625 1 272.900390625 6 c 0
 272.900390625 11 273.900390625 16 275.900390625 23 c 0
 284.900390625 54 305.900390625 147 336.900390625 303 c 0
EndSplineSet
Validated: 524289
EndChar

StartChar: U
Encoding: 85 85 63
Width: 590
GlyphClass: 2
Flags: HMW
HStem: -29 67<260.28 317.28>
VStem: 120.28 68<141.5 183.5> 220.28 62
LayerCount: 2
Fore
SplineSet
552.280273438 251 m 0
 545.280273438 222 536.280273438 194 523.280273438 168 c 0
 512.280273438 143 499.280273438 121 486.280273438 102 c 0
 473.280273438 83 460.280273438 66 445.280273438 51 c 0
 430.280273438 36 415.280273438 24 400.280273438 14 c 0
 385.280273438 4 370.280273438 -5 354.280273438 -11 c 0
 338.280273438 -17 324.280273438 -21 310.280273438 -24 c 0
 296.280273438 -27 281.280273438 -29 267.280273438 -29 c 0
 253.280273438 -29 238.280273438 -27 223.280273438 -22 c 0
 207.280273438 -17 191.280273438 -8 176.280273438 4 c 0
 161.280273438 16 149.280273438 31 139.280273438 49 c 0
 129.280273438 67 123.280273438 91 121.280273438 121 c 0
 121.280273438 129 120.280273438 137 120.280273438 146 c 0
 120.280273438 170 122.280273438 196 127.280273438 224 c 0
 169.280273438 427 200.280273438 564 220.280273438 637 c 0
 224.280273438 653 231.280273438 665 240.280273438 673 c 0
 249.280273438 681 258.280273438 685 267.280273438 685 c 0
 273.280273438 685 277.280273438 684 279.280273438 681 c 0
 281.280273438 678 282.280273438 673 282.280273438 667 c 0
 282.280273438 661 280.280273438 655 279.280273438 648 c 0
 229.280273438 422 200.280273438 285 193.280273438 238 c 0
 189.280273438 214 188.280273438 193 188.280273438 174 c 0
 188.280273438 160 189.280273438 146 191.280273438 131 c 0
 194.280273438 113 201.280273438 97 209.280273438 83 c 0
 217.280273438 69 229.280273438 59 244.280273438 50 c 0
 259.280273438 42 275.280273438 38 295.280273438 38 c 0
 339.280273438 38 378.280273438 54 412.280273438 88 c 0
 446.280273438 122 471.280273438 172 489.280273438 239 c 0
 498.280273438 267 508.280273438 303 517.280273438 345 c 0
 527.280273438 387 536.280273438 426 543.280273438 459 c 0
 566.280273438 566 579.280273438 623 580.280273438 629 c 0
 587.280273438 656 595.280273438 673 603.280273438 679 c 0
 607.280273438 682 610.280273438 685 613.280273438 685 c 0
 616.280273438 685 620.280273438 686 625.280273438 686 c 0
 630.280273438 686 633.280273438 685 635.280273438 684 c 0
 637.280273438 683 640.280273438 680 642.280273438 676 c 0
 644.280273438 672 645.280273438 669 645.280273438 664 c 0
 645.280273438 659 644.280273438 652 643.280273438 645 c 0
 624.280273438 541 594.280273438 410 552.280273438 251 c 0
EndSplineSet
Validated: 524289
EndChar

StartChar: V
Encoding: 86 86 64
Width: 590
GlyphClass: 2
Flags: HMW
VStem: 207.874 64<623 664 631 664>
LayerCount: 2
Fore
SplineSet
657.874023438 674 m 2
 657.874023438 668 l 2
 656.874023438 662 651.874023438 654 644.874023438 645 c 0
 622.874023438 610 570.874023438 512 487.874023438 352 c 1
 410.874023438 193 359.874023438 85 335.874023438 27 c 0
 331.874023438 15 326.874023438 6 319.874023438 -1 c 0
 312.874023438 -8 304.874023438 -12 295.874023438 -12 c 2
 289.874023438 -12 l 2
 279.874023438 -12 271.874023438 -10 266.874023438 -5 c 0
 260.874023438 0 256.874023438 10 255.874023438 24 c 0
 246.874023438 96 235.874023438 204 224.874023438 350 c 0
 213.874023438 494 207.874023438 585 207.874023438 623 c 2
 207.874023438 631 l 2
 207.874023438 672 216.874023438 697 236.874023438 707 c 0
 241.874023438 709 244.874023438 711 248.874023438 711 c 0
 252.874023438 711 256.874023438 709 259.874023438 706 c 0
 266.874023438 700 270.874023438 686 271.874023438 664 c 0
 271.874023438 659 274.874023438 599 280.874023438 486 c 2
 288.874023438 359 l 1
 296.874023438 226 l 2
 299.874023438 184 302.874023438 151 304.874023438 126 c 0
 304.874023438 109 306.874023438 94 307.874023438 82 c 1
 314.874023438 90 320.874023438 102 327.874023438 117 c 0
 363.874023438 192 415.874023438 301 482.874023438 445 c 2
 589.874023438 664 l 2
 599.874023438 685 610.874023438 699 621.874023438 705 c 0
 626.874023438 709 631.874023438 711 636.874023438 711 c 0
 638.874023438 711 641.874023438 710 646.874023438 708 c 0
 649.874023438 704 652.874023438 699 654.874023438 692 c 0
 656.874023438 687 657.874023438 681 657.874023438 674 c 2
EndSplineSet
Validated: 524289
EndChar

StartChar: W
Encoding: 87 87 65
Width: 590
GlyphClass: 2
Flags: HMW
VStem: 598.24 57
LayerCount: 2
Fore
SplineSet
129.240234375 27 m 2
 129.240234375 30 l 1
 129.240234375 30 130.240234375 31 130.240234375 32 c 0
 130.240234375 34 131.240234375 58 134.240234375 105 c 0
 136.240234375 136 140.240234375 168 144.240234375 199 c 0
 154.240234375 276 175.240234375 420 206.240234375 632 c 0
 212.240234375 675 224.240234375 702 244.240234375 711 c 0
 246.240234375 713 251.240234375 714 253.240234375 714 c 2
 255.240234375 714 l 2
 259.240234375 713 262.240234375 710 265.240234375 708 c 0
 267.240234375 707 269.240234375 702 269.240234375 693 c 0
 269.240234375 690 270.240234375 686 270.240234375 681 c 0
 270.240234375 679 269.240234375 676 268.240234375 672 c 0
 259.240234375 633 237.240234375 490 202.240234375 242 c 0
 199.240234375 219 196.240234375 187 191.240234375 147 c 0
 186.240234375 103 182.240234375 75 181.240234375 65 c 1
 188.240234375 55 196.240234375 53 204.240234375 59 c 1
 211.240234375 81 221.240234375 108 231.240234375 140 c 0
 240.240234375 169 261.240234375 237 294.240234375 342 c 2
 294.240234375 342 308.240234375 392 340.240234375 493 c 0
 357.240234375 545 372.240234375 588 384.240234375 622 c 0
 396.240234375 657 404.240234375 678 409.240234375 687 c 0
 416.240234375 703 431.240234375 711 452.240234375 711 c 1
 453.240234375 720 455.240234375 720 456.240234375 712 c 1
 471.240234375 712 478.240234375 703 478.240234375 685 c 0
 478.240234375 668 474.240234375 621 466.240234375 544 c 0
 464.240234375 517 459.240234375 479 453.240234375 428 c 0
 448.240234375 378 444.240234375 340 442.240234375 313 c 0
 437.240234375 273 430.240234375 208 424.240234375 116 c 0
 422.240234375 81 421.240234375 49 419.240234375 18 c 1
 428.240234375 45 437.240234375 75 446.240234375 108 c 0
 476.240234375 204 513.240234375 332 556.240234375 493 c 0
 580.240234375 572 594.240234375 623 598.240234375 645 c 0
 601.240234375 667 608.240234375 684 618.240234375 696 c 0
 627.240234375 707 635.240234375 713 643.240234375 713 c 0
 645.240234375 713 649.240234375 712 650.240234375 711 c 0
 654.240234375 708 655.240234375 697 655.240234375 678 c 0
 655.240234375 670 654.240234375 659 651.240234375 645 c 0
 643.240234375 611 628.240234375 560 606.240234375 491 c 2
 561.240234375 347 l 1
 561.240234375 347 550.240234375 303 523.240234375 217 c 0
 506.240234375 161 493.240234375 118 482.240234375 89 c 0
 471.240234375 59 462.240234375 39 455.240234375 28 c 0
 448.240234375 14 438.240234375 4 427.240234375 -3 c 0
 416.240234375 -8 408.240234375 -11 401.240234375 -11 c 2
 397.240234375 -11 l 1
 395.240234375 -11 l 2
 386.240234375 -11 379.240234375 -8 374.240234375 -3 c 0
 369.240234375 2 367.240234375 12 367.240234375 26 c 2
 367.240234375 30 l 2
 367.240234375 92 374.240234375 175 388.240234375 279 c 2
 406.240234375 411 l 2
 418.240234375 504 426.240234375 566 429.240234375 595 c 1
 422.240234375 605 414.240234375 607 407.240234375 601 c 1
 376.240234375 490 342.240234375 374 306.240234375 255 c 0
 271.240234375 137 246.240234375 61 231.240234375 26 c 0
 228.240234375 15 222.240234375 7 214.240234375 1 c 0
 206.240234375 -4 198.240234375 -8 190.240234375 -9 c 0
 182.240234375 -10 176.240234375 -11 169.240234375 -11 c 0
 158.240234375 -10 148.240234375 -9 140.240234375 -8 c 0
 137.240234375 -6 135.240234375 -4 134.240234375 -2 c 0
 132.240234375 0 131.240234375 4 130.240234375 11 c 0
 129.240234375 16 129.240234375 21 129.240234375 27 c 2
163.240234375 -11 m 1024
EndSplineSet
Validated: 524289
EndChar

StartChar: X
Encoding: 88 88 66
Width: 590
GlyphClass: 2
Flags: HMW
VStem: 239.902 66
LayerCount: 2
Fore
SplineSet
468.90234375 -18 m 0
 461.90234375 -15 455.90234375 -7 449.90234375 5 c 0
 442.90234375 19 433.90234375 41 424.90234375 71 c 0
 415.90234375 100 404.90234375 137 392.90234375 183 c 0
 380.90234375 230 369.90234375 271 360.90234375 305 c 1
 347.90234375 288 l 2
 322.90234375 255 282.90234375 200 229.90234375 123 c 0
 173.90234375 48 142.90234375 7 135.90234375 0 c 0
 126.90234375 -11 118.90234375 -18 111.90234375 -21 c 0
 107.90234375 -23 103.90234375 -24 101.90234375 -24 c 0
 96.90234375 -24 92.90234375 -19 87.90234375 -9 c 0
 84.90234375 -3 82.90234375 4 82.90234375 11 c 0
 82.90234375 18 89.90234375 31 101.90234375 48 c 0
 108.90234375 56 144.90234375 98 208.90234375 175 c 1
 268.90234375 255 311.90234375 315 340.90234375 357 c 1
 244.90234375 627 l 2
 241.90234375 635 239.90234375 642 239.90234375 649 c 0
 239.90234375 667 245.90234375 682 256.90234375 693 c 0
 264.90234375 702 272.90234375 706 280.90234375 706 c 0
 282.90234375 706 286.90234375 704 290.90234375 702 c 0
 296.90234375 698 301.90234375 690 305.90234375 679 c 0
 318.90234375 651 345.90234375 567 387.90234375 427 c 2
 394.90234375 405 l 1
 407.90234375 424 l 2
 505.90234375 568 567.90234375 654 593.90234375 683 c 0
 601.90234375 694 609.90234375 701 617.90234375 705 c 0
 622.90234375 707 627.90234375 709 631.90234375 709 c 0
 636.90234375 709 640.90234375 707 644.90234375 700 c 0
 646.90234375 695 649.90234375 689 649.90234375 683 c 0
 649.90234375 682 650.90234375 679 650.90234375 676 c 2
 647.90234375 667 l 2
 645.90234375 661 641.90234375 655 634.90234375 648 c 2
 540.90234375 532 l 1
 481.90234375 450 442.90234375 395 421.90234375 364 c 0
 419.90234375 362 416.90234375 358 412.90234375 351 c 1
 422.90234375 321 438.90234375 269 459.90234375 195 c 0
 480.90234375 121 495.90234375 75 504.90234375 55 c 0
 509.90234375 45 511.90234375 36 511.90234375 28 c 0
 511.90234375 22 510.90234375 16 509.90234375 11 c 0
 508.90234375 6 505.90234375 1 501.90234375 -5 c 0
 493.90234375 -16 485.90234375 -22 478.90234375 -22 c 0
 476.90234375 -22 472.90234375 -20 468.90234375 -18 c 0
EndSplineSet
Validated: 524289
EndChar

StartChar: Y
Encoding: 89 89 67
Width: 590
GlyphClass: 2
Flags: HMW
VStem: 210.756 76<613 653.5 626 653.5>
LayerCount: 2
Fore
SplineSet
633.755859375 623 m 0
 628.755859375 615 619.755859375 601.999023438 606.755859375 582.999023438 c 0
 593.755859375 563.999023438 581.755859375 546.999023438 573.755859375 533.999023438 c 0
 565.755859375 520.999023438 548.755859375 496.999023438 523.755859375 461.999023438 c 0
 501.755859375 426.999023438 481.755859375 396.999023438 467.755859375 374.999023438 c 0
 435.713867188 324.647460938 400.103515625 298.091796875 371.755859375 209 c 0
 350.755859375 143 355.576171875 95.607421875 307.755859375 -17 c 0
 302.659179688 -29.0009765625 281.755859375 -35 270.755859375 -38 c 0
 268.755859375 -38 264.755859375 -39 262.755859375 -39 c 0
 257.755859375 -39 252.755859375 -37 247.755859375 -33 c 0
 242.755859375 -28 238.755859375 -21 238.755859375 -13 c 0
 238.755859375 -10 240.755859375 -6 240.755859375 -4 c 0
 241.755859375 3 247.061523438 8.7080078125 250.755859375 18 c 0
 283.755859375 101 250.755859375 18 314.755859375 231 c 1
 308.755859375 258 300.755859375 291 289.755859375 329 c 0
 278.755859375 367 271.755859375 393 267.755859375 407 c 0
 263.755859375 421 256.755859375 443 246.755859375 475 c 0
 237.755859375 504 229.755859375 530 223.755859375 551 c 0
 217.755859375 572 212.755859375 593 210.755859375 613 c 2
 210.755859375 626 l 2
 210.755859375 634 211.755859375 641 213.755859375 647 c 0
 216.755859375 657 221.755859375 665 226.755859375 670 c 0
 231.755859375 675 236.755859375 680 243.755859375 682 c 0
 249.755859375 684 254.755859375 686 259.755859375 686 c 0
 263.755859375 686 267.755859375 685 271.755859375 684 c 0
 275.755859375 683 278.755859375 679 280.755859375 673 c 0
 282.755859375 667 286.755859375 659 286.755859375 648 c 0
 287.755859375 625 290.755859375 600 294.755859375 573 c 0
 295.755859375 564 297.755859375 552 301.755859375 536 c 0
 305.755859375 520 308.755859375 510 309.755859375 506 c 0
 320.755859375 464 327.755859375 442 327.755859375 442 c 2
 338.755859375 403 346.755859375 365 352.755859375 328 c 0
 353.755859375 311 355.755859375 301 356.755859375 300 c 0
 361.755859375 300 367.755859375 308 372.755859375 323 c 0
 374.755859375 327 383.755859375 340 396.755859375 362 c 0
 409.755859375 384 431.755859375 418 460.755859375 465 c 0
 489.755859375 512 510.755859375 548 525.755859375 574 c 0
 530.755859375 583 538.755859375 595 549.755859375 611 c 0
 561.755859375 627 571.755859375 640 576.755859375 649 c 0
 582.755859375 660 588.755859375 668 594.755859375 675 c 0
 600.755859375 682 606.755859375 686 611.755859375 688 c 0
 621.755859375 692 629.755859375 692 636.755859375 689 c 0
 638.755859375 687 642.755859375 684 644.755859375 682 c 0
 647.755859375 677 648.755859375 670 648.755859375 663 c 0
 648.755859375 661 648.755859375 656 647.755859375 651 c 0
 645.755859375 642 639.755859375 633 633.755859375 623 c 0
EndSplineSet
Validated: 524289
EndChar

StartChar: Z
Encoding: 90 90 68
Width: 590
GlyphClass: 2
Flags: HMW
HStem: 9 63 627 69<255.856 302.356 259.356 302.356> 629 55
LayerCount: 2
Fore
SplineSet
510.35546875 40 m 2xa0
 508.35546875 29 503.35546875 21 496.35546875 14 c 0
 489.35546875 7 480.35546875 3 466.35546875 3 c 0
 463.35546875 3 430.35546875 4 370.35546875 6 c 0
 310.35546875 8 254.35546875 9 201.35546875 9 c 0
 178.35546875 9 148.35546875 8 109.35546875 7 c 2
 108.35546875 7 l 2
 106.35546875 7 102.35546875 8 101.35546875 9 c 0
 100.35546875 10 97.35546875 15 95.35546875 20 c 0
 93.35546875 25 93.35546875 31 93.35546875 36 c 2
 93.35546875 49 l 2
 94.35546875 55 100.35546875 66 109.35546875 81 c 0
 118.35546875 96 133.35546875 117 154.35546875 144 c 0
 182.35546875 181 240.35546875 256 330.35546875 368 c 0
 419.35546875 480 487.35546875 561 531.35546875 612 c 2
 551.35546875 634 l 1
 502.35546875 632 447.35546875 630 385.35546875 629 c 0
 323.35546875 628 281.35546875 627 260.35546875 627 c 2xc0
 259.35546875 627 l 2
 252.35546875 627 246.35546875 628 245.35546875 632 c 0
 244.35546875 636 242.35546875 640 242.35546875 644 c 0
 242.35546875 648 243.35546875 651 243.35546875 655 c 0
 245.35546875 664 252.35546875 674 262.35546875 683 c 0
 272.35546875 692 284.35546875 696 296.35546875 696 c 0
 308.35546875 696 325.35546875 694 346.35546875 690 c 0
 367.35546875 686 386.35546875 684 401.35546875 684 c 2
 418.35546875 684 l 2
 457.35546875 684 508.35546875 686 572.35546875 691 c 0
 610.35546875 693 631.35546875 695 631.35546875 695 c 2
 633.35546875 695 636.35546875 694 637.35546875 693 c 0
 638.35546875 692 640.35546875 689 641.35546875 687 c 0
 643.35546875 682 646.35546875 676 646.35546875 670 c 0
 646.35546875 667 644.35546875 663 644.35546875 658 c 0
 642.35546875 654 638.35546875 648 629.35546875 639 c 0
 620.35546875 630 607.35546875 618 593.35546875 605 c 0
 579.35546875 592 570.35546875 581 563.35546875 573 c 0
 536.35546875 540 497.35546875 493 447.35546875 431 c 0
 397.35546875 369 348.35546875 308 300.35546875 247 c 0
 252.35546875 186 210.35546875 131 177.35546875 84 c 2
 162.35546875 63 l 1
 189.35546875 65 l 2
 258.35546875 70 321.35546875 72 380.35546875 72 c 0
 427.35546875 72 462.35546875 70 484.35546875 66 c 0
 496.35546875 64 504.35546875 60 508.35546875 55 c 0
 510.35546875 53 510.35546875 50 510.35546875 46 c 2
 510.35546875 40 l 2xa0
EndSplineSet
Validated: 524289
EndChar

StartChar: bracketleft
Encoding: 91 91 69
Width: 590
GlyphClass: 2
Flags: HMW
HStem: -69 47 773 64<592.292 594.292>
LayerCount: 2
Fore
SplineSet
516.291992188 837 m 1
 587.291992188 837 l 2
 601.291992188 837 609.291992188 838 609.291992188 838 c 2
 618.291992188 838 624.291992188 837 626.291992188 833 c 0
 628.291992188 829 629.291992188 824 629.291992188 819 c 2
 629.291992188 812 l 2
 628.291992188 807 625.291992188 803 623.291992188 798 c 0
 617.291992188 786 610.291992188 778 601.291992188 775 c 0
 598.291992188 774 595.291992188 773 593.291992188 773 c 0
 591.291992188 773 588.291992188 774 587.291992188 774 c 0
 564.291992188 778 526.291992188 780 474.291992188 780 c 0
 451.291992188 780 421.291992188 779 386.291992188 778 c 1
 381.291992188 758 372.291992188 719 357.291992188 661 c 0
 342.291992188 603 330.291992188 555 320.291992188 516 c 0
 310.291992188 477 299.291992188 431 287.291992188 377 c 0
 280.291992188 337 264.291992188 268 240.291992188 170 c 0
 216.291992188 72 201.291992188 8 194.291992188 -22 c 1
 237.291992188 -22 l 2
 267.291992188 -22 303.291992188 -21 345.291992188 -20 c 0
 387.291992188 -19 410.291992188 -17 415.291992188 -17 c 0
 425.291992188 -17 431.291992188 -19 433.291992188 -21 c 0
 435.291992188 -25 435.291992188 -31 434.291992188 -39 c 0
 432.291992188 -49 428.291992188 -58 422.291992188 -65 c 0
 420.291992188 -68 416.291992188 -71 413.291992188 -72 c 0
 410.291992188 -73 407.291992188 -74 405.291992188 -74 c 0
 403.291992188 -74 400.291992188 -73 398.291992188 -73 c 0
 383.291992188 -71 363.291992188 -70 338.291992188 -70 c 0
 336.291992188 -70 328.291992188 -69 317.291992188 -69 c 0
 306.291992188 -69 291.291992188 -70 274.291992188 -71 c 0
 211.291992188 -75 168.291992188 -77 146.291992188 -77 c 0
 133.291992188 -77 125.291992188 -74 121.291992188 -70 c 0
 119.291992188 -68 118.291992188 -65 118.291992188 -61 c 0
 118.291992188 -55 120.291992188 -47 125.291992188 -37 c 1
 125.291992188 -36 l 1
 128.291992188 -27 l 2
 139.291992188 8 156.291992188 71 178.291992188 161 c 0
 200.291992188 251 221.291992188 341 240.291992188 431 c 0
 243.291992188 452 248.291992188 474 254.291992188 500 c 0
 260.291992188 526 272.291992188 579 292.291992188 660 c 0
 297.291992188 681 302.291992188 703 309.291992188 729 c 0
 316.291992188 755 320.291992188 772 322.291992188 781 c 2
 323.291992188 784 l 2
 323.291992188 788 322.291992188 791 322.291992188 793 c 0
 322.291992188 805 327.291992188 815 337.291992188 824 c 0
 344.291992188 831 355.291992188 835 368.291992188 835 c 0
 412.291992188 836 453.291992188 837 489.291992188 837 c 2
 516.291992188 837 l 1
EndSplineSet
Validated: 524289
EndChar

StartChar: backslash
Encoding: 92 92 70
Width: 590
GlyphClass: 2
Flags: HMW
VStem: 432.443 71<4.29497e+09 4.29497e+09>
LayerCount: 2
Fore
SplineSet
455.442382812 -45 m 0
 444.442382812 -39 437.442382812 -29 432.442382812 -14 c 0
 430.442382812 -3 422.442382812 27 411.442382812 76 c 0
 400.442382812 125 392.442382812 160 387.442382812 181 c 0
 378.442382812 214 351.442382812 296 308.442382812 429 c 0
 265.442382812 562 239.442382812 645 231.442382812 679 c 0
 230.442382812 684 229.442382812 689 229.442382812 694 c 0
 229.442382812 702 231.442382812 709 233.442382812 715 c 0
 238.442382812 724 245.442382812 731 255.442382812 736 c 0
 263.442382812 739 270.442382812 741 277.442382812 741 c 0
 282.442382812 741 288.442382812 739 292.442382812 735 c 0
 296.442382812 731 299.442382812 726 301.442382812 718 c 0
 324.442382812 621 348.442382812 535 370.442382812 458 c 0
 405.442382812 333 450.442382812 190 504.442382812 30 c 0
 506.442382812 24 507.442382812 17 507.442382812 10 c 0
 507.442382812 3 505.442382812 -6 503.442382812 -15 c 0
 498.442382812 -31 491.442382812 -41 483.442382812 -45 c 0
 478.442382812 -47 474.442382812 -49 469.442382812 -49 c 0
 464.442382812 -49 460.442382812 -47 455.442382812 -45 c 0
EndSplineSet
Validated: 524289
EndChar

StartChar: bracketright
Encoding: 93 93 71
Width: 590
GlyphClass: 2
Flags: HMW
HStem: -69 49 780 57<453.595 468.095>
LayerCount: 2
Fore
SplineSet
480.594726562 837 m 2
 517.594726562 837 557.594726562 836 599.594726562 835 c 0
 611.594726562 835 619.594726562 832 622.594726562 827 c 0
 624.594726562 824 626.594726562 820 626.594726562 816 c 0
 626.594726562 812 625.594726562 809 625.594726562 806 c 0
 623.594726562 801 621.594726562 796 619.594726562 792 c 2
 617.594726562 789 l 1
 617.594726562 787 l 1
 615.594726562 781 l 1
 615.594726562 780 l 2
 615.594726562 775 610.594726562 760 605.594726562 735 c 2
 575.594726562 591 l 2
 563.594726562 535 550.594726562 483 537.594726562 436 c 0
 515.594726562 346 494.594726562 256 474.594726562 166 c 0
 454.594726562 76 442.594726562 14 437.594726562 -21 c 2
 435.594726562 -30 l 1
 435.594726562 -32 l 2
 435.594726562 -39 434.594726562 -45 433.594726562 -50 c 0
 432.594726562 -58 427.594726562 -64 420.594726562 -69 c 0
 413.594726562 -74 403.594726562 -77 390.594726562 -77 c 0
 368.594726562 -77 326.594726562 -74 265.594726562 -71 c 0
 247.594726562 -71 226.594726562 -69 203.594726562 -69 c 0
 180.594726562 -69 160.594726562 -71 140.594726562 -73 c 0
 137.594726562 -73 133.594726562 -74 132.594726562 -74 c 0
 127.594726562 -74 123.594726562 -72 122.594726562 -70 c 0
 121.594726562 -63 121.594726562 -55 123.594726562 -44 c 0
 125.594726562 -35 130.594726562 -29 135.594726562 -24 c 0
 140.594726562 -19 149.594726562 -17 160.594726562 -17 c 0
 164.594726562 -17 186.594726562 -19 228.594726562 -20 c 0
 270.594726562 -21 305.594726562 -22 335.594726562 -22 c 2
 372.594726562 -22 l 1
 378.594726562 4 392.594726562 67 413.594726562 165 c 0
 434.594726562 263 450.594726562 331 461.594726562 371 c 1
 461.594726562 372 l 1
 474.594726562 425 486.594726562 472 494.594726562 511 c 0
 502.594726562 550 520.594726562 639 549.594726562 778 c 1
 510.594726562 779 479.594726562 780 456.594726562 780 c 0
 406.594726562 780 369.594726562 778 343.594726562 774 c 0
 341.594726562 774 337.594726562 773 335.594726562 773 c 0
 333.594726562 773 330.594726562 773 328.594726562 774 c 0
 326.594726562 775 324.594726562 778 324.594726562 780 c 0
 321.594726562 789 320.594726562 798 322.594726562 807 c 0
 324.594726562 816 328.594726562 823 335.594726562 830 c 0
 341.594726562 835 349.594726562 838 360.594726562 838 c 2
 361.594726562 838 l 2
 389.594726562 838 420.594726562 837 453.594726562 837 c 2
 480.594726562 837 l 2
EndSplineSet
Validated: 1
EndChar

StartChar: asciicircum
Encoding: 94 94 72
Width: 590
GlyphClass: 2
Flags: HMW
HStem: 607 326<218.613 501.113>
LayerCount: 2
Fore
SplineSet
611.112304688 614 m 0
 606.112304688 619 597.112304688 630 585.112304688 648 c 0
 583.112304688 650 579.112304688 654 577.112304688 658 c 0
 550.112304688 698 533.112304688 726 523.112304688 743 c 0
 513.112304688 760 501.112304688 787 484.112304688 824 c 2
 475.112304688 841 l 1
 463.112304688 828 l 2
 441.112304688 803 422.112304688 783 405.112304688 767 c 0
 388.112304688 751 375.112304688 739 365.112304688 731 c 0
 355.112304688 723 342.112304688 713 326.112304688 699 c 0
 310.112304688 685 294.112304688 670 276.112304688 653 c 0
 273.112304688 651 268.112304688 647 263.112304688 642 c 0
 245.112304688 625 232.112304688 615 225.112304688 610 c 0
 223.112304688 608 220.112304688 607 219.112304688 607 c 0
 218.112304688 607 217.112304688 609 215.112304688 609 c 0
 208.112304688 613 202.112304688 620 199.112304688 631 c 0
 199.112304688 632 198.112304688 634 198.112304688 636 c 0
 198.112304688 647 206.112304688 659 218.112304688 672 c 0
 233.112304688 689 254.112304688 709 280.112304688 734 c 0
 306.112304688 759 335.112304688 786 367.112304688 817 c 0
 399.112304688 848 431.112304688 882 464.112304688 918 c 0
 470.112304688 925 478.112304688 929 487.112304688 931 c 0
 491.112304688 932 495.112304688 933 499.112304688 933 c 0
 503.112304688 933 507.112304688 932 511.112304688 931 c 0
 516.112304688 929 521.112304688 926 522.112304688 922 c 2
 522.112304688 921 l 1
 538.112304688 886 552.112304688 857 564.112304688 834 c 0
 576.112304688 811 585.112304688 794 592.112304688 783 c 0
 599.112304688 772 609.112304688 756 622.112304688 735 c 0
 635.112304688 714 647.112304688 696 658.112304688 679 c 0
 661.112304688 674 663.112304688 668 663.112304688 663 c 0
 663.112304688 655 660.112304688 648 655.112304688 642 c 0
 645.112304688 629 634.112304688 621 622.112304688 616 c 0
 619.112304688 614 616.112304688 613 615.112304688 613 c 0
 614.112304688 613 612.112304688 614 611.112304688 614 c 0
EndSplineSet
Validated: 524289
EndChar

StartChar: underscore
Encoding: 95 95 73
Width: 590
GlyphClass: 2
Flags: HMW
HStem: -87 60<78.0023 99.5023>
LayerCount: 2
Fore
SplineSet
61.5029296875 -72 m 0
 61.5029296875 -68 62.5029296875 -64 63.5029296875 -59 c 0
 65.5029296875 -49 68.5029296875 -41 73.5029296875 -36 c 0
 78.5029296875 -30 86.5029296875 -27 97.5029296875 -27 c 2
 99.5029296875 -27 l 2
 156.502929688 -28 204.502929688 -29 244.502929688 -29 c 0
 284.502929688 -29 333.502929688 -28 394.502929688 -27 c 0
 443.502929688 -27 472.502929688 -25 483.502929688 -25 c 0
 494.502929688 -25 500.502929688 -27 501.502929688 -30 c 0
 503.502929688 -35 504.502929688 -42 503.502929688 -51 c 0
 501.502929688 -62 496.502929688 -70 491.502929688 -75 c 0
 484.502929688 -82 475.502929688 -85 464.502929688 -85 c 0
 235.502929688 -86 108.502929688 -87 81.5029296875 -87 c 0
 74.5029296875 -87 69.5029296875 -86 66.5029296875 -84 c 0
 63.5029296875 -82 61.5029296875 -78 61.5029296875 -72 c 0
EndSplineSet
Validated: 524289
EndChar

StartChar: grave
Encoding: 96 96 74
Width: 590
GlyphClass: 2
Flags: HMW
HStem: 636 161<398.38 498.38>
LayerCount: 2
Fore
SplineSet
497.379882812 636 m 0
 489.379882812 636 481.379882812 639 472.379882812 644 c 0
 443.379882812 665 424.379882812 678 417.379882812 683 c 0
 410.379882812 688 401.379882812 695 390.379882812 704 c 0
 379.379882812 713 369.379882812 721 362.379882812 728 c 0
 357.379882812 734 354.379882812 743 354.379882812 754 c 0
 354.379882812 763 357.379882812 772 362.379882812 781 c 0
 369.379882812 788 379.379882812 794 390.379882812 796 c 0
 393.379882812 796 397.379882812 797 399.379882812 797 c 0
 405.379882812 797 410.379882812 796 415.379882812 792 c 0
 417.379882812 790 433.379882812 773 462.379882812 742 c 0
 467.379882812 736 475.379882812 729 485.379882812 720 c 0
 495.379882812 711 505.379882812 703 513.379882812 698 c 0
 523.379882812 692 529.379882812 684 531.379882812 673 c 0
 531.379882812 670 532.379882812 666 532.379882812 664 c 0
 532.379882812 658 529.379882812 653 526.379882812 649 c 0
 521.379882812 642 513.379882812 638 503.379882812 637 c 0
 501.379882812 637 499.379882812 636 497.379882812 636 c 0
EndSplineSet
Validated: 524289
EndChar

StartChar: a
Encoding: 97 97 75
Width: 590
GlyphClass: 2
Flags: HMW
HStem: -28 69 438 72
VStem: 425.886 51
LayerCount: 2
Fore
SplineSet
263.885742188 450 m 0
 288.885742188 471 323.885742188 486.999023438 366.885742188 499.999023438 c 0
 387.885742188 505.999023438 409.885742188 509.999023438 432.885742188 509.999023438 c 2
 440.885742188 509.999023438 l 2
 492.885742188 508.999023438 524.885742188 492.999023438 534.885742188 464.999023438 c 0
 542.086914062 444.74609375 545.641601562 420.64453125 545.641601562 392.51171875 c 0
 545.641601562 358.13671875 540.333984375 317.743164062 529.885742188 270.999023438 c 0
 529.885742188 268.999023438 527.885742188 260.999023438 524.885742188 247.999023438 c 0
 521.885742188 234.999023438 516.885742188 212.999023438 508.885742188 182.999023438 c 0
 500.885742188 152.999023438 497.885742188 136.999023438 497.885742188 135.999023438 c 0
 493.885742188 118.999023438 488.885742188 86.9990234375 482.885742188 36.9990234375 c 0
 481.885742188 21.9990234375 478.885742188 8.9990234375 476.885742188 -2.0009765625 c 0
 471.885742188 -26.0009765625 464.885742188 -38.0009765625 456.885742188 -38.0009765625 c 0
 435.885742188 -38.0009765625 425.885742188 -34.0009765625 425.885742188 -25.0009765625 c 0
 424.713867188 -7.427734375 424.228515625 12.205078125 424.228515625 34.09765625 c 0
 424.228515625 49.578125 424.470703125 66.1884765625 424.884765625 84 c 1
 417.884765625 71 412.884765625 64 408.884765625 64 c 0
 380.884765625 29 355.884765625 5 332.884765625 -10 c 0
 313.884765625 -22 286.884765625 -28 249.884765625 -28 c 0
 233.884765625 -28 216.884765625 -23 198.884765625 -12 c 0
 179.884765625 -1 164.884765625 17 153.884765625 40 c 0
 142.884765625 63 137.884765625 87 135.884765625 111 c 1
 139.884765625 128 145.884765625 146 153.884765625 165 c 0
 162.884765625 186 174.884765625 203 190.884765625 217 c 0
 213.884765625 238 229.884765625 251 237.884765625 255 c 0
 272.884765625 273 292.884765625 284 297.884765625 285 c 0
 339.884765625 298 362.884765625 306 367.884765625 307 c 0
 396.884765625 311 414.884765625 314 422.884765625 316 c 0
 425.884765625 317 443.884765625 323 475.884765625 335 c 0
 476.884765625 339 478.884765625 340 478.884765625 340 c 2
 481.884765625 346 483.884765625 353 484.884765625 359 c 0
 485.884765625 365 487.884765625 370 487.884765625 376 c 0
 487.884765625 382 486.884765625 389 482.884765625 398 c 0
 477.884765625 410 469.884765625 419 460.884765625 425 c 0
 453.884765625 431 439.884765625 436 420.884765625 437 c 0
 417.884765625 437 414.884765625 438 411.884765625 438 c 0
 398.884765625 438 385.884765625 435 369.884765625 430 c 0
 353.884765625 425 340.884765625 417 328.884765625 409 c 0
 306.884765625 395 289.884765625 383 278.884765625 373 c 0
 258.884765625 352 243.884765625 340 230.884765625 340 c 0
 224.884765625 340 218.884765625 343 213.884765625 348 c 0
 206.650390625 354.430664062 203.29296875 361.5078125 203.29296875 369.75 c 0
 203.29296875 371.76171875 203.493164062 373.842773438 203.885742188 376 c 0
 205.885742188 387 214.885742188 401 226.885742188 415 c 0
 237.885742188 428 249.885742188 439 263.885742188 450 c 0
352.885742188 67.9990234375 m 0
 365.885742188 77.9990234375 377.885742188 89.9990234375 388.885742188 103.999023438 c 0
 400.885742188 117.999023438 412.885742188 135.999023438 423.885742188 156.999023438 c 0
 434.885742188 177.999023438 444.885742188 200.999023438 451.885742188 225.999023438 c 2
 454.885742188 236.999023438 l 1
 443.885742188 235.999023438 l 2
 328.885742188 224.999023438 249.885742188 191.999023438 206.885742188 136.999023438 c 1
 203.885742188 131.999023438 l 1
 204.885742188 126.999023438 l 2
 212.885742188 94.9990234375 222.885742188 72.9990234375 236.885742188 59.9990234375 c 0
 248.885742188 46.9990234375 263.885742188 40.9990234375 282.885742188 40.9990234375 c 0
 304.885742188 40.9990234375 328.885742188 48.9990234375 352.885742188 67.9990234375 c 0
EndSplineSet
Validated: 524289
EndChar

StartChar: b
Encoding: 98 98 76
Width: 590
GlyphClass: 2
Flags: HMW
HStem: -14 74<288.521 311.021> 425 65<354.521 429.021>
VStem: 120.521 60 469.521 69<295.5 370.5>
LayerCount: 2
Fore
SplineSet
527.521484375 263 m 0
 520.521484375 227 509.521484375 194 496.521484375 164 c 0
 483.521484375 134 467.521484375 107 451.521484375 86 c 0
 435.521484375 65 418.521484375 46 401.521484375 31 c 0
 384.521484375 16 368.521484375 4 351.521484375 -3 c 0
 334.521484375 -10 318.521484375 -14 303.521484375 -14 c 0
 261.521484375 -14 226.521484375 2 200.521484375 31 c 1
 195.521484375 29 191.521484375 34 186.521484375 47 c 1
 184.521484375 32 182.521484375 26 180.521484375 26 c 0
 175.521484375 12 170.521484375 2 163.521484375 -3 c 0
 156.521484375 -8 148.521484375 -11 139.521484375 -11 c 0
 132.521484375 -11 126.521484375 -9 124.521484375 -6 c 0
 122.521484375 -3 120.521484375 2 120.521484375 8 c 0
 120.521484375 14 121.521484375 22 123.521484375 30 c 0
 141.521484375 115 168.521484375 237 204.521484375 396 c 0
 239.521484375 555 262.521484375 663 275.521484375 722 c 0
 279.521484375 741 284.521484375 753 290.521484375 759 c 0
 296.521484375 765 304.521484375 768 314.521484375 768 c 0
 320.521484375 768 325.521484375 766 328.521484375 761 c 0
 330.521484375 759 331.521484375 754 331.521484375 748 c 0
 331.521484375 742 330.521484375 733 328.521484375 723 c 0
 321.521484375 698 314.521484375 666 307.521484375 624 c 0
 294.521484375 564 281.521484375 499 268.521484375 428 c 1
 276.521484375 437 284.521484375 443 291.521484375 445 c 0
 328.521484375 475 369.521484375 490 412.521484375 490 c 0
 445.521484375 490 473.521484375 480 494.521484375 461 c 0
 523.521484375 436 538.521484375 397 538.521484375 344 c 0
 538.521484375 319 534.521484375 292 527.521484375 263 c 0
437.521484375 397 m 0
 420.521484375 416 398.521484375 425 372.521484375 425 c 0
 336.521484375 425 299.521484375 408 260.521484375 374 c 2
 257.521484375 371 l 1
 240.521484375 288 219.521484375 201 197.521484375 109 c 1
 200.521484375 105 l 2
 211.521484375 88 225.521484375 77 243.521484375 70 c 0
 258.521484375 63 277.521484375 60 299.521484375 60 c 0
 339.521484375 60 372.521484375 78 400.521484375 113 c 0
 429.521484375 147 450.521484375 193 463.521484375 251 c 0
 467.521484375 269 469.521484375 287 469.521484375 304 c 0
 469.521484375 344 458.521484375 375 437.521484375 397 c 0
EndSplineSet
Validated: 524289
EndChar

StartChar: c
Encoding: 99 99 77
Width: 590
GlyphClass: 2
Flags: HMW
HStem: -31 68<268.941 315.941> 458 69<406.941 462.941>
VStem: 156.941 70<123.5 126.5> 466.941 70<358.5 405>
LayerCount: 2
Fore
SplineSet
512.94140625 492 m 0
 529.94140625 468 536.94140625 440 536.94140625 407 c 2
 536.94140625 405 l 2
 536.94140625 389 534.94140625 376 529.94140625 365 c 0
 523.94140625 352 513.94140625 343 500.94140625 337 c 0
 494.94140625 335 489.94140625 333 484.94140625 333 c 0
 481.94140625 333 477.94140625 334 475.94140625 335 c 0
 473.94140625 335 471.94140625 338 469.94140625 343 c 0
 467.94140625 348 466.94140625 354 466.94140625 363 c 0
 466.94140625 366 464.94140625 377 464.94140625 397 c 0
 464.94140625 402 464.94140625 408 463.94140625 415 c 0
 462.94140625 422 460.94140625 428 458.94140625 432 c 0
 456.94140625 436 452.94140625 440 448.94140625 444 c 0
 440.94140625 453 428.94140625 458 411.94140625 458 c 0
 401.94140625 458 391.94140625 456 380.94140625 451 c 0
 369.94140625 446 357.94140625 438 344.94140625 426 c 0
 331.94140625 414 319.94140625 399 307.94140625 382 c 0
 295.94140625 365 283.94140625 343 272.94140625 315 c 0
 259.94140625 287 248.94140625 256 239.94140625 221 c 0
 230.94140625 189 226.94140625 161 226.94140625 137 c 0
 226.94140625 110 232.94140625 88 243.94140625 71 c 0
 258.94140625 50 279.94140625 39 306.94140625 37 c 2
 315.94140625 37 l 2
 338.94140625 37 359.94140625 42 377.94140625 52 c 0
 398.94140625 64 413.94140625 78 420.94140625 93 c 0
 426.94140625 104 432.94140625 112 438.94140625 118 c 0
 444.94140625 124 447.94140625 128 451.94140625 129 c 0
 455.94140625 130 459.94140625 131 462.94140625 131 c 0
 465.94140625 131 468.94140625 129 473.94140625 127 c 0
 476.94140625 125 479.94140625 122 481.94140625 120 c 0
 483.94140625 118 484.94140625 114 484.94140625 110 c 0
 484.94140625 100 479.94140625 86 468.94140625 69 c 0
 453.94140625 44 429.94140625 22 398.94140625 2 c 0
 383.94140625 -9 365.94140625 -17 345.94140625 -23 c 0
 325.94140625 -28 303.94140625 -31 281.94140625 -31 c 0
 255.94140625 -31 233.94140625 -26 213.94140625 -14 c 0
 195.94140625 -3 182.94140625 12 173.94140625 32 c 0
 162.94140625 57 156.94140625 85 156.94140625 116 c 0
 156.94140625 137 159.94140625 158 164.94140625 180 c 0
 175.94140625 227 189.94140625 269 206.94140625 308 c 0
 223.94140625 347 242.94140625 379 263.94140625 406 c 0
 283.94140625 433 302.94140625 455 322.94140625 474 c 0
 361.94140625 509 403.94140625 527 449.94140625 527 c 0
 475.94140625 527 496.94140625 515 512.94140625 492 c 0
EndSplineSet
Validated: 524289
EndChar

StartChar: d
Encoding: 100 100 78
Width: 590
GlyphClass: 2
Flags: HMW
HStem: -14 76<272.948 307.948> 436 75<379.948 383.948 379.948 379.948>
VStem: 152.948 62<171 182> 423.948 65<20.5 50>
LayerCount: 2
Fore
SplineSet
335.948242188 65 m 0
 344.948242188 67 352.948242188 71 359.948242188 74 c 0
 366.948242188 77 372.948242188 81 379.948242188 87 c 0
 386.948242188 93 391.948242188 99 396.948242188 103 c 0
 401.948242188 107 406.948242188 113 412.948242188 121 c 0
 418.948242188 129 424.948242188 135 426.948242188 139 c 0
 428.948242188 143 431.948242188 147 434.948242188 152 c 0
 437.948242188 157 440.948242188 162 442.948242188 164 c 0
 455.948242188 226 462.948242188 261 464.948242188 268 c 0
 465.948242188 275 467.948242188 286 471.948242188 301 c 0
 475.948242188 316 477.948242188 329 479.948242188 338 c 1
 478.948242188 341 l 2
 471.948242188 368 460.948242188 391 443.948242188 409 c 0
 426.948242188 427 406.948242188 436 383.948242188 436 c 2
 379.948242188 436 l 2
 355.948242188 435 332.948242188 426 311.948242188 410 c 0
 290.948242188 394 274.948242188 373 259.948242188 348 c 0
 244.948242188 323 232.948242188 296 225.948242188 267 c 0
 217.948242188 235 214.948242188 207 214.948242188 183 c 0
 214.948242188 159 216.948242188 137 223.948242188 120 c 0
 231.948242188 99 245.948242188 83 262.948242188 74 c 0
 275.948242188 66 289.948242188 62 306.948242188 62 c 2
 307.948242188 62 l 2
 316.948242188 62 326.948242188 63 335.948242188 65 c 0
152.948242188 166 m 0
 152.948242188 198 156.948242188 233 165.948242188 271 c 0
 174.948242188 316 191.948242188 358 213.948242188 394 c 0
 235.948242188 430 261.948242188 458 292.948242188 479 c 0
 321.948242188 500 353.948242188 511 385.948242188 511 c 0
 429.948242188 511 465.948242188 498 490.948242188 472 c 1
 495.948242188 475 499.948242188 471 504.948242188 458 c 1
 535.948242188 595 557.948242188 681 568.948242188 716 c 0
 573.948242188 733 580.948242188 745 587.948242188 754 c 0
 596.948242188 764 605.948242188 769 617.948242188 769 c 0
 624.948242188 769 631.948242188 766 633.948242188 761 c 0
 634.948242188 760 635.948242188 757 635.948242188 753 c 0
 635.948242188 746 632.948242188 736 629.948242188 723 c 0
 618.948242188 681 599.948242188 606 571.948242188 495 c 0
 543.948242188 384 524.948242188 299 511.948242188 242 c 1
 511.948242188 241 l 1
 504.948242188 202 498.948242188 168 494.948242188 139 c 0
 490.948242188 110 489.948242188 89 489.948242188 77 c 0
 489.948242188 65 488.948242188 54 488.948242188 46 c 0
 488.948242188 38 487.948242188 32 485.948242188 27 c 0
 481.948242188 16 476.948242188 8 469.948242188 2 c 0
 464.948242188 -3 457.948242188 -7 448.948242188 -9 c 0
 445.948242188 -9 440.948242188 -10 438.948242188 -10 c 0
 436.948242188 -10 433.948242188 -9 431.948242188 -8 c 0
 429.948242188 -7 428.948242188 -4 427.948242188 -1 c 0
 425.948242188 6 423.948242188 15 423.948242188 26 c 0
 423.948242188 34 424.948242188 43 425.948242188 52 c 0
 426.948242188 60 428.948242188 74 430.948242188 95 c 1
 422.948242188 78 414.948242188 67 406.948242188 62 c 0
 398.948242188 51 390.948242188 42 382.948242188 34 c 0
 374.948242188 26 365.948242188 17 354.948242188 10 c 0
 333.948242188 -6 309.948242188 -14 280.948242188 -14 c 0
 264.948242188 -14 248.948242188 -10 233.948242188 -3 c 0
 218.948242188 4 203.948242188 15 191.948242188 30 c 0
 179.948242188 45 169.948242188 64 162.948242188 85 c 0
 155.948242188 106 152.948242188 134 152.948242188 166 c 0
EndSplineSet
Validated: 524289
EndChar

StartChar: e
Encoding: 101 101 79
Width: 590
GlyphClass: 2
Flags: HMW
HStem: -28 60<280.568 313.568 280.568 313.568> 455 66<383.568 431.568>
VStem: 159.568 61<134 140.5>
LayerCount: 2
Fore
SplineSet
464.567382812 60 m 0
 452.567382812 45 440.567382812 33 429.567382812 24 c 0
 418.567382812 14 406.567382812 5 392.567382812 -4 c 0
 366.567382812 -20 331.567382812 -28 289.567382812 -28 c 2
 280.567382812 -28 l 2
 228.567382812 -27 193.567382812 -4 174.567382812 39 c 0
 164.567382812 63 159.567382812 91 159.567382812 124 c 0
 159.567382812 157 164.567382812 193 173.567382812 234 c 0
 183.567382812 279 198.567382812 320 218.567382812 356 c 0
 238.567382812 392 259.567382812 423 282.567382812 447 c 0
 303.567382812 471 325.567382812 489 349.567382812 502 c 0
 373.567382812 515 398.567382812 521 423.567382812 521 c 0
 439.567382812 521 455.567382812 516 472.567382812 505 c 0
 489.567382812 494 503.567382812 479 516.567382812 458 c 0
 529.567382812 437 536.567382812 416 537.567382812 393 c 0
 537.567382812 378 529.567382812 362 515.567382812 343 c 0
 501.567382812 324 487.567382812 310 474.567382812 300 c 0
 448.567382812 280 416.567382812 261 376.567382812 241 c 0
 356.567382812 232 340.567382812 224 326.567382812 217 c 0
 312.567382812 210 296.567382812 202 275.567382812 193 c 0
 257.567382812 184 239.567382812 178 222.567382812 173 c 1
 221.567382812 158 220.567382812 146 220.567382812 138 c 0
 220.567382812 130 221.567382812 123 221.567382812 116 c 0
 223.567382812 101 227.567382812 88 233.567382812 75 c 0
 239.567382812 62 247.567382812 51 260.567382812 44 c 0
 273.567382812 36 289.567382812 32 307.567382812 32 c 0
 319.567382812 32 332.567382812 35 346.567382812 40 c 0
 360.567382812 45 372.567382812 51 383.567382812 60 c 0
 403.567382812 77 417.567382812 89 424.567382812 98 c 0
 435.567382812 110 444.567382812 119 452.567382812 124 c 0
 457.567382812 127 463.567382812 129 467.567382812 129 c 0
 471.567382812 129 475.567382812 127 478.567382812 124 c 0
 483.567382812 119 486.567382812 112 486.567382812 105 c 0
 486.567382812 93 479.567382812 78 464.567382812 60 c 0
331.567382812 427 m 0
 320.567382812 417 309.567382812 405 299.567382812 391 c 0
 289.567382812 377 279.567382812 360 269.567382812 339 c 0
 258.567382812 318 249.567382812 295 242.567382812 270 c 2
 237.567382812 249 l 1
 257.567382812 255 l 2
 360.567382812 287 430.567382812 319 467.567382812 352 c 2
 473.567382812 357 l 1
 471.567382812 364 l 2
 464.567382812 396 455.567382812 419 442.567382812 433 c 0
 428.567382812 448 412.567382812 455 393.567382812 455 c 0
 373.567382812 455 352.567382812 446 331.567382812 427 c 0
EndSplineSet
Validated: 524289
EndChar

